<?xml version="1.0" standalone="no"?>
<!DOCTYPE svg PUBLIC "-//W3C//DTD SVG 1.1//EN" "http://www.w3.org/Graphics/SVG/1.1/DTD/svg11.dtd" >
<svg xmlns="http://www.w3.org/2000/svg">
<metadata></metadata>
<defs>
<font id="typosterregular" horiz-adv-x="1605" >
<font-face units-per-em="2048" ascent="1638" descent="-410" />
<missing-glyph horiz-adv-x="496" />
<glyph unicode="&#xd;" horiz-adv-x="160" />
<glyph horiz-adv-x="160" />
<glyph horiz-adv-x="160" />
<glyph unicode=" "  horiz-adv-x="496" />
<glyph unicode="&#x09;" horiz-adv-x="496" />
<glyph unicode="&#xa0;" horiz-adv-x="496" />
<glyph unicode="!" horiz-adv-x="587" d="M80 1313h384l-74 -906h-237zM93 0v317h359v-317h-359z" />
<glyph unicode="&#x22;" horiz-adv-x="851" d="M80 1314h291l-46 -401h-197zM480 1314h291l-46 -401h-197z" />
<glyph unicode="#" horiz-adv-x="1277" d="M80 539h171l51 235h-217l-5 236h265l57 308h252l-57 -308h220l58 308h251l-55 -308h121l5 -236h-172l-49 -235h216l5 -237h-265l-56 -302h-253l56 302h-221l-57 -302h-251l59 302h-124zM503 539h221l50 235h-220z" />
<glyph unicode="$" horiz-adv-x="1265" d="M80 338l331 42q22 -147 168 -184v318q-89 20 -154 39q-73 21 -113 40q-113 54 -160 174q-28 69 -28 143q0 47 10 95q27 127 111 210q45 43 100 68q90 39 234 44v120h129v-121q137 -7 224 -51q145 -71 213 -275l-310 -38q-35 105 -127 125v-255q187 -28 281 -75 q137 -71 180 -222q16 -57 16 -116q0 -85 -35 -173q-25 -61 -65 -112q-52 -66 -123 -104q-97 -52 -254 -61v-171h-129v171q-205 9 -322 85q-136 90 -177 284zM460 964q3 -55 48 -82q22 -14 71 -26v232q-58 -11 -82 -34q-37 -35 -37 -86v-4zM708 196q132 35 132 160 q0 63 -53 98q-19 11 -65 26q-6 2 -14 4v-288z" />
<glyph unicode="%" horiz-adv-x="1494" d="M70 1005q0 149 91 238q81 81 199 82h3q117 0 196 -79q91 -88 91 -241q0 -152 -91 -241q-79 -79 -196 -79h-3q-118 1 -199 80q-91 90 -91 240zM276 1003q0 -83 26 -132q24 -44 58 -44t58 44q27 49 27 132t-27 132q-24 45 -58 45t-58 -45q-26 -49 -26 -132zM363 -2 l619 1312h154l-621 -1312h-152zM844 306q0 150 90 239q83 80 200 80h3q116 0 197 -79q90 -88 90 -240q0 -153 -90 -242q-81 -79 -197 -79h-3q-117 1 -200 81q-90 90 -90 240zM1049 304q0 -84 27 -132q23 -44 58 -44q34 0 58 44q27 48 27 132q0 83 -27 132q-24 44 -58 44 q-35 0 -58 -44q-27 -50 -27 -132z" />
<glyph unicode="&#x26;" horiz-adv-x="1358" d="M97 366q0 102 60 192q64 98 218 166q-69 86 -96 148q-31 70 -31 140q0 24 4 50q15 97 85 163q99 94 296 98h17q188 0 282 -93q92 -91 92 -197q0 -50 -21 -104q-51 -131 -199 -239q91 -92 191 -175q27 63 42 153l262 -100q-29 -124 -84 -234q109 -77 123 -86l-164 -225 q-18 12 -66 52q-46 37 -67 50q-72 -68 -179 -103q-133 -43 -273 -43q-26 0 -53 2q-199 11 -311 110q-105 92 -124 223q-4 26 -4 52zM415 351q0 -26 10 -49q24 -54 100 -75q38 -11 80 -11q36 0 74 8q85 17 140 63q-111 89 -286 257q-68 -54 -88 -89q-30 -58 -30 -104z M542 1014q2 -55 97 -158q129 77 129 163v3q-3 55 -39 86q-31 26 -73 26h-6q-45 -2 -77 -32q-31 -31 -31 -80v-8z" />
<glyph unicode="'" horiz-adv-x="451" d="M80 1314h291l-46 -401h-197z" />
<glyph unicode="(" horiz-adv-x="646" d="M85 457v13q0 434 310 844h231q-196 -446 -200 -855v-23q0 -419 200 -838h-231q-306 430 -310 859z" />
<glyph unicode=")" horiz-adv-x="646" d="M20 -402q200 419 200 838v23q-4 409 -200 855h231q310 -410 310 -844v-13q-4 -429 -310 -859h-231z" />
<glyph unicode="*" horiz-adv-x="766" d="M80 1031l57 165q171 -78 177 -82q-9 41 -12 100q-3 72 -7 100h173q-2 -22 -5 -100q-1 -59 -12 -100q35 18 90 41q62 27 91 41l54 -165q-34 -7 -90 -25q-52 -16 -96 -24q33 -27 63 -65q42 -56 56 -71l-141 -105q-13 25 -51 80q-31 44 -47 82q-16 -38 -47 -82 q-39 -56 -52 -80l-144 105q129 131 134 136q-97 33 -191 49z" />
<glyph unicode="+" horiz-adv-x="1230" d="M80 476v277h376v398h316v-398h378v-277h-378v-396h-316v396h-376z" />
<glyph unicode="," horiz-adv-x="558" d="M100 0v332h358v-332l-119 -400h-205l85 400h-119z" />
<glyph unicode="-" horiz-adv-x="740" d="M80 612v268h580v-268h-580z" />
<glyph unicode="." horiz-adv-x="1547" d="M100 -397v1710h1335v-1710h-1335zM165 -337h1204v1590h-1204v-1590zM199 443q18 24 50 24h9q28 -5 28 -40q0 -34 -33 -49q-12 -5 -27 -7v-37h-1q-5 0 -14 3v34h-5l-5 1q0 11 5 19h5q0 41 -6 41q-6 7 -6 11zM211 -173q0 5 11 16h3q8 -18 30 -18q18 0 18 20q0 15 -21 18 q-27 0 -32 12q-4 8 -4 12v8q0 34 42 34q24 -5 24 -21v-1q-1 -2 -12 -9h-3q0 7 -13 8h-1q-13 0 -20 -10v-4q0 -6 31 -6q27 -12 27 -38v-5q0 -28 -22 -38q-5 -3 -10 -3h-9q-23 0 -39 25zM222 797v54h17q0 -27 16 -50q9 -8 15 -8h23q8 0 19 16q10 19 10 30v3q-7 46 -31 46 q0 1 -7 1h-23q-30 0 -39 44v81q10 45 40 45h28q30 0 42 -53q2 -23 2 -35v-4h-23v2q-5 34 -20 34h-32q-12 0 -19 -28q6 -28 16 -28q0 -3 14 -3h24q28 0 46 -55q4 -21 4 -50q0 -76 -39 -99q-9 -3 -14 -3h-20q-35 0 -49 60zM224 440q1 -35 1 -47q1 0 1 -2q29 6 37 17q8 10 8 18 q0 18 -15 21h-6q-26 -3 -26 -7zM288 379q0 40 32 53l11 1q23 -4 23 -22v-6q0 -20 -39 -36h-10q0 -11 17 -16q11 0 21 18h4q8 -12 8 -15q-17 -22 -30 -22h-7q-26 0 -30 45zM296 -81h15v9q0 46 5 46l15 -5q-2 -23 -2 -36v-14q13 3 15 3q2 -20 2 -24h-2q-9 -1 -15 -1 q3 -63 5 -91q-12 -2 -17 -2v1q-5 61 -5 88l-2 2h-14v24zM305 390q19 0 33 18v2q-7 2 -9 2q-16 0 -24 -19v-3zM350 -76q17 -5 17 -6v-20q0 -67 12 -67h5q17 19 24 55q5 10 6 38h2q15 -2 15 -6q-3 -42 -3 -59v-10q0 -10 5 -20q0 -6 -10 -18q-12 12 -12 25h-1q-11 -29 -28 -29 h-3q-29 0 -29 93v24zM352 121v4q0 58 45 79l7 2h10q14 0 23 -23q-6 -6 -6 -9h-3q-9 15 -21 15q-17 0 -35 -26q-9 -19 -9 -34v-5q0 -29 24 -35q2 -1 8 -1q31 3 31 20v10q-4 3 -12 3h-10v17q28 0 33 -9q2 -7 2 -9q-2 -25 -2 -29q0 -11 4 -26q-1 0 -8 -5h-1q-4 0 -6 22 q-6 -8 -29 -12h-2q-38 0 -43 51zM357 418q12 2 15 2v-1q0 -4 3 -19h1q10 43 28 43q19 0 28 -49q-1 0 -15 -4q-6 33 -13 33q-17 -9 -20 -75q1 -14 1 -15q-10 -2 -15 -2q-13 69 -13 87zM360 918v56h18v85h22v-85h20v-56h-20v-164q0 -40 19 -52q4 -1 9 -1v-55h-5q-34 0 -44 68 q-1 6 -1 19v185h-18zM432 352v1q1 3 9 11h1q12 -15 28 -15q14 4 14 16q-4 15 -21 15q-28 0 -28 22v3q0 30 37 30q18 -5 18 -17v-1q0 -2 -10 -8h-1q-4 7 -13 7q-13 0 -16 -11q0 -5 29 -6q20 -11 20 -34q0 -25 -20 -34l-8 -2h-5q-24 0 -34 23zM437 -128q0 48 34 58h4 q14 0 29 -16v1q0 8 3 65q1 0 17 -4q-4 -38 -5 -92q0 -34 10 -69q-11 -10 -12 -10h-1q-3 0 -6 13h-2q0 -8 -21 -16q-33 0 -47 42q-3 12 -3 28zM443 658v22q0 9 7 13h11q3 0 5 -10v-3l-8 -2q0 4 -2 4h-1q-2 0 -3 -4v-14v-6h4q2 0 2 5l8 -3v-3q-1 -12 -10 -12q-13 1 -13 13z M443 793v181h23v-149q0 -26 18 -32h24q15 0 18 38v143h22v-237h-22v7q-10 -7 -18 -7h-23q-32 0 -42 56zM446 107v15q0 33 26 46q5 2 15 2q20 -4 20 -20q1 0 1 -2q0 -23 -35 -36q-5 -3 -15 -3v-1q0 -11 17 -17h1q10 0 23 16h3q0 -2 6 -9v-1q-14 -22 -29 -22h-6q-19 0 -27 32z M454 -129v-3q0 -34 30 -40h3q12 0 15 26v3q0 36 -21 48l-6 1h-2q-17 0 -19 -35zM457 125q23 0 39 22q-2 6 -11 6h-3q-19 0 -25 -28zM471 645v66h8v-18h6q10 0 10 -15v-33h-8v30q0 6 -3 7h-2q-3 0 -3 -9v-28h-8zM501 369q0 50 25 65q2 1 11 3q20 0 33 -32q2 -9 2 -17v-3 q0 -36 -35 -53q-5 -1 -9 -1q-27 4 -27 38zM501 660v21q0 9 7 12h6q11 0 11 -24t-14 -24q-10 2 -10 15zM508 660q1 -2 3 -2h2q3 0 3 2v21l-5 1l-3 -4v-18zM513 147v16l11 1h2v18q0 27 3 27q8 -2 10 -2q-2 -29 -2 -42h2l12 2v-17q-1 0 -14 -2l4 -74l-2 -2h-8q-3 29 -5 75h-13z M516 370q2 -18 12 -18h3q24 7 26 35v3q-6 26 -20 26h-2q-13 0 -18 -32q-1 -7 -1 -14zM529 665v10q0 15 8 18h9q8 -4 8 -13v-22q0 -12 -13 -13q-12 0 -12 20zM534 -43q2 14 12 14q9 0 11 -14v-1q0 -11 -8 -16h-7q-8 5 -8 17zM537 -75h12l6 -1q0 -3 -1 -8q1 -67 4 -109h-18 l-1 8q-2 68 -2 110zM537 667q0 -8 4 -9h4l1 6v14q0 2 -4 4h-1q-4 0 -4 -9v-6zM558 660v6h6v1q-6 1 -6 9v6q0 9 6 11h10q4 -5 4 -17h-3q5 -7 5 -15q-1 -16 -11 -16q-11 2 -11 15zM566 -141q0 51 30 69q10 2 11 2q25 0 41 -38q2 -11 2 -17v-9q0 -40 -39 -60q-4 -2 -13 -2 q-27 0 -32 41v14zM566 660q0 -2 3 -2h2q0 3 1 3q-1 3 -1 5h-5v-6zM566 678h4v4h-4v-4zM569 801v111q0 40 30 61l8 1h23q13 0 21 -8v93h21v-322h-21v7q-11 -7 -17 -7h-24q-36 0 -41 64zM575 414q7 2 14 2q3 -17 3 -20h1q7 41 21 41q19 0 36 -89q1 0 1 -7q-8 -7 -12 -7 q-15 62 -23 80q-9 -13 -18 -70q-1 0 -5 -10h-7q-7 0 -9 57q-2 14 -2 23zM583 -147q0 -22 15 -25h4q15 0 29 29q2 4 2 9v9q-7 31 -24 31h-2q-21 0 -24 -53zM584 671v1q0 17 6 21h11q6 -4 6 -11v-15h-14v-7q0 -2 2 -2h3l1 6h8v-4q0 -15 -12 -15q-11 0 -11 26zM590 824 q4 -31 19 -31h24q17 0 18 42v37q0 35 -14 44l-6 2h-22q-19 -6 -19 -32v-62zM592 129v17q6 0 10 2q-3 21 -3 52q3 29 17 29h2q13 0 15 -34v-3l-6 -1h-2q-3 21 -8 21q-6 0 -8 -19q1 -2 1 -4q0 -10 2 -39q5 3 9 3h3v-15l-11 -3q5 -57 5 -69h-11q-4 54 -4 65h-1q-5 -2 -10 -2z M593 680h5q0 2 -2 2h-1q-2 0 -2 -2zM628 666v27h8v-24l1 -11h6l2 6v29h7v-51q0 -10 -7 -14h-9q-6 0 -6 20h3q-5 5 -5 18zM634 168q2 0 11 -3q0 -74 14 -74q19 12 28 66q1 5 1 11h1q3 0 10 -3q-3 -24 -3 -45v-12q0 -9 5 -19q-5 -7 -5 -11h-2q-7 4 -8 26h-2q-4 -15 -19 -29h-9 q-20 0 -20 75v10zM637 642q1 -2 3 -2t5 3v2h-8v-3zM652 353v8q0 30 32 35q11 -1 20 -6v1q-4 25 -17 25q-9 0 -18 -10h-3q-2 1 -8 11v2q12 14 23 14h11q27 -9 27 -45q-1 -21 -1 -35l2 -16q-9 -8 -13 -8h-1l-2 11q-12 -8 -23 -8h-7q-22 3 -22 21zM654 -81h17q0 34 3 55h1 l15 -5q-2 -28 -2 -45v-5q14 3 16 3l1 -14v-10q-16 -1 -16 -2q0 -23 5 -90q-13 -2 -17 -2v1q-5 75 -5 90h-18v24zM658 658v22q0 9 7 13h10q8 -3 8 -18v-10q0 -20 -12 -20q-13 1 -13 13zM666 664l1 -6h4q3 1 3 9v6q0 9 -3 9h-2q-1 0 -3 -4v-14zM667 356q0 -3 10 -6q17 0 25 17 q-8 7 -19 7q-16 -3 -16 -15v-3zM687 669v24h9v-33q1 -2 2 -2h4l1 6v29h8v-48h-10q-14 0 -14 24zM699 737v237h22v-237h-22zM699 1003v56h22v-56h-22zM709 173v39h4h6v-9q0 -61 3 -132h-11q-2 65 -2 102zM710 -105q0 33 3 33q12 -4 15 -4q-1 -23 -1 -34v-6q0 -33 12 -44h5 q22 18 22 72v10h17v-1q8 -89 8 -103v-10q0 -44 -28 -60q-10 -4 -16 -4q-22 0 -29 20q-2 4 -2 9v9q0 15 4 15l14 -7l-1 -8v-4q0 -8 11 -10h4q20 0 25 33q1 4 1 12v20l-1 13h-1q-10 -30 -29 -30h-2q-23 0 -30 50q-1 8 -1 20v9zM716 645v48h17v-11q-8 0 -8 -7v-30h-9zM725 467 v3v6h3l11 -1v-18q2 -70 2 -126l-7 -2h-6q-3 71 -3 138zM733 207v3q0 2 2 2h1h8v-30q0 -32 3 -111h-11q-3 66 -3 136zM748 803v106q0 44 29 64q9 2 20 2h6q28 0 36 -21q13 -17 13 -53v-89q0 -56 -30 -72q-4 -3 -9 -3h-24q-35 0 -41 66zM752 671v1q0 17 7 21h10q8 -3 8 -12 q-5 -3 -9 -3q0 4 -3 4h-2q-1 0 -1 -2v-20q0 -2 1 -2h5v5h3q6 -3 6 -6q0 -11 -14 -12q-11 0 -11 26zM769 825q0 -25 19 -32h24q18 6 18 34v57q0 35 -25 35h-14q-11 0 -16 -10q-6 -10 -6 -23v-61zM781 645v66h8v-18h6q10 0 10 -21v-27h-9v36l-5 1l-2 -4v-33h-8zM782 416v11 q0 25 8 44h4q0 -2 7 -12q-4 -18 -4 -30v-18q0 -44 15 -58h1q21 0 35 117h2q12 -4 13 -4q-6 -58 -6 -86q0 -31 12 -31q2 -16 2 -20h-8q-13 0 -20 32h-1q-11 -28 -27 -28h-5q-20 0 -27 61q-1 4 -1 22zM789 129v17l11 1q-3 46 -3 52q0 30 19 30q12 0 16 -37l-8 -1h-2v1 q0 15 -7 20q-8 -5 -8 -15q0 -8 3 -46v-1q5 3 10 3h1l1 -8v-7q-1 0 -12 -3l2 -3q0 -12 4 -66h-11q0 6 -4 65q-9 -2 -12 -2zM800 -70h5q11 0 11 -3v-2q9 5 19 5q25 0 33 -44q0 -11 1 -14q-3 -52 -31 -64l-8 -1h-10l1 -8q0 -6 1 -40h-17q-5 132 -5 171zM809 661q0 9 4 14v1h-3 v6q0 9 5 11h9q8 0 8 -22v-10q2 -8 2 -9l-2 -8h-3q-2 0 -2 2q-4 -2 -7 -2h-2q-9 5 -9 17zM816 -102q0 -3 3 -67l7 -1q22 0 26 42q-3 34 -17 34h-1q-10 0 -18 -8zM818 660q0 -3 2 -3t2 3v6h-2q-2 0 -2 -2v-4zM818 678h4v4h-2q-2 0 -2 -2v-2zM833 108v4q0 41 19 57q8 5 14 5 q23 0 34 -38v-14q0 -34 -34 -50l-7 -1q-16 0 -24 20q-2 11 -2 17zM837 645v48h16v-11q-8 0 -8 -8v-29h-8zM843 112q2 -23 15 -23h1q16 0 27 25q3 8 3 11q-6 31 -22 31h-4q-15 0 -20 -44zM858 658v7q0 7 4 11h-4v5q2 12 5 12h11q6 -2 6 -15v-17q0 -4 3 -6q-2 -11 -4 -11h-3 q0 2 -1 2q-4 -2 -7 -2q-9 0 -10 14zM865 1003v56h138v-56h-59v-266h-22v266h-57zM866 663l1 -6h1q3 1 3 9h-3q-2 0 -2 -2v-1zM866 678h5v4h-3q-2 0 -2 -2v-2zM871 352v1q8 11 10 11h1q12 -15 27 -15q14 4 14 16t-16 15q-25 0 -30 11q-2 11 -2 14q0 30 37 30q13 0 20 -18v-1 q-11 -7 -14 -7q0 6 -11 7q-12 0 -17 -10v-1q0 -5 29 -6q19 -9 19 -36q0 -26 -24 -34h-8q-23 0 -35 23zM873 -146q0 54 30 74q11 2 12 2q23 0 39 -35q4 -13 4 -24q0 -43 -38 -65q-8 -2 -14 -2q-22 0 -31 27q-2 12 -2 23zM886 672q0 17 6 21h11q6 -3 6 -12q-4 -3 -8 -3 q0 4 -3 4h-1q-2 0 -2 -2v-20q0 -2 2 -2h3q1 0 1 5h3q5 -3 5 -6q0 -12 -12 -12q-11 0 -11 27zM890 -147v-5q0 -17 15 -20h2q16 0 30 26q4 8 4 18q-6 34 -28 34q-19 0 -23 -53zM905 151l8 2h2q3 -16 3 -33h1q9 54 24 54t34 -94h-1q-5 -4 -9 -4q-15 67 -24 79q-7 -7 -23 -79 l-2 -1h-4q-6 0 -9 76zM913 682v11h3v18h8v-18h5v-11h-5v-16q0 -8 6 -8v-13h-1q-10 0 -13 18v19h-3zM935 660v21q0 9 7 12h6q10 0 10 -12v-14h-15v-7q0 -2 2 -2h2q3 0 3 6h9q0 -19 -14 -19q-10 2 -10 15zM941 378q0 40 30 54l12 1q24 -4 24 -23q0 -29 -42 -41h-7v-2 q7 -14 16 -14q10 0 23 18h1q1 0 9 -12q0 -9 -21 -22q-4 -3 -9 -3h-7q-24 0 -29 44zM944 680h6v1l-5 1zM958 390h3q17 0 31 19q-6 3 -9 3h-3q-16 0 -22 -21v-1zM964 645v48h16v-11q-9 0 -9 -8v-29h-7zM966 -178q1 17 11 17q9 0 12 -14v-5q-3 -13 -12 -13t-11 15zM979 147l1 8 v8l11 1h1v1q0 21 2 44q3 0 12 -2q-3 -13 -3 -29v-13h3l12 2v-17h-3l-12 -2l5 -74l-5 -2h-6q-3 62 -3 75h-15zM990 646v56h57q27 0 27 35v6q-9 -8 -29 -8h-4q-31 0 -40 23q-11 15 -11 67v149h22v-140q0 -42 23 -42h16q19 0 23 32v150h22v-253q-2 -66 -37 -75h-69zM996 -149 q0 34 19 64q12 12 18 12h8q6 0 15 -9q11 -12 11 -18q-11 -13 -12 -13q-11 15 -18 15h-2q-12 -5 -18 -28l-4 -21q0 -22 14 -24h3q11 0 34 16h1q6 -20 6 -22q-25 -18 -47 -18q-23 0 -28 46zM1044 372v9q0 50 40 88q8 2 10 2h6q12 0 28 -28q12 -22 12 -44v-9q0 -37 -40 -58 q-7 -3 -14 -3h-7q-30 0 -35 43zM1058 92v8q3 32 30 32q12 0 21 -8v3q0 25 -18 29h-3q-6 0 -17 -8h-1q-1 0 -6 7v2q10 13 19 13h11q16 0 24 -28q2 -16 3 -18q-1 -6 -3 -26q2 -4 2 -23l-6 -4h-3l-3 12q-10 -11 -25 -11h-4q-21 3 -21 20zM1059 373q0 -21 25 -24q22 0 37 27 q5 8 5 18v3q0 27 -26 53q-3 0 -3 2q-17 0 -35 -50q-3 -11 -3 -21v-8zM1068 97q3 -8 11 -8h6q14 0 22 18q-9 8 -17 8h-2q-20 -3 -20 -18zM1076 -141q0 51 30 69q10 2 11 2q24 0 39 -35q4 -8 4 -19v-8q0 -43 -39 -62q-4 -2 -13 -2q-28 0 -32 41v14zM1092 -147q0 -25 17 -25h3 q14 0 29 30q2 6 2 10v7q-8 31 -25 31h-1q-20 0 -25 -53zM1117 652v322h21v-7q9 7 17 7h23q36 0 42 -68v-87q0 -60 -28 -76q-5 -3 -17 -3h-13q-15 0 -24 6v-94h-21zM1126 147v16l11 1h1l2 45q3 0 12 -2q-2 -18 -2 -34v-8h2l12 2v-8v-9q-1 0 -14 -2v-6q0 -15 4 -68l-2 -2h-9 l-4 75h-13zM1138 825q0 -27 22 -30h13q17 0 23 17q1 10 1 15v59q-2 33 -19 33h-18q-18 0 -22 -29v-65zM1144 414q6 2 15 2q1 -19 1 -22h1q7 43 24 43q16 0 35 -96q-9 -7 -13 -7q-15 66 -24 80q-6 -12 -19 -74q-3 -6 -4 -6h-6q-7 0 -10 80zM1164 -88q13 6 17 6q2 -8 4 -31h2 q9 43 24 43q17 0 27 -58h1q8 58 27 58h1q24 0 40 -118h-2q-11 -5 -13 -5h-1q-19 98 -25 98q-10 -22 -17 -82q-3 -10 -10 -10q-8 0 -11 15q-13 76 -19 76q-16 -58 -16 -93q-10 -4 -17 -4v1zM1223 458q1 12 1 18h1l14 -1q-1 -9 -1 -13q0 -55 3 -131l-11 -2h-4q-2 58 -3 129z M1240 801v108q0 44 30 64q9 2 20 2h6q28 0 36 -21q8 -9 8 -19v-157q-11 -41 -35 -41h-23q-35 0 -42 64zM1247 388v17q0 10 2 29q13 -2 14 -2q-1 -18 -1 -26v-9q2 -35 13 -35h1q18 13 18 67h15v-3q7 -78 7 -88q0 -46 -30 -56h-5h-5q-18 0 -23 19q-1 5 -1 10q0 15 3 15h1 q9 -6 12 -6l-1 -9q0 -8 9 -9h2q23 0 23 42q0 5 -1 21h-1q-8 -24 -26 -24h-1q-19 0 -25 47zM1262 825q0 -25 19 -32h24q18 6 18 34v57q0 35 -25 35h-14q-12 0 -16 -10q-6 -10 -6 -23v-61z" />
<glyph unicode="/" horiz-adv-x="556" d="M20 -400l305 1714h211l-307 -1714h-209z" />
<glyph unicode="0" horiz-adv-x="1184" d="M80 658q0 315 107 477q127 190 413 190q504 0 504 -662q0 -320 -101 -483q-124 -200 -412 -200q-511 0 -511 678zM416 657q0 -200 55 -315q48 -100 117 -100h3q71 3 121 105q54 113 54 300q0 196 -54 314q-50 106 -121 109h-4q-67 0 -116 -100q-55 -114 -55 -313z" />
<glyph unicode="1" horiz-adv-x="776" d="M126 850v251q17 3 81 52q66 48 119 160h270v-1005h142v-308h-607v308h141v602q-39 -28 -146 -60z" />
<glyph unicode="2" horiz-adv-x="1229" d="M50 906q27 194 184 309q141 103 334 108h45q193 0 326 -92q152 -105 153 -289v-2q0 -194 -231 -388q-42 -36 -184 -141q-103 -76 -137 -117h331v144h308v-438h-1110q2 22 6 79q5 49 8 77q14 86 53 145q94 141 352 334q157 117 202 179q44 61 44 116q0 73 -45 112 q-34 30 -84 30q-8 0 -16 -1q-61 -6 -108 -48q-53 -46 -67 -117h-364z" />
<glyph unicode="3" horiz-adv-x="1121" d="M50 178l292 151q24 -48 80 -73q39 -24 87 -25q45 -2 95 4q61 11 101 49q42 45 42 105q0 117 -79 164q-43 24 -100 24q-42 0 -160 -13v252q22 -4 113 -4q74 0 120 46q47 45 47 107q0 61 -37 85q-32 26 -84 34q-18 2 -37 2q-18 0 -36 -2q-49 -6 -87 -24q-48 -23 -66 -74 l-251 175q42 41 99 75q148 88 334 93h89q176 0 295 -80q138 -93 138 -263t-185 -272q118 -30 183 -105q68 -79 68 -198v-2q-1 -190 -147 -308q-132 -106 -333 -118q-23 -2 -117 -2q-171 0 -313 76q-92 49 -151 121z" />
<glyph unicode="4" horiz-adv-x="1156" d="M80 241v295l366 777h312l-370 -794h274v249h312v-249h162v-278h-162v-241h-312v241h-582z" />
<glyph unicode="5" horiz-adv-x="1233" d="M80 346h372q26 -72 85 -97q37 -11 71 -11q31 -1 60 9q52 21 80 52q43 62 43 143q0 116 -49 179q-46 58 -120 58h-5q-73 -2 -130 -53h-370l85 686h811v-277h-535l-32 -203q122 57 257 57q25 0 48 -1q174 -13 281 -117q121 -118 121 -295q0 -225 -156 -357 q-147 -122 -375 -122q-436 0 -542 349z" />
<glyph unicode="6" horiz-adv-x="1219" d="M80 647q0 351 148 515q146 163 408 163q119 0 208 -36t148 -105q60 -70 90 -172h-368q-31 100 -99 100h-3q-69 -1 -124 -86q-55 -99 -55 -277v-6q119 139 300 145h13q217 0 329 -217q64 -124 64 -246q0 -88 -33 -175q-51 -134 -191 -203q-123 -61 -288 -61h-27 q-319 10 -450 276q-70 142 -70 385zM457 433q0 -108 56 -164q50 -51 122 -54h9q67 0 114 43q56 53 56 165q0 107 -56 171q-50 58 -123 59h-4q-70 0 -118 -54q-56 -60 -56 -166z" />
<glyph unicode="7" horiz-adv-x="1139" d="M50 860v454h1039v-247q-175 -161 -261 -318q-101 -184 -137 -373q-18 -93 -40 -376h-359q45 341 107 534q83 260 252 492h-293v-166h-308z" />
<glyph unicode="8" horiz-adv-x="1192" d="M50 343q0 64 27 131q63 162 224 224q-213 113 -213 276q0 168 152 265q138 88 356 88q219 0 356 -89q152 -99 152 -267q0 -138 -202 -273q148 -71 210 -213q30 -69 30 -135q0 -77 -40 -150q-54 -101 -187 -158q-125 -53 -301 -57h-27q-161 0 -279 42q-140 51 -203 145 q-55 81 -55 171zM407 395q0 -89 53 -131q48 -38 136 -38q89 0 137 38q53 42 53 132q0 93 -53 149q-48 50 -137 50h-2q-88 0 -134 -48q-53 -56 -53 -152zM426 945q0 -65 41 -105q40 -37 120 -38h3q78 0 120 36q49 40 52 112v10q0 67 -41 108q-40 39 -120 40q-80 0 -124 -39 q-47 -42 -51 -116v-8z" />
<glyph unicode="9" horiz-adv-x="1195" d="M80 854q0 94 37 191q54 140 174 214q116 70 276 70h24q322 -10 453 -278q71 -144 71 -388q0 -354 -148 -519q-149 -164 -413 -164q-119 0 -209 35q-90 37 -150 107q-60 69 -90 173h371q30 -64 123 -64h10q24 -1 60 18q38 26 57 71q42 102 42 200q-105 -100 -276 -100 q-17 0 -36 1q-227 12 -326 218q-50 106 -50 215zM395 888q0 -108 56 -171q51 -58 124 -60h3q71 0 121 54q57 62 57 168q0 109 -57 176q-51 61 -124 63h-9q-67 0 -115 -53q-56 -64 -56 -177z" />
<glyph unicode=":" horiz-adv-x="558" d="M100 0v332h358v-332h-358zM100 593v332h358v-332h-358z" />
<glyph unicode=";" horiz-adv-x="558" d="M100 0v332h358v-332l-119 -400h-205l85 400h-119zM100 593v332h358v-332h-358z" />
<glyph unicode="&#x3c;" horiz-adv-x="775" d="M80 558v274l615 400v-346l-334 -189l334 -192v-347z" />
<glyph unicode="=" horiz-adv-x="940" d="M80 312v268h780v-268h-780zM80 712v268h780v-268h-780z" />
<glyph unicode="&#x3e;" horiz-adv-x="775" d="M80 158v347l334 192l-334 189v346l615 -400v-274z" />
<glyph unicode="?" horiz-adv-x="1031" d="M50 965q29 146 128 242q120 116 368 116q200 0 312 -80q103 -75 138 -198q15 -51 15 -99q0 -73 -34 -142q-28 -57 -182 -184q-124 -103 -124 -214h-336v33q0 132 71 227q41 54 179 169q58 47 58 117q0 9 -1 18q-8 86 -106 86h-2q-63 0 -113 -48q-54 -53 -55 -132zM322 -2 v318h359v-318h-359z" />
<glyph unicode="@" horiz-adv-x="1659" d="M81 607v3q1 214 99 402q100 190 276 302q189 120 427 120q309 0 503 -189q193 -188 193 -487q0 -178 -75 -325q-67 -130 -222 -233q-116 -78 -210 -83h-13q-113 0 -140 127q-108 -101 -220 -101q-10 0 -19 1q-124 9 -199 108q-66 86 -86 228q-8 60 -8 118q0 168 71 319 q112 236 341 236h14q134 -5 191 -121q3 13 9 46q6 34 9 47h5q43 0 95 -29q59 -34 83 -84l-104 -649q-1 -8 -1 -15q0 -38 44 -41h5q41 0 89 26q77 43 139 164q54 106 54 259q0 249 -148 393q-149 144 -399 144q-297 0 -477 -210q-164 -190 -170 -463v-21q0 -261 151 -442 q174 -211 482 -211q138 0 265 45q126 43 243 131l160 -44q-52 -56 -112 -99q-108 -77 -248 -124q-141 -48 -304 -48q-226 0 -407 101q-180 101 -282 287q-104 191 -104 412zM566 599q0 -84 29 -163q48 -132 152 -132q9 0 17 1q102 10 155 217q38 144 38 282q0 100 -39 139 q-31 32 -94 32q-100 0 -171 -94q-66 -87 -82 -213q-5 -35 -5 -69z" />
<glyph unicode="A" d="M70 0v309h130l331 696h-113v309h608l393 -1005h116v-309h-608v309h113l-46 149h-368l-56 -149h111v-309h-611zM707 692h204q-78 202 -102 293q-26 -87 -102 -293z" />
<glyph unicode="B" horiz-adv-x="1460" d="M70 1007v307h909q127 0 217 -88q91 -87 91 -210t-91 -210q-90 -88 -217 -88h30q153 0 262 -106q109 -105 109 -253t-109 -254q-109 -105 -262 -105h-938v307h148v700h-149zM599 266h285q59 0 93 47q26 37 26 87v7q-6 54 -37 80q-33 31 -92 31h-275v-252zM599 825h232 q45 0 72 32q23 27 23 62q0 44 -23 71q-27 31 -72 31h-232v-196z" />
<glyph unicode="C" horiz-adv-x="1435" d="M80 655q0 279 205 477q203 197 492 197q185 0 344 -87q29 -16 56 -34l31 106h187v-476h-331q-63 116 -172 159q-54 21 -111 21q-47 0 -96 -15q-106 -33 -153 -122q-53 -96 -53 -226t53 -226q47 -90 153 -122q50 -16 96 -16q57 0 111 22q94 33 202 149l276 -162 q-94 -146 -249 -232q-159 -88 -344 -88q-289 0 -492 198q-205 197 -205 477z" />
<glyph unicode="D" horiz-adv-x="1543" d="M80 0v309h148v696h-148v309h693q286 -1 488 -193t202 -464t-202 -464q-202 -193 -488 -193h-693zM608 294h165q134 0 236 116q98 111 98 247t-98 247q-102 116 -236 116h-165v-726z" />
<glyph unicode="E" horiz-adv-x="1215" d="M80 1005v309h1055v-372h-218v79h-308v-196h376v-277h-376v-262h308v85h218v-371h-1054v309h148v696h-149z" />
<glyph unicode="F" horiz-adv-x="1215" d="M80 1005v309h1055v-372h-218v79h-308v-196h376v-277h-376v-239h133v-309h-661v309h148v696h-149z" />
<glyph unicode="G" horiz-adv-x="1629" d="M82 650q0 279 202 476t489 197q181 0 329 -79q29 -12 57 -26q29 -15 56 -32l30 128h187v-449h-376q-16 24 -35 46q-96 106 -231 106t-225 -106.5t-90 -257.5t90 -257.5t225 -106.5q181 0 241 126h-171v263h689v-263h-107v-415h-288v145q-106 -169 -375 -169h-6 q-287 0 -489 197.5t-202 476.5z" />
<glyph unicode="H" horiz-adv-x="1581" d="M80 0v308h148v698h-148v308h653v-308h-125v-161h384v161h-144v308h653v-308h-130v-698h129v-308h-653v308h145v250h-384v-250h125v-308h-653z" />
<glyph unicode="I" horiz-adv-x="814" d="M80 1005v309h653v-309h-136v-697h137v-308h-653v308h136v697h-137z" />
<glyph unicode="J" horiz-adv-x="1236" d="M0 326l299 80q1 -43 55 -79q51 -33 118 -37h15q61 0 104 27q53 36 54 95v593h-142v309h653v-309h-130v-552q0 -104 -33 -188q-32 -84 -99 -145q-66 -60 -167 -93q-119 -40 -231 -40q-101 0 -196 32q-226 76 -300 307z" />
<glyph unicode="K" horiz-adv-x="1733" d="M80 0v308h148v698h-148v308h653v-308h-108v-232l327 232h-66v308h653v-308h-133l-291 -202l440 -495h98v-309h-653v309h65l-211 257l-229 -169v-89h108v-308h-653z" />
<glyph unicode="L" horiz-adv-x="1296" d="M80 0v308h149v698h-148v308h653v-308h-125v-703h325v154h282v-457h-1136z" />
<glyph unicode="M" horiz-adv-x="2061" d="M80 0v308h149v698h-149v308h650q240 -741 301 -1034q61 293 301 1034h649v-308h-148v-698h148v-308h-599v298h97v514q-88 -228 -235 -812h-426q-147 584 -235 812v-514h90v-298h-593z" />
<glyph unicode="N" horiz-adv-x="1674" d="M80 0v308h148v698h-148v308h653v-128l376 -643v462h-169v309h654v-309h-130v-696h130v-309h-754v309h51l-308 523v-524h150v-308h-653z" />
<glyph unicode="O" horiz-adv-x="1494" d="M50 655q0 279 205 477q203 197 492 197t492 -197q205 -198 205 -477q0 -280 -205 -477q-203 -198 -492 -198t-492 198q-205 197 -205 477zM473 655q0 -169 86 -268q77 -89 188 -90q112 0 189 90q86 99 86 268q0 168 -86 268q-77 89 -189 89q-111 0 -188 -89 q-86 -100 -86 -268z" />
<glyph unicode="P" horiz-adv-x="1421" d="M80 0v308h148v698h-148v308h820q234 0 342 -75q129 -89 129 -307v-13q-5 -260 -145 -347q-107 -65 -348 -65h-270v-199h125v-308h-653zM608 788h299q43 0 70 46q24 41 24 80q0 41 -24 71q-26 36 -70 36h-299v-233z" />
<glyph unicode="Q" horiz-adv-x="1565" d="M80 655q0 279 205 477q203 197 492 197t492 -197q205 -198 205 -477q0 -184 -89 -333q43 -19 91 -19q34 0 78 5v-308h-90q-109 0 -253 58q-29 13 -55 30q-166 -108 -379 -108q-289 0 -492 198q-205 197 -205 477zM481 655q0 -169 87 -268q78 -89 191 -90q90 0 157 57 q-16 25 -35 38q-36 20 -66 20h-13l-23 -2v133q6 2 13 5q60 18 86 18h63q43 0 83 -27q12 53 12 116q0 168 -86 268q-78 89 -191 89t-191 -89q-87 -100 -87 -268z" />
<glyph unicode="R" horiz-adv-x="1554" d="M80 0v308h148v698h-148v308h937q218 0 308 -88q91 -87 91 -210t-91 -210q-90 -88 -217 -88q104 0 216 -145q57 -74 61 -265h139v-308h-653v308h106v58q0 182 -84 182h-285v-240h125v-308h-653zM608 825h282q45 0 75 40q20 29 20 64q0 34 -23 61q-27 31 -72 31h-282v-196z " />
<glyph unicode="S" horiz-adv-x="1311" d="M80 -2v387h334q17 -75 92 -127q59 -32 140 -32h11q100 0 157 32q63 38 63 108q0 62 -54 96q-19 12 -66 27q-66 12 -140 28q-130 24 -205 44q-75 21 -116 40q-115 53 -164 172q-27 68 -27 142q0 46 10 94q27 126 113 208q46 43 103 67q107 45 310 45q153 -1 250 -52 q26 -13 50 -29l19 66h187v-388h-274q-12 71 -76 105q-46 18 -155 18q-114 0 -156 -30q-37 -25 -37 -56v-5q2 -44 48 -71q44 -26 226 -47q207 -28 307 -77q140 -70 184 -220q17 -56 17 -115q0 -84 -36 -172q-26 -60 -66 -110q-53 -66 -127 -103q-120 -63 -349 -63 q-181 1 -289 76q-37 23 -66 50l-31 -108h-187zM961 826h2l-2 1v-1z" />
<glyph unicode="T" horiz-adv-x="1408" d="M80 860v454h1248v-454h-257v165h-177v-718h157v-307h-687v307h150v718h-177v-165h-257z" />
<glyph unicode="U" horiz-adv-x="1615" d="M80 1003v311h679v-311h-155v-511q10 -97 71 -149q53 -50 129 -50h3q78 0 132 50q60 52 70 149v511h-156v311h682v-311h-157v-471q0 -228 -167 -391q-169 -163 -404 -163q-236 0 -404 163t-168 391v471h-155z" />
<glyph unicode="V" horiz-adv-x="1741" d="M80 1007v307h651v-307h-104q230 -453 244 -509q14 56 242 509h-105v307h653v-307h-157l-358 -701h78v-307h-708v307h79l-359 701h-156z" />
<glyph unicode="W" horiz-adv-x="2060" d="M70 1007v307h584v-307h-85q9 -41 31 -133q58 -179 89 -438q31 259 90 438q73 313 98 426l3 14h308l3 -14q25 -113 99 -426q57 -179 89 -438q31 259 89 438q18 62 31 133h-76v307h567v-307h-148l-256 -700h118v-307h-613v307h84l-141 440l-141 -440h80v-307h-603v307h112 l-256 700h-156z" />
<glyph unicode="X" horiz-adv-x="1635" d="M80 0v307h154l350 378l-307 322h-155v307h631v-307h-65l138 -152l133 152h-68v307h629v-307h-155l-297 -329l334 -371h153v-307h-635v307h55l-158 157l-159 -157h55v-307h-633z" />
<glyph unicode="Y" horiz-adv-x="1549" d="M80 1007v307h609v-307h-80q85 -160 166 -299q81 139 165 299h-79v307h608v-307h-156l-349 -520v-179h157v-308h-692v308h156v179l-349 520h-156z" />
<glyph unicode="Z" horiz-adv-x="1298" d="M80 0v310l641 703h-331v-155h-257v456h1060v-277l-667 -735h435v165h257v-467h-1138z" />
<glyph unicode="[" horiz-adv-x="666" d="M80 -401v1715h546v-261h-234v-1194h234v-260h-546z" />
<glyph unicode="\" horiz-adv-x="556" d="M20 1314h211l305 -1715h-209z" />
<glyph unicode="]" horiz-adv-x="666" d="M80 -141h235v1194h-235v261h546v-1715h-546v260z" />
<glyph unicode="^" horiz-adv-x="1234" d="M80 699l400 615h274l400 -615h-346l-189 334l-192 -334h-347z" />
<glyph unicode="_" horiz-adv-x="963" d="M-80 -35h1123v-100h-1123v100z" />
<glyph unicode="`" horiz-adv-x="842" d="M80 1312h350l161 -293h-208z" />
<glyph unicode="a" horiz-adv-x="1130" d="M30 287q0 122 101 208t244 86q172 0 267 -56q0 14 -2 28q-5 59 -35 95q-40 45 -113 60q-46 10 -84 10q-17 0 -33 -2q-117 -11 -245 -112l-64 213q107 85 280 113q85 10 165 10q96 0 176 -27q142 -49 211 -188q59 -119 59 -287v-130h123v-308h-347l-50 61q-14 -16 -46 -30 q-80 -38 -262 -38q-143 0 -244 87q-101 86 -101 207zM325 297q0 -39 39 -67q40 -28 115 -28q76 0 115 28t39 67q0 40 -39 67q-39 28 -115 28q-75 0 -115 -28q-39 -27 -39 -67z" />
<glyph unicode="b" horiz-adv-x="1231" d="M50 0v308h108v697h-107v309h429v-452q58 76 190 81q235 0 373 -138t138 -333v-4q0 -138 -71 -250q-67 -108 -180 -168q-105 -56 -261 -56h-55q-132 5 -241 82l-39 -76h-284zM490 472q0 -82 41 -145q42 -65 139 -65t139 65q41 63 41 145q0 80 -41 140q-42 62 -139 62 q-98 0 -139 -62q-41 -60 -41 -140z" />
<glyph unicode="c" horiz-adv-x="1010" d="M50 462v11q2 159 92 280q86 114 223 163q80 29 200 29q136 -8 197 -74l38 54h143v-361h-228q-2 103 -130 116h-4q-119 0 -173 -63q-55 -64 -55 -148q0 -85 56 -144q30 -32 78 -53q47 -17 95 -23q27 -3 52 -3q19 0 38 2q42 4 94 25q38 14 74 44l150 -173 q-100 -86 -211 -121q-81 -26 -198 -33h-36q-100 0 -180 29q-137 49 -223 163q-90 121 -92 280z" />
<glyph unicode="d" horiz-adv-x="1211" d="M30 468v4q0 195 138 333t373 138q132 -5 190 -81v452h429v-309h-107v-697h108v-308h-284l-39 76q-109 -77 -241 -82h-55q-156 0 -261 56q-113 60 -180 168q-71 112 -71 250zM361 472q0 -82 41 -145q42 -65 139 -65t139 65q41 63 41 145q0 80 -41 140q-41 62 -139 62 q-97 0 -139 -62q-41 -60 -41 -140z" />
<glyph unicode="e" horiz-adv-x="1073" d="M50 469q0 109 38 196q37 86 101 147q65 61 149 96q91 37 213 37q131 0 217 -38q83 -36 141 -93q57 -47 85 -125q29 -68 29 -159q0 -36 -5 -71q-6 -34 -16 -65h-633q3 -38 11 -63t28 -48t53 -39q34 -26 145 -32h12q47 0 78 7q21 4 44 14q38 15 70 33q27 17 63 47l150 -173 q-100 -86 -211 -121t-290 -35q-84 0 -168 28t-151 86t-110 150t-43 221zM374 578h370q-2 30 -6 44q-5 26 -18 47q-14 27 -40 43q-47 30 -116 30q-69 -1 -113 -31q-31 -21 -48 -51q-15 -23 -22 -45q-6 -14 -7 -37z" />
<glyph unicode="f" horiz-adv-x="898" d="M50 584v223h93v48q2 195 141 331q138 136 331 136q195 0 333 -139l-227 -188q-42 77 -106 77q-56 0 -97 -58q-33 -49 -43 -164v-43h241v-223h-241v-276h107v-308h-529v308h90v276h-93z" />
<glyph unicode="g" horiz-adv-x="1161" d="M50 463q0 198 118 338q128 140 344 140q169 -2 231 -111l37 96h331v-310h-108v-511q0 -115 -34 -209q-35 -94 -107 -161q-71 -66 -179 -104q-89 -31 -187 -31q-64 0 -131 13q-162 31 -261 112l120 175q80 -42 198 -43q39 0 79 6q189 29 189 204q-39 -42 -75 -61 q-37 -18 -92 -20h-32q-11 0 -44 1q-181 17 -293 153q-104 137 -104 323zM342 463q0 -82 44 -143q44 -62 126 -62q80 0 125 62q44 61 44 143q0 81 -44 142q-45 62 -125 62q-82 0 -126 -62q-44 -61 -44 -142z" />
<glyph unicode="h" horiz-adv-x="1251" d="M50 0v309h101v696h-101v309h423v-479q115 96 229 107q16 2 32 2q86 0 165 -51q88 -57 141 -161q54 -106 54 -227v-197h107v-308h-438v506q-1 79 -42 134q-41 56 -98 56q-58 0 -99 -56t-41 -136v-196h103v-308h-536z" />
<glyph unicode="i" horiz-adv-x="641" d="M50 0v308h104v309h-84v309h416v-618h105v-308h-541zM167 1170q0 63 44 108q46 45 109 45t108 -45t45 -108t-45 -108t-108 -45t-109 45q-44 45 -44 108z" />
<glyph unicode="j" horiz-adv-x="602" d="M1 -142q167 31 169 198v561h-89v309h421v-825q0 -115 -35 -209t-106 -161q-72 -66 -179 -104q-85 -29 -181 -30v261zM193 1170q0 63 44 108q46 45 109 45t108 -45t45 -108t-45 -108t-108 -45t-109 45q-44 45 -44 108z" />
<glyph unicode="k" horiz-adv-x="1163" d="M50 0v306h92v700h-92v308h425v-792l203 171h-126v233h491v-233h-155l-129 -105l224 -280h130v-308h-509v309h64l-97 135l-98 -87v-49h55v-308h-478z" />
<glyph unicode="l" horiz-adv-x="641" d="M50 0v308h104v697h-84v309h416v-1006h105v-308h-541z" />
<glyph unicode="m" horiz-adv-x="1821" d="M50 0v308h84v309h-74v309h366l40 -91q118 100 241 100q33 0 67 -7q145 -30 233 -174q40 54 70 81q106 90 220 99q14 1 27 1q89 0 169 -51q89 -56 142 -157q54 -103 54 -222v-197h82v-308h-414v506q0 79 -41 134q-41 56 -99 56q-57 0 -98 -56t-42 -135v-197h82v-308h-413 v506q-1 79 -42 134q-41 56 -98 56q-58 0 -99 -56t-41 -136v-196h83v-308h-499z" />
<glyph unicode="n" horiz-adv-x="1247" d="M50 0v308h84v309h-74v309h366l40 -91q105 90 226 99q15 1 29 1q94 0 181 -51q96 -57 155 -157q60 -104 61 -222v-197h79v-308h-411v506q-1 76 -52 134q-49 56 -108 56q-60 0 -109 -56q-51 -59 -51 -136v-196h85v-308h-501z" />
<glyph unicode="o" horiz-adv-x="1143" d="M30 471q0 195 138 333q158 138 404 138q245 0 403 -138q138 -138 138 -333q0 -197 -138 -338q-159 -142 -403 -142q-245 0 -404 142q-138 141 -138 338zM379 471q0 -92 48 -160q49 -68 145 -68q93 0 143 68q49 68 49 160q0 90 -49 154q-49 65 -143 65q-96 0 -145 -65 q-48 -64 -48 -154z" />
<glyph unicode="p" horiz-adv-x="1187" d="M50 -93h84v710h-74v309h250l39 -77q109 77 241 82h55q156 0 261 -56q113 -60 180 -168q71 -112 71 -250v-4q0 -195 -138 -333t-373 -138q-132 5 -190 81v-156h75v-308h-481v308zM466 453q0 -80 41 -140q41 -62 139 -62q97 0 139 62q41 60 41 140q0 82 -41 145 q-42 65 -139 65t-139 -65q-41 -63 -41 -145z" />
<glyph unicode="q" horiz-adv-x="1187" d="M30 453v4q0 138 71 250q67 108 180 168q105 56 261 56h55q132 -5 241 -82l39 77h250v-309h-74v-710h84v-308h-481v308h75v156q-58 -76 -190 -81q-235 0 -373 138t-138 333zM361 453q0 -80 41 -140q42 -62 139 -62q98 0 139 62q41 60 41 140q0 82 -41 145q-42 65 -139 65 t-139 -65q-41 -63 -41 -145z" />
<glyph unicode="r" horiz-adv-x="840" d="M50 0v308h80v309h-80v309h372l40 -91q119 102 248 102q59 0 119 -21l-43 -280q-108 50 -159 50h-5q-60 0 -109 -56q-51 -59 -51 -136v-186h75v-308h-487z" />
<glyph unicode="s" horiz-adv-x="989" d="M50 0v303h302q25 -53 67 -72.5t85 -19.5h9q51 0 84 15q35 19 35 52q0 22 -31 39q-11 7 -43 16q-34 7 -90 18q-85 16 -144 30q-60 15 -94 29q-98 39 -139 126q-22 49 -22 102q0 32 8 66q22 90 93 149q39 32 88 50q88 33 235 33q110 -1 191 -38q35 -16 50 -35l32 63h128 v-293h-258q-11 50 -48 72q-38 20 -85 20h-4q-56 0 -87 -18q-24 -14 -24 -33q1 -27 26 -40q28 -15 131 -28q164 -19 246 -54q117 -52 154 -161q14 -40 14 -81q0 -60 -29 -122q-22 -43 -54 -79q-44 -48 -106 -75q-99 -45 -268 -45q-133 0 -223 55q-31 16 -36 28l-27 -72h-166z " />
<glyph unicode="t" horiz-adv-x="681" d="M25 705v221h113q35 123 55 305l269 64v-369h169v-221h-169v-356q0 -53 6 -72q14 -47 67 -53q8 -1 16 -1q48 0 80 33v-230q-161 -35 -216 -35h-3q-173 4 -247 148q-34 66 -34 201v365h-106z" />
<glyph unicode="u" horiz-adv-x="1214" d="M50 616v310h402v-507q0 -77 51 -135q49 -56 109 -56t109 57q51 58 51 135v197h-58v309h390v-618h60v-308h-352l-40 90q-106 -90 -226 -100q-13 -1 -26 -1q-96 0 -184 52q-97 56 -155 157q-61 104 -61 221v197h-70z" />
<glyph unicode="v" horiz-adv-x="1179" d="M50 617v309h487v-309h-58q80 -165 112 -323q32 158 112 323h-61v309h487v-309h-127l-245 -617h-332l-245 617h-130z" />
<glyph unicode="w" horiz-adv-x="1609" d="M50 617v310h487v-310h-50l41 -182l150 492h265l150 -513l43 203h-64v309h487v-309h-145l-189 -617h-265l-150 450l-149 -450h-266l-188 617h-157z" />
<glyph unicode="x" horiz-adv-x="1190" d="M50 1v306h87l315 139l-342 171h-60v309h549v-309h-87l141 -67l128 67h-74v309h431v-309h-93l-253 -126l321 -184h27v-306h-510v306h97l-131 73l-165 -73h92v-306h-473z" />
<glyph unicode="y" horiz-adv-x="1205" d="M50 617v309h497v-309h-78q50 -149 139 -352q83 192 132 352h-82v309h497v-309h-87l-147 -344l-18 -50l-72 -167l-57 -132q-40 -108 -106 -184q-65 -76 -155 -114q-86 -36 -193 -36h-11q-90 2 -180 34l111 238q23 -4 44 -4q118 0 164 141l1 1l-305 617h-94z" />
<glyph unicode="z" horiz-adv-x="941" d="M50 0v240l433 443h-180v-67h-238v310h798v-229l-447 -455h227v66h248v-308h-841z" />
<glyph unicode="{" horiz-adv-x="854" d="M80 318v270q34 0 77 39q39 33 54 66q25 58 25 174q0 24 -1 49q-1 27 -1 52q0 118 24 177q29 70 80 108q69 52 209 61q8 1 227 1v-294q-190 0 -225 -65q-22 -39 -24 -179q-2 -207 -203 -323q204 -123 204 -345q0 -134 24 -172q35 -53 224 -53v-291q-315 0 -396 39 q-80 38 -114 110q-35 74 -35 220q0 215 -17 252q-15 31 -55 64q-45 39 -77 40z" />
<glyph unicode="|" horiz-adv-x="610" d="M180 -407v1723h250v-1723h-250z" />
<glyph unicode="}" horiz-adv-x="854" d="M80 -116q189 0 224 53q24 38 24 172q0 222 204 345q-201 116 -203 323q-2 140 -24 179q-35 65 -225 65v294q219 0 227 -1q140 -9 209 -61q51 -38 80 -108q24 -59 24 -177q0 -25 -1 -52q-1 -25 -1 -49q0 -116 25 -174q15 -33 54 -66q43 -39 77 -39v-270q-32 -1 -77 -40 q-40 -33 -55 -64q-17 -37 -17 -252q0 -146 -35 -220q-34 -72 -114 -110q-81 -39 -396 -39v291z" />
<glyph unicode="~" horiz-adv-x="1285" d="M80 512v323q146 129 290 143q16 1 33 1q123 0 277 -75q151 -73 248 -73q11 0 21 1q116 11 256 141v-320q-165 -125 -301 -131h-15q-120 0 -305 85q-112 53 -206 53q-31 0 -60 -6q-116 -23 -238 -142z" />
<glyph unicode="&#xa1;" horiz-adv-x="587" d="M80 -388l74 906h237l73 -906h-384zM92 608v317h359v-317h-359z" />
<glyph unicode="&#xa2;" horiz-adv-x="1176" d="M81 500v3q0 236 168 403q169 169 407 169q36 0 70 -4l74 253h147l-84 -285q133 -50 233 -169l-253 -205l-45 -36q-21 43 -36 66l-130 -440q12 -2 24 -2q59 0 93 35q19 20 49 82l45 -36l253 -205q-119 -151 -297 -196q-70 -18 -140 -18q-61 0 -122 14l-98 -331h-144 l110 377q-126 61 -211 174q-113 151 -113 351zM485 500q0 -77 33 -140l112 383q-51 -12 -93 -72q-52 -75 -52 -171z" />
<glyph unicode="&#xa3;" horiz-adv-x="1379" d="M80 101q204 147 204 306v14h-204v234h146q-28 95 -28 183q0 161 92 297q126 188 417 189h3q287 0 426 -179q68 -87 93 -212l-374 -59q-17 89 -64 133q-35 32 -75 32q-9 0 -19 -2q-51 -9 -82 -61q-31 -50 -31 -120q0 -10 1 -21q2 -41 47 -180h297v-234h-263 q-8 -132 -154 -270q90 24 185 24q32 0 65 -3q206 -19 206 -20h-1q93 0 198 49l134 -293q-163 -82 -335 -82q-101 0 -205 28q-135 38 -240 38q-19 0 -37 -1q-116 -7 -275 -69z" />
<glyph unicode="&#xa4;" horiz-adv-x="1272" d="M88 408l128 128q-68 103 -68 211t68 222l-128 130l203 205l131 -129q110 66 219 66t217 -66l128 129l206 -205l-128 -130q61 -106 61 -214t-61 -219l128 -128l-206 -208l-128 130q-111 -60 -220 -60t-216 60l-124 -130zM432 753q0 -97 65 -154q58 -50 140 -50h3 q84 0 143 51q65 57 65 153t-65 153q-58 51 -143 51q-84 0 -143 -51q-65 -57 -65 -153z" />
<glyph unicode="&#xa5;" horiz-adv-x="1484" d="M80 1011v303h609v-303h-40q50 -93 93 -197q42 104 92 197h-33v303h608v-303h-165l-209 -393h295v-158h-380l-4 -8v-89h384v-159h-384v-214h-408v214h-384v159h384v89l-4 8h-380v158h295l-209 393h-160z" />
<glyph unicode="&#xa6;" horiz-adv-x="410" d="M80 313h250v-713h-250v713zM80 603v712h250v-712h-250z" />
<glyph unicode="&#xa7;" horiz-adv-x="1419" d="M111 513q0 35 12 71q38 116 182 207q-79 78 -98 170q-6 25 -6 49q0 71 49 129q87 104 242 151q107 33 223 33q40 0 81 -4q159 -16 275 -85q125 -76 159 -192l-369 -58q-4 45 -43 73q-36 28 -85 32q-8 1 -16 1q-40 0 -71 -20q-42 -25 -51 -74v-6q0 -24 28 -48 q48 -41 229 -101q258 -86 359 -168q103 -86 103 -200q0 -27 -6 -56q-28 -134 -159 -237q88 -87 104 -194q3 -21 3 -40q0 -88 -57 -166q-84 -113 -244 -163q-103 -32 -214 -32q-51 0 -103 6q-169 21 -294 100q-134 85 -172 212l359 71q12 -39 58 -75q45 -33 100 -45 q23 -5 44 -5q32 0 59 13q50 22 66 85q1 5 1 9q0 26 -41 64q-56 50 -300 138q-243 88 -325 175t-82 180zM434 571q0 -64 227 -157q69 -29 174 -65q104 -37 115 -41q58 39 58 92q0 30 -26 53q-38 33 -227 105q-190 72 -264 109q-57 -36 -57 -96z" />
<glyph unicode="&#xa8;" horiz-adv-x="834" d="M57 1150q0 63 44 108q46 45 109 45t108 -45t45 -108t-45 -108t-108 -45t-109 45q-44 45 -44 108zM477 1150q0 63 44 108q46 45 109 45t108 -45t45 -108t-45 -108t-108 -45t-109 45q-44 45 -44 108z" />
<glyph unicode="&#xa9;" horiz-adv-x="1657" d="M80 592q0 196 100 366q101 171 275 269q173 98 373 98q202 0 375 -98t274 -269q100 -170 100 -366t-100 -366t-274 -268t-375 -98q-199 0 -373 98t-275 268q-100 169 -100 366zM224 592q0 -245 177 -418t427 -173q251 0 427 173q177 173 177 418t-177 418 q-177 174 -427 174q-249 0 -427 -174q-177 -173 -177 -418zM456 592q0 167 118 285t285 118q224 0 343 -191l-177 -103q-37 70 -100 96q-30 12 -62 12q-28 0 -57 -9q-61 -19 -100 -73q-42 -57 -42 -135q0 -77 42 -135q39 -53 100 -73q28 -9 55 -9q33 0 64 13q63 25 100 95 l177 -103q-119 -191 -343 -191q-167 0 -285 118t-118 285z" />
<glyph unicode="&#xab;" horiz-adv-x="1305" d="M80 753l293 463h316l-282 -463l272 -462h-306zM616 753l293 463h316l-282 -463l272 -462h-306z" />
<glyph unicode="&#xac;" horiz-adv-x="1191" d="M80 712v318h1031v-800h-340v482h-691z" />
<glyph unicode="&#xad;" horiz-adv-x="740" d="M80 612v268h580v-268h-580z" />
<glyph unicode="&#xae;" horiz-adv-x="1657" d="M80 592q0 196 100 366q101 171 275 269q173 98 373 98q202 0 375 -98t274 -269q100 -170 100 -366t-100 -366t-274 -268t-375 -98q-199 0 -373 98t-275 268q-100 169 -100 366zM224 592q0 -245 177 -418t427 -173q251 0 427 173q177 173 177 418t-177 418 q-177 174 -427 174q-249 0 -427 -174q-177 -173 -177 -418zM530 182v785h440q73 0 126 -52q52 -52 52 -126q0 -73 -52 -126q-53 -52 -126 -52q60 0 125 -87q33 -44 56 -163q6 -32 17 -97q9 -58 14 -82h-226q-30 197 -30 201q-32 150 -80 150h-96v-351h-220zM750 669h135 q25 0 41 25q13 23 13 55t-13 54q-16 25 -41 25h-135v-159z" />
<glyph unicode="&#xaf;" horiz-adv-x="740" d="M80 1091v268h580v-268h-580z" />
<glyph unicode="&#xb0;" horiz-adv-x="755" d="M100 1076q0 98 82 168q80 68 196 68q115 0 197 -68q80 -70 80 -168t-80 -168q-82 -72 -197 -72q-116 0 -196 72q-82 70 -82 168zM294 1076q0 -40 26 -70q24 -29 58 -29t58 29q25 30 25 70t-25 67q-24 30 -58 30t-58 -30q-26 -27 -26 -67z" />
<glyph unicode="&#xb1;" horiz-adv-x="1089" d="M80 -1v233h929v-233h-929zM80 725v240h326v346h275v-346h328v-240h-328v-344h-275v344h-326z" />
<glyph unicode="&#xb4;" horiz-adv-x="842" d="M287 1020l161 293h350l-303 -293h-208z" />
<glyph unicode="&#xb5;" horiz-adv-x="1237" d="M110 -2v1313h369v-479q0 -90 47 -141q39 -45 97 -45h4q60 2 101 50q47 55 47 146v469h367v-1007h-345v130q-63 -81 -162 -84h-5q-96 0 -151 77v-429h-369z" />
<glyph unicode="&#xb6;" horiz-adv-x="1203" d="M93 1028q0 106 74 186q97 105 275 105h681v-224h-90v-1095h-204v1095h-128v-1095h-204v720q-156 0 -258 55q-126 70 -144 216q-2 19 -2 37z" />
<glyph unicode="&#xb7;" horiz-adv-x="506" d="M100 654q0 63 44 108q46 45 109 45t108 -45t45 -108t-45 -108t-108 -45t-109 45q-44 45 -44 108z" />
<glyph unicode="&#xb8;" horiz-adv-x="775" d="M80 -223q127 -41 209 -41h19q70 0 103 13q27 12 29 36v6q-4 22 -24 32q-25 18 -110 18q-25 0 -57 -2l57 197h155l-20 -83q117 -7 169 -47q63 -49 63 -110q0 -21 -7 -43q-27 -81 -125 -116q-76 -27 -198 -27q-110 0 -263 22v145z" />
<glyph unicode="&#xbb;" horiz-adv-x="1305" d="M80 1216h316l293 -463l-293 -462h-306l272 462zM616 1216h316l293 -463l-293 -462h-306l272 462z" />
<glyph unicode="&#xbf;" horiz-adv-x="1031" d="M50 -23q0 73 34 142q28 57 182 184q124 103 124 214h336v-33q0 -132 -71 -227q-41 -54 -179 -169q-58 -47 -58 -117q0 -9 1 -18q8 -86 106 -86h2q63 0 113 48q54 53 55 132l316 -89q-29 -146 -128 -242q-120 -116 -368 -116q-200 0 -312 80q-103 75 -138 198 q-15 51 -15 99zM380 607v318h359v-318h-359z" />
<glyph unicode="&#xc0;" d="M70 0v309h130l331 696h-113v309h608l393 -1005h116v-309h-608v309h113l-46 149h-368l-56 -149h111v-309h-611zM462 1700h350l161 -293h-208zM707 692h204q-78 202 -102 293q-26 -87 -102 -293z" />
<glyph unicode="&#xc1;" d="M70 0v309h130l331 696h-113v309h608l393 -1005h116v-309h-608v309h113l-46 149h-368l-56 -149h111v-309h-611zM632 1408l161 293h350l-303 -293h-208zM707 692h204q-78 202 -102 293q-26 -87 -102 -293z" />
<glyph unicode="&#xc2;" d="M70 0v309h130l331 696h-113v309h608l393 -1005h116v-309h-608v309h113l-46 149h-368l-56 -149h111v-309h-611zM491 1383l232 323h159l232 -323h-221l-89 135l-92 -135h-221zM707 692h204q-78 202 -102 293q-26 -87 -102 -293z" />
<glyph unicode="&#xc3;" d="M70 0v309h130l331 696h-113v309h608l393 -1005h116v-309h-608v309h113l-46 149h-368l-56 -149h111v-309h-611zM449 1452q0 185 123 224q31 10 66 10q82 0 183 -56q67 -37 111 -37q32 0 51 21q15 17 18 86h155q1 -26 1 -64q0 -109 -55 -169q-53 -58 -143 -58q-8 0 -17 1 q-81 4 -171 50q-66 32 -103 32h-6q-54 -4 -59 -82h-153q-1 24 -1 42zM707 692h204q-78 202 -102 293q-26 -87 -102 -293z" />
<glyph unicode="&#xc4;" d="M70 0v309h130l331 696h-113v309h608l393 -1005h116v-309h-608v309h113l-46 149h-368l-56 -149h111v-309h-611zM440 1538q0 63 44 108q46 45 109 45t108 -45t45 -108t-45 -108t-108 -45t-109 45q-44 45 -44 108zM707 692h204q-78 202 -102 293q-26 -87 -102 -293z M860 1538q0 63 44 108q46 45 109 45t108 -45t45 -108t-45 -108t-108 -45t-109 45q-44 45 -44 108z" />
<glyph unicode="&#xc5;" d="M70 0v309h130l331 696h-113v309h608l393 -1005h116v-309h-608v309h113l-46 149h-368l-56 -149h111v-309h-611zM596 1544q0 73 61 125q60 51 146 51t147 -51q60 -52 60 -125t-60 -125q-61 -54 -147 -54t-146 54q-61 52 -61 125zM707 692h204q-78 202 -102 293 q-26 -87 -102 -293zM741 1544q0 -30 19 -52q18 -22 43 -22q26 0 44 22t18 52t-18 50q-18 22 -44 22q-25 0 -43 -22q-19 -20 -19 -50z" />
<glyph unicode="&#xc6;" horiz-adv-x="2047" d="M70 0v309h130l331 696h-113v309h1559v-372h-218v89h-308v-206h376v-247h-376v-292h308v85h218v-371h-1054v309h117l-46 149h-368l-56 -149h111v-309h-611zM707 692h204q-78 202 -102 293q-26 -87 -102 -293z" />
<glyph unicode="&#xc7;" horiz-adv-x="1435" d="M80 655q0 279 205 477q203 197 492 197q185 0 344 -87q29 -16 56 -34l31 106h187v-476h-331q-63 116 -172 159q-54 21 -111 21q-47 0 -96 -15q-106 -33 -153 -122q-53 -96 -53 -226t53 -226q47 -90 153 -122q50 -16 96 -16q57 0 111 22q94 33 202 149l276 -162 q-94 -146 -249 -232q-145 -80 -312 -87l-7 -28q117 -7 169 -47q63 -49 63 -110q0 -21 -7 -43q-27 -81 -125 -116q-76 -27 -198 -27q-110 0 -263 22v145q127 -41 209 -41h19q70 0 103 13q27 12 29 36v6q-4 22 -24 32q-25 18 -110 18q-25 0 -57 -2l44 151q-211 34 -369 188 q-205 197 -205 477z" />
<glyph unicode="&#xc8;" horiz-adv-x="1215" d="M80 1005v309h1055v-372h-218v79h-308v-196h376v-277h-376v-262h308v85h218v-371h-1054v309h148v696h-149zM267 1700h350l161 -293h-208z" />
<glyph unicode="&#xc9;" horiz-adv-x="1215" d="M80 1005v309h1055v-372h-218v79h-308v-196h376v-277h-376v-262h308v85h218v-371h-1054v309h148v696h-149zM437 1408l161 293h350l-303 -293h-208z" />
<glyph unicode="&#xca;" horiz-adv-x="1215" d="M80 1005v309h1055v-372h-218v79h-308v-196h376v-277h-376v-262h308v85h218v-371h-1054v309h148v696h-149zM296 1383l232 323h159l232 -323h-221l-89 135l-92 -135h-221z" />
<glyph unicode="&#xcb;" horiz-adv-x="1215" d="M80 1005v309h1055v-372h-218v79h-308v-196h376v-277h-376v-262h308v85h218v-371h-1054v309h148v696h-149zM245 1538q0 63 44 108q46 45 109 45t108 -45t45 -108t-45 -108t-108 -45t-109 45q-44 45 -44 108zM665 1538q0 63 44 108q46 45 109 45t108 -45t45 -108t-45 -108 t-108 -45t-109 45q-44 45 -44 108z" />
<glyph unicode="&#xcc;" horiz-adv-x="814" d="M80 1700h350l161 -293h-208zM94 1005v309h653v-309h-136v-697h137v-308h-653v308h136v697h-137z" />
<glyph unicode="&#xcd;" horiz-adv-x="814" d="M80 1005v309h653v-309h-136v-697h137v-308h-653v308h136v697h-137zM237 1408l161 293h350l-303 -293h-208z" />
<glyph unicode="&#xce;" horiz-adv-x="814" d="M80 1005v309h653v-309h-136v-697h137v-308h-653v308h136v697h-137zM96 1383l232 323h159l232 -323h-221l-89 135l-92 -135h-221z" />
<glyph unicode="&#xcf;" horiz-adv-x="814" d="M80 1538q0 63 44 108q46 45 109 45t108 -45t45 -108t-45 -108t-108 -45t-109 45q-44 45 -44 108zM116 1005v309h653v-309h-136v-697h137v-308h-653v308h136v697h-137zM500 1538q0 63 44 108q46 45 109 45t108 -45t45 -108t-45 -108t-108 -45t-109 45q-44 45 -44 108z" />
<glyph unicode="&#xd0;" horiz-adv-x="1543" d="M80 0v309h148v261h-148v207h148v228h-148v309h693q286 -1 488 -193t202 -464t-202 -464q-202 -193 -488 -193h-693zM608 294h165q134 0 236 116q98 111 98 247t-98 247q-102 116 -236 116h-165v-243h143v-207h-143v-276z" />
<glyph unicode="&#xd1;" horiz-adv-x="1674" d="M80 0v308h148v698h-148v308h653v-128l376 -643v462h-169v309h654v-309h-130v-696h130v-309h-754v309h51l-308 523v-524h150v-308h-653zM483 1452q0 185 123 224q31 10 66 10q82 0 183 -56q67 -37 111 -37q32 0 51 21q15 17 18 86h155q1 -26 1 -64q0 -109 -55 -169 q-53 -58 -143 -58q-8 0 -17 1q-81 4 -171 50q-66 32 -103 32h-6q-54 -4 -59 -82h-153q-1 24 -1 42z" />
<glyph unicode="&#xd2;" horiz-adv-x="1494" d="M50 655q0 279 205 477q203 197 492 197t492 -197q205 -198 205 -477q0 -280 -205 -477q-203 -198 -492 -198t-492 198q-205 197 -205 477zM406 1700h350l161 -293h-208zM473 655q0 -169 86 -268q77 -89 188 -90q112 0 189 90q86 99 86 268q0 168 -86 268q-77 89 -189 89 q-111 0 -188 -89q-86 -100 -86 -268z" />
<glyph unicode="&#xd3;" horiz-adv-x="1494" d="M50 655q0 279 205 477q203 197 492 197t492 -197q205 -198 205 -477q0 -280 -205 -477q-203 -198 -492 -198t-492 198q-205 197 -205 477zM473 655q0 -169 86 -268q77 -89 188 -90q112 0 189 90q86 99 86 268q0 168 -86 268q-77 89 -189 89q-111 0 -188 -89 q-86 -100 -86 -268zM577 1408l161 293h350l-303 -293h-208z" />
<glyph unicode="&#xd4;" horiz-adv-x="1494" d="M50 655q0 279 205 477q203 197 492 197t492 -197q205 -198 205 -477q0 -280 -205 -477q-203 -198 -492 -198t-492 198q-205 197 -205 477zM436 1383l232 323h159l232 -323h-221l-89 135l-92 -135h-221zM473 655q0 -169 86 -268q77 -89 188 -90q112 0 189 90q86 99 86 268 q0 168 -86 268q-77 89 -189 89q-111 0 -188 -89q-86 -100 -86 -268z" />
<glyph unicode="&#xd5;" horiz-adv-x="1494" d="M50 655q0 279 205 477q203 197 492 197t492 -197q205 -198 205 -477q0 -280 -205 -477q-203 -198 -492 -198t-492 198q-205 197 -205 477zM393 1452q0 185 123 224q31 10 66 10q82 0 183 -56q67 -37 111 -37q32 0 51 21q15 17 18 86h155q1 -26 1 -64q0 -109 -55 -169 q-53 -58 -143 -58q-8 0 -17 1q-81 4 -171 50q-66 32 -103 32h-6q-54 -4 -59 -82h-153q-1 24 -1 42zM473 655q0 -169 86 -268q77 -89 188 -90q112 0 189 90q86 99 86 268q0 168 -86 268q-77 89 -189 89q-111 0 -188 -89q-86 -100 -86 -268z" />
<glyph unicode="&#xd6;" horiz-adv-x="1494" d="M50 655q0 279 205 477q203 197 492 197t492 -197q205 -198 205 -477q0 -280 -205 -477q-203 -198 -492 -198t-492 198q-205 197 -205 477zM384 1538q0 63 44 108q46 45 109 45t108 -45t45 -108t-45 -108t-108 -45t-109 45q-44 45 -44 108zM473 655q0 -169 86 -268 q77 -89 188 -90q112 0 189 90q86 99 86 268q0 168 -86 268q-77 89 -189 89q-111 0 -188 -89q-86 -100 -86 -268zM804 1538q0 63 44 108q46 45 109 45t108 -45t45 -108t-45 -108t-108 -45t-109 45q-44 45 -44 108z" />
<glyph unicode="&#xd7;" horiz-adv-x="1055" d="M50 447l277 278l-277 274l201 202l277 -275l275 275l202 -202l-277 -274l277 -278l-202 -200l-275 278l-277 -278z" />
<glyph unicode="&#xd8;" horiz-adv-x="1554" d="M80 659q0 279 205 477q203 197 492 197q93 0 178 -21l73 163h185l-99 -224q83 -45 155 -115q205 -198 205 -477q0 -280 -205 -477q-203 -198 -492 -198q-94 0 -179 21l-95 -213h-183l120 274q-83 46 -155 116q-205 197 -205 477zM440 659q0 -169 106 -268q95 -89 232 -90 q137 0 232 90q105 99 105 268q0 168 -105 268q-95 89 -232 89t-232 -89q-106 -100 -106 -268z" />
<glyph unicode="&#xd9;" horiz-adv-x="1615" d="M80 1003v311h679v-311h-155v-511q10 -97 71 -149q53 -50 129 -50h3q78 0 132 50q60 52 70 149v511h-156v311h682v-311h-157v-471q0 -228 -167 -391q-169 -163 -404 -163q-236 0 -404 163t-168 391v471h-155zM467 1700h350l161 -293h-208z" />
<glyph unicode="&#xda;" horiz-adv-x="1615" d="M80 1003v311h679v-311h-155v-511q10 -97 71 -149q53 -50 129 -50h3q78 0 132 50q60 52 70 149v511h-156v311h682v-311h-157v-471q0 -228 -167 -391q-169 -163 -404 -163q-236 0 -404 163t-168 391v471h-155zM637 1408l161 293h350l-303 -293h-208z" />
<glyph unicode="&#xdb;" horiz-adv-x="1615" d="M80 1003v311h679v-311h-155v-511q10 -97 71 -149q53 -50 129 -50h3q78 0 132 50q60 52 70 149v511h-156v311h682v-311h-157v-471q0 -228 -167 -391q-169 -163 -404 -163q-236 0 -404 163t-168 391v471h-155zM496 1383l232 323h159l232 -323h-221l-89 135l-92 -135h-221z " />
<glyph unicode="&#xdc;" horiz-adv-x="1615" d="M80 1003v311h679v-311h-155v-511q10 -97 71 -149q53 -50 129 -50h3q78 0 132 50q60 52 70 149v511h-156v311h682v-311h-157v-471q0 -228 -167 -391q-169 -163 -404 -163q-236 0 -404 163t-168 391v471h-155zM445 1538q0 63 44 108q46 45 109 45t108 -45t45 -108t-45 -108 t-108 -45t-109 45q-44 45 -44 108zM865 1538q0 63 44 108q46 45 109 45t108 -45t45 -108t-45 -108t-108 -45t-109 45q-44 45 -44 108z" />
<glyph unicode="&#xdd;" horiz-adv-x="1549" d="M80 1007v307h609v-307h-80q85 -160 166 -299q81 139 165 299h-79v307h608v-307h-156l-349 -520v-179h157v-308h-692v308h156v179l-349 520h-156zM604 1408l161 293h350l-303 -293h-208z" />
<glyph unicode="&#xde;" horiz-adv-x="1140" d="M110 0v1314h341v-234l227 -1q184 -1 304 -130q101 -109 101 -261q0 -11 -1 -23q-8 -167 -128 -283q-134 -128 -320 -128h-183v-254h-341zM451 520h98q95 0 152 45q52 42 55 101v7q0 55 -45 94q-53 46 -146 46h-114v-293z" />
<glyph unicode="&#xdf;" horiz-adv-x="1349" d="M20 0v307h127v596q0 244 136 339q117 82 395 82q237 0 342 -77t105 -188q0 -63 -67 -167q-67 -103 -67 -146q0 -51 48 -96q21 -19 106 -75q154 -101 154 -224q0 -109 -68 -185q-62 -70 -167 -99q-60 -16 -124 -16q-43 0 -87 7q-113 18 -198 81l128 207q30 -33 64 -37 q5 -1 9 -1q25 0 44 16q23 19 26 50v6q0 31 -23 62q-17 24 -90 71q-132 77 -132 179q0 56 43 146q43 70 43 125q0 59 -38 86q-22 15 -50 15q-15 0 -32 -5q-49 -14 -82 -60q-37 -53 -37 -129v-870h-508z" />
<glyph unicode="&#xe0;" horiz-adv-x="1130" d="M30 287q0 122 101 208t244 86q172 0 267 -56q0 14 -2 28q-5 59 -35 95q-40 45 -113 60q-46 10 -84 10q-17 0 -33 -2q-117 -11 -245 -112l-64 213q107 85 280 113q85 10 165 10q96 0 176 -27q142 -49 211 -188q59 -119 59 -287v-130h123v-308h-347l-50 61q-14 -16 -46 -30 q-80 -38 -262 -38q-143 0 -244 87q-101 86 -101 207zM214 1312h350l161 -293h-208zM325 297q0 -39 39 -67q40 -28 115 -28q76 0 115 28t39 67q0 40 -39 67q-39 28 -115 28q-75 0 -115 -28q-39 -27 -39 -67z" />
<glyph unicode="&#xe1;" horiz-adv-x="1130" d="M30 287q0 122 101 208t244 86q172 0 267 -56q0 14 -2 28q-5 59 -35 95q-40 45 -113 60q-46 10 -84 10q-17 0 -33 -2q-117 -11 -245 -112l-64 213q107 85 280 113q85 10 165 10q96 0 176 -27q142 -49 211 -188q59 -119 59 -287v-130h123v-308h-347l-50 61q-14 -16 -46 -30 q-80 -38 -262 -38q-143 0 -244 87q-101 86 -101 207zM325 297q0 -39 39 -67q40 -28 115 -28q76 0 115 28t39 67q0 40 -39 67q-39 28 -115 28q-75 0 -115 -28q-39 -27 -39 -67zM385 1020l161 293h350l-303 -293h-208z" />
<glyph unicode="&#xe2;" horiz-adv-x="1130" d="M30 287q0 122 101 208t244 86q172 0 267 -56q0 14 -2 28q-5 59 -35 95q-40 45 -113 60q-46 10 -84 10q-17 0 -33 -2q-117 -11 -245 -112l-64 213q107 85 280 113q85 10 165 10q96 0 176 -27q142 -49 211 -188q59 -119 59 -287v-130h123v-308h-347l-50 61q-14 -16 -46 -30 q-80 -38 -262 -38q-143 0 -244 87q-101 86 -101 207zM244 995l232 323h159l232 -323h-221l-89 135l-92 -135h-221zM325 297q0 -39 39 -67q40 -28 115 -28q76 0 115 28t39 67q0 40 -39 67q-39 28 -115 28q-75 0 -115 -28q-39 -27 -39 -67z" />
<glyph unicode="&#xe3;" horiz-adv-x="1130" d="M30 287q0 122 101 208t244 86q172 0 267 -56q0 14 -2 28q-5 59 -35 95q-40 45 -113 60q-46 10 -84 10q-17 0 -33 -2q-117 -11 -245 -112l-64 213q107 85 280 113q85 10 165 10q96 0 176 -27q142 -49 211 -188q59 -119 59 -287v-130h123v-308h-347l-50 61q-14 -16 -46 -30 q-80 -38 -262 -38q-143 0 -244 87q-101 86 -101 207zM201 1064q0 185 123 224q31 10 66 10q82 0 183 -56q67 -37 111 -37q32 0 51 21q15 17 18 86h155q1 -26 1 -64q0 -109 -55 -169q-53 -58 -143 -58q-8 0 -17 1q-81 4 -171 50q-66 32 -103 32h-6q-54 -4 -59 -82h-153 q-1 24 -1 42zM325 297q0 -39 39 -67q40 -28 115 -28q76 0 115 28t39 67q0 40 -39 67q-39 28 -115 28q-75 0 -115 -28q-39 -27 -39 -67z" />
<glyph unicode="&#xe4;" horiz-adv-x="1130" d="M30 287q0 122 101 208t244 86q172 0 267 -56q0 14 -2 28q-5 59 -35 95q-40 45 -113 60q-46 10 -84 10q-17 0 -33 -2q-117 -11 -245 -112l-64 213q107 85 280 113q85 10 165 10q96 0 176 -27q142 -49 211 -188q59 -119 59 -287v-130h123v-308h-347l-50 61q-14 -16 -46 -30 q-80 -38 -262 -38q-143 0 -244 87q-101 86 -101 207zM192 1150q0 63 44 108q46 45 109 45t108 -45t45 -108t-45 -108t-108 -45t-109 45q-44 45 -44 108zM325 297q0 -39 39 -67q40 -28 115 -28q76 0 115 28t39 67q0 40 -39 67q-39 28 -115 28q-75 0 -115 -28q-39 -27 -39 -67 zM612 1150q0 63 44 108q46 45 109 45t108 -45t45 -108t-45 -108t-108 -45t-109 45q-44 45 -44 108z" />
<glyph unicode="&#xe5;" horiz-adv-x="1130" d="M30 287q0 122 101 208t244 86q172 0 267 -56q0 14 -2 28q-5 59 -35 95q-40 45 -113 60q-46 10 -84 10q-17 0 -33 -2q-117 -11 -245 -112l-64 213q107 85 280 113q85 10 165 10q96 0 176 -27q142 -49 211 -188q59 -119 59 -287v-130h123v-308h-347l-50 61q-14 -16 -46 -30 q-80 -38 -262 -38q-143 0 -244 87q-101 86 -101 207zM325 297q0 -39 39 -67q40 -28 115 -28q76 0 115 28t39 67q0 40 -39 67q-39 28 -115 28q-75 0 -115 -28q-39 -27 -39 -67zM348 1156q0 73 61 125q60 51 146 51t147 -51q60 -52 60 -125t-60 -125q-61 -54 -147 -54t-146 54 q-61 52 -61 125zM493 1156q0 -30 19 -52q18 -22 43 -22q26 0 44 22t18 52t-18 50q-18 22 -44 22q-25 0 -43 -22q-19 -20 -19 -50z" />
<glyph unicode="&#xe6;" horiz-adv-x="1844" d="M80 284q0 121 101 208q101 86 244 86q109 0 197 -53q1 10 1 20q0 55 -35 91q-37 39 -107 48q-24 3 -49 3q-126 0 -252 -87l-64 213q107 86 280 113q66 11 126 11q95 0 175 -28q135 -47 205 -177q141 208 390 208q191 0 334 -167q138 -161 138 -362h-611q-1 0 -1 -2 q22 -143 140 -143q75 0 116 62l24 -6l276 -76q-112 -218 -350 -252q-41 -6 -80 -6q-177 0 -311 123v-115h-224l-61 91q-103 -97 -257 -97q-143 0 -244 86t-101 208zM375 284q0 -40 39 -68q40 -27 95 -27q56 0 95 27q39 28 39 68q0 39 -39 67t-95 28q-55 0 -95 -28 q-39 -28 -39 -67zM1171 593h243q-26 135 -122 135q-95 0 -121 -135z" />
<glyph unicode="&#xe7;" horiz-adv-x="1010" d="M40 462v11q2 159 92 280q86 114 223 163q80 29 200 29q136 -8 197 -74l38 54h143v-361h-228q-2 103 -130 116h-4q-119 0 -173 -63q-55 -64 -55 -148q0 -85 56 -144q30 -32 78 -53q47 -17 95 -23q27 -3 52 -3q19 0 38 2q42 4 94 25q38 14 74 44l150 -173 q-100 -86 -211 -121q-76 -25 -185 -32l-9 -38q117 -7 169 -47q63 -49 63 -110q0 -21 -7 -43q-27 -81 -125 -116q-76 -27 -198 -27q-110 0 -263 22v145q127 -41 209 -41h19q70 0 103 13q27 12 29 36v6q-4 22 -24 32q-25 18 -110 18q-25 0 -57 -2l46 160q-39 7 -74 20 q-137 49 -223 163q-90 121 -92 280z" />
<glyph unicode="&#xe8;" horiz-adv-x="1073" d="M50 469q0 109 38 196q37 86 101 147q65 61 149 96q91 37 213 37q131 0 217 -38q83 -36 141 -93q57 -47 85 -125q29 -68 29 -159q0 -36 -5 -71q-6 -34 -16 -65h-633q3 -38 11 -63t28 -48t53 -39q34 -26 145 -32h12q47 0 78 7q21 4 44 14q38 15 70 33q27 17 63 47l150 -173 q-100 -86 -211 -121t-290 -35q-84 0 -168 28t-151 86t-110 150t-43 221zM196 1312h350l161 -293h-208zM374 578h370q-2 30 -6 44q-5 26 -18 47q-14 27 -40 43q-47 30 -116 30q-69 -1 -113 -31q-31 -21 -48 -51q-15 -23 -22 -45q-6 -14 -7 -37z" />
<glyph unicode="&#xe9;" horiz-adv-x="1073" d="M50 469q0 109 38 196q37 86 101 147q65 61 149 96q91 37 213 37q131 0 217 -38q83 -36 141 -93q57 -47 85 -125q29 -68 29 -159q0 -36 -5 -71q-6 -34 -16 -65h-633q3 -38 11 -63t28 -48t53 -39q34 -26 145 -32h12q47 0 78 7q21 4 44 14q38 15 70 33q27 17 63 47l150 -173 q-100 -86 -211 -121t-290 -35q-84 0 -168 28t-151 86t-110 150t-43 221zM366 1020l161 293h350l-303 -293h-208zM374 578h370q-2 30 -6 44q-5 26 -18 47q-14 27 -40 43q-47 30 -116 30q-69 -1 -113 -31q-31 -21 -48 -51q-15 -23 -22 -45q-6 -14 -7 -37z" />
<glyph unicode="&#xea;" horiz-adv-x="1073" d="M50 469q0 109 38 196q37 86 101 147q65 61 149 96q91 37 213 37q131 0 217 -38q83 -36 141 -93q57 -47 85 -125q29 -68 29 -159q0 -36 -5 -71q-6 -34 -16 -65h-633q3 -38 11 -63t28 -48t53 -39q34 -26 145 -32h12q47 0 78 7q21 4 44 14q38 15 70 33q27 17 63 47l150 -173 q-100 -86 -211 -121t-290 -35q-84 0 -168 28t-151 86t-110 150t-43 221zM225 995l232 323h159l232 -323h-221l-89 135l-92 -135h-221zM374 578h370q-2 30 -6 44q-5 26 -18 47q-14 27 -40 43q-47 30 -116 30q-69 -1 -113 -31q-31 -21 -48 -51q-15 -23 -22 -45q-6 -14 -7 -37z " />
<glyph unicode="&#xeb;" horiz-adv-x="1073" d="M50 469q0 109 38 196q37 86 101 147q65 61 149 96q91 37 213 37q131 0 217 -38q83 -36 141 -93q57 -47 85 -125q29 -68 29 -159q0 -36 -5 -71q-6 -34 -16 -65h-633q3 -38 11 -63t28 -48t53 -39q34 -26 145 -32h12q47 0 78 7q21 4 44 14q38 15 70 33q27 17 63 47l150 -173 q-100 -86 -211 -121t-290 -35q-84 0 -168 28t-151 86t-110 150t-43 221zM174 1150q0 63 44 108q46 45 109 45t108 -45t45 -108t-45 -108t-108 -45t-109 45q-44 45 -44 108zM374 578h370q-2 30 -6 44q-5 26 -18 47q-14 27 -40 43q-47 30 -116 30q-69 -1 -113 -31 q-31 -21 -48 -51q-15 -23 -22 -45q-6 -14 -7 -37zM594 1150q0 63 44 108q46 45 109 45t108 -45t45 -108t-45 -108t-108 -45t-109 45q-44 45 -44 108z" />
<glyph unicode="&#xec;" horiz-adv-x="641" d="M50 1312h350l161 -293h-208zM120 0v308h104v309h-84v308h416v-617h105v-308h-541z" />
<glyph unicode="&#xed;" horiz-adv-x="641" d="M50 0v308h104v309h-84v308h416v-617h105v-308h-541zM150 1020l161 293h350l-303 -293h-208z" />
<glyph unicode="&#xee;" horiz-adv-x="641" d="M50 995l232 323h159l232 -323h-221l-89 135l-92 -135h-221zM91 0v308h104v309h-84v308h416v-617h105v-308h-541z" />
<glyph unicode="&#xef;" horiz-adv-x="641" d="M50 1150q0 63 44 108q46 45 109 45t108 -45t45 -108t-45 -108t-108 -45t-109 45q-44 45 -44 108zM142 0v308h104v309h-84v308h416v-617h105v-308h-541zM470 1150q0 63 44 108q46 45 109 45t108 -45t45 -108t-45 -108t-108 -45t-109 45q-44 45 -44 108z" />
<glyph unicode="&#xf0;" horiz-adv-x="1154" d="M50 480q0 120 56 228q53 103 143 169q92 67 195 74q14 1 28 1q97 0 184 -55q-58 105 -111 179l-226 -86l-58 86l218 80q-100 102 -202 158h354q53 -30 97 -65l174 65l67 -81l-160 -58q142 -149 214 -312q72 -165 72 -339q0 -21 -1 -43q-11 -221 -138 -353 q-139 -143 -380 -143q-226 0 -372 128q-154 137 -154 367zM400 477q1 -115 56 -180q46 -54 111 -54h9q70 3 119 67q54 70 54 184q-1 106 -55 166q-47 51 -113 51h-7q-71 -3 -120 -61q-54 -66 -54 -173z" />
<glyph unicode="&#xf1;" horiz-adv-x="1247" d="M50 0v308h84v309h-74v309h366l40 -91q105 90 226 99q15 1 29 1q94 0 181 -51q96 -57 155 -157q60 -104 61 -222v-197h79v-308h-411v506q-1 76 -52 134q-49 56 -108 56q-60 0 -109 -56q-51 -59 -51 -136v-196h85v-308h-501zM270 1064q0 185 123 224q31 10 66 10 q82 0 183 -56q67 -37 111 -37q32 0 51 21q15 17 18 86h155q1 -26 1 -64q0 -109 -55 -169q-53 -58 -143 -58q-8 0 -17 1q-81 4 -171 50q-66 32 -103 32h-6q-54 -4 -59 -82h-153q-1 24 -1 42z" />
<glyph unicode="&#xf2;" horiz-adv-x="1143" d="M30 471q0 195 138 333q158 138 404 138q245 0 403 -138q138 -138 138 -333q0 -197 -138 -338q-159 -142 -403 -142q-245 0 -404 142q-138 141 -138 338zM231 1312h350l161 -293h-208zM379 471q0 -92 48 -160q49 -68 145 -68q93 0 143 68q49 68 49 160q0 90 -49 154 q-49 65 -143 65q-96 0 -145 -65q-48 -64 -48 -154z" />
<glyph unicode="&#xf3;" horiz-adv-x="1143" d="M30 471q0 195 138 333q158 138 404 138q245 0 403 -138q138 -138 138 -333q0 -197 -138 -338q-159 -142 -403 -142q-245 0 -404 142q-138 141 -138 338zM379 471q0 -92 48 -160q49 -68 145 -68q93 0 143 68q49 68 49 160q0 90 -49 154q-49 65 -143 65q-96 0 -145 -65 q-48 -64 -48 -154zM401 1020l161 293h350l-303 -293h-208z" />
<glyph unicode="&#xf4;" horiz-adv-x="1143" d="M30 471q0 195 138 333q158 138 404 138q245 0 403 -138q138 -138 138 -333q0 -197 -138 -338q-159 -142 -403 -142q-245 0 -404 142q-138 141 -138 338zM260 995l232 323h159l232 -323h-221l-89 135l-92 -135h-221zM379 471q0 -92 48 -160q49 -68 145 -68q93 0 143 68 q49 68 49 160q0 90 -49 154q-49 65 -143 65q-96 0 -145 -65q-48 -64 -48 -154z" />
<glyph unicode="&#xf5;" horiz-adv-x="1143" d="M30 471q0 195 138 333q158 138 404 138q245 0 403 -138q138 -138 138 -333q0 -197 -138 -338q-159 -142 -403 -142q-245 0 -404 142q-138 141 -138 338zM218 1064q0 185 123 224q31 10 66 10q82 0 183 -56q67 -37 111 -37q32 0 51 21q15 17 18 86h155q1 -26 1 -64 q0 -109 -55 -169q-53 -58 -143 -58q-8 0 -17 1q-81 4 -171 50q-66 32 -103 32h-6q-54 -4 -59 -82h-153q-1 24 -1 42zM379 471q0 -92 48 -160q49 -68 145 -68q93 0 143 68q49 68 49 160q0 90 -49 154q-49 65 -143 65q-96 0 -145 -65q-48 -64 -48 -154z" />
<glyph unicode="&#xf6;" horiz-adv-x="1143" d="M30 471q0 195 138 333q158 138 404 138q245 0 403 -138q138 -138 138 -333q0 -197 -138 -338q-159 -142 -403 -142q-245 0 -404 142q-138 141 -138 338zM209 1150q0 63 44 108q46 45 109 45t108 -45t45 -108t-45 -108t-108 -45t-109 45q-44 45 -44 108zM379 471 q0 -92 48 -160q49 -68 145 -68q93 0 143 68q49 68 49 160q0 90 -49 154q-49 65 -143 65q-96 0 -145 -65q-48 -64 -48 -154zM629 1150q0 63 44 108q46 45 109 45t108 -45t45 -108t-45 -108t-108 -45t-109 45q-44 45 -44 108z" />
<glyph unicode="&#xf7;" horiz-adv-x="728" d="M50 608v196h628v-196h-628zM233 255v243h262v-243h-262zM233 936v243h262v-243h-262z" />
<glyph unicode="&#xf8;" horiz-adv-x="1119" d="M80 470q0 199 140 340q141 140 340 140q88 0 165 -28l78 164h105l-98 -205q47 -29 89 -71q140 -141 140 -340t-140 -343q-141 -144 -339 -144q-89 0 -167 29l-79 -165h-103l99 207q-48 30 -90 73q-140 144 -140 343zM417 470q0 -81 42 -142t101 -61q58 0 100 61t42 142 t-42 138q-41 57 -100 57t-101 -57t-42 -138z" />
<glyph unicode="&#xf9;" horiz-adv-x="1214" d="M50 616v310h402v-507q0 -77 51 -135q49 -56 109 -56t109 57q51 58 51 135v197h-58v309h390v-618h60v-308h-352l-40 90q-106 -90 -226 -100q-13 -1 -26 -1q-96 0 -184 52q-97 56 -155 157q-61 104 -61 221v197h-70zM266 1312h350l161 -293h-208z" />
<glyph unicode="&#xfa;" horiz-adv-x="1214" d="M50 616v310h402v-507q0 -77 51 -135q49 -56 109 -56t109 57q51 58 51 135v197h-58v309h390v-618h60v-308h-352l-40 90q-106 -90 -226 -100q-13 -1 -26 -1q-96 0 -184 52q-97 56 -155 157q-61 104 -61 221v197h-70zM437 1020l161 293h350l-303 -293h-208z" />
<glyph unicode="&#xfb;" horiz-adv-x="1214" d="M50 616v310h402v-507q0 -77 51 -135q49 -56 109 -56t109 57q51 58 51 135v197h-58v309h390v-618h60v-308h-352l-40 90q-106 -90 -226 -100q-13 -1 -26 -1q-96 0 -184 52q-97 56 -155 157q-61 104 -61 221v197h-70zM296 995l232 323h159l232 -323h-221l-89 135l-92 -135 h-221z" />
<glyph unicode="&#xfc;" horiz-adv-x="1214" d="M50 616v310h402v-507q0 -77 51 -135q49 -56 109 -56t109 57q51 58 51 135v197h-58v309h390v-618h60v-308h-352l-40 90q-106 -90 -226 -100q-13 -1 -26 -1q-96 0 -184 52q-97 56 -155 157q-61 104 -61 221v197h-70zM244 1150q0 63 44 108q46 45 109 45t108 -45t45 -108 t-45 -108t-108 -45t-109 45q-44 45 -44 108zM664 1150q0 63 44 108q46 45 109 45t108 -45t45 -108t-45 -108t-108 -45t-109 45q-44 45 -44 108z" />
<glyph unicode="&#xfd;" horiz-adv-x="1085" d="M50 617v309h467v-309h-68q40 -149 79 -322q53 172 102 322h-62v309h467v-309h-87l-127 -344l-18 -50l-62 -167l-44 -118q-40 -108 -106 -184q-65 -76 -155 -114q-86 -36 -193 -36h-11q-90 2 -180 34l111 238q23 -4 44 -4q118 0 171 127l1 1l-235 617h-94zM372 1020 l161 293h350l-303 -293h-208z" />
<glyph unicode="&#xfe;" horiz-adv-x="1148" d="M110 -398v1718h326v-466q109 116 268 116h21q143 -9 252 -146q118 -148 119 -376v-7q0 -229 -126 -362q-116 -122 -252 -126h-13q-161 0 -269 115v-466h-326zM413 463q0 -118 50 -177q45 -53 124 -53h3q78 0 126 51q55 58 55 174v4q0 119 -57 178q-50 53 -128 53h-3 q-77 0 -121 -53q-49 -60 -49 -177z" />
<glyph unicode="&#xff;" horiz-adv-x="1085" d="M50 617v309h467v-309h-68q40 -149 79 -322q53 172 102 322h-62v309h467v-309h-87l-127 -344l-18 -50l-62 -167l-44 -118q-40 -108 -106 -184q-65 -76 -155 -114q-86 -36 -193 -36h-11q-90 2 -180 34l111 238q23 -4 44 -4q118 0 171 127l1 1l-235 617h-94zM180 1150 q0 63 44 108q46 45 109 45t108 -45t45 -108t-45 -108t-108 -45t-109 45q-44 45 -44 108zM600 1150q0 63 44 108q46 45 109 45t108 -45t45 -108t-45 -108t-108 -45t-109 45q-44 45 -44 108z" />
<glyph unicode="&#x152;" horiz-adv-x="2049" d="M50 655q0 279 205 477q203 197 492 197q80 0 153 -15h1093v-372h-218v79h-308v-196h376v-277h-376v-262h308v85h218v-371h-1071q-83 -20 -175 -20q-289 0 -492 198q-205 197 -205 477zM409 655q0 -169 106 -268q95 -89 232 -90q137 0 232 90q105 99 105 268 q0 168 -105 268q-95 89 -232 89t-232 -89q-106 -100 -106 -268z" />
<glyph unicode="&#x153;" horiz-adv-x="1811" d="M30 471q0 195 138 333q158 138 404 138q230 0 384 -122q62 55 140 88q91 37 213 37q131 0 217 -38q83 -36 141 -93q57 -47 85 -125q29 -68 29 -159q0 -36 -5 -71q-6 -34 -16 -65h-633q3 -38 11 -63t28 -48t53 -39q34 -26 145 -32h12q47 0 78 7q21 4 44 14q38 15 70 33 q27 17 63 47l150 -173q-100 -86 -211 -121t-290 -35q-84 0 -168 28t-151 86q-7 6 -13 12q-153 -119 -376 -119q-245 0 -404 142q-138 141 -138 338zM352 471q0 -92 55 -160q56 -68 165 -68q107 0 164 68q56 68 56 160q0 90 -56 154q-56 65 -164 65q-109 0 -165 -65 q-55 -64 -55 -154zM1132 578h370q-2 30 -6 44q-5 26 -18 47q-14 27 -40 43q-47 30 -116 30q-69 -1 -113 -31q-31 -21 -48 -51q-15 -23 -22 -45q-6 -14 -7 -37z" />
<glyph unicode="&#x178;" horiz-adv-x="1549" d="M80 1007v307h609v-307h-80q85 -160 166 -299q81 139 165 299h-79v307h608v-307h-156l-349 -520v-179h157v-308h-692v308h156v179l-349 520h-156zM412 1538q0 63 44 108q46 45 109 45t108 -45t45 -108t-45 -108t-108 -45t-109 45q-44 45 -44 108zM832 1538q0 63 44 108 q46 45 109 45t108 -45t45 -108t-45 -108t-108 -45t-109 45q-44 45 -44 108z" />
<glyph unicode="&#x2c6;" horiz-adv-x="1023" d="M200 995l232 323h159l232 -323h-221l-89 135l-92 -135h-221z" />
<glyph unicode="&#x2dc;" horiz-adv-x="868" d="M80 1064q0 185 123 224q31 10 66 10q82 0 183 -56q67 -37 111 -37q32 0 51 21q15 17 18 86h155q1 -26 1 -64q0 -109 -55 -169q-53 -58 -143 -58q-8 0 -17 1q-81 4 -171 50q-66 32 -103 32h-6q-54 -4 -59 -82h-153q-1 24 -1 42z" />
<glyph unicode="&#x2000;" horiz-adv-x="860" />
<glyph unicode="&#x2001;" horiz-adv-x="1720" />
<glyph unicode="&#x2002;" horiz-adv-x="860" />
<glyph unicode="&#x2003;" horiz-adv-x="1720" />
<glyph unicode="&#x2004;" horiz-adv-x="573" />
<glyph unicode="&#x2005;" horiz-adv-x="430" />
<glyph unicode="&#x2006;" horiz-adv-x="286" />
<glyph unicode="&#x2007;" horiz-adv-x="286" />
<glyph unicode="&#x2008;" horiz-adv-x="215" />
<glyph unicode="&#x2009;" horiz-adv-x="344" />
<glyph unicode="&#x200a;" horiz-adv-x="95" />
<glyph unicode="&#x2010;" horiz-adv-x="740" d="M80 612v268h580v-268h-580z" />
<glyph unicode="&#x2011;" horiz-adv-x="740" d="M80 612v268h580v-268h-580z" />
<glyph unicode="&#x2012;" horiz-adv-x="740" d="M80 612v268h580v-268h-580z" />
<glyph unicode="&#x2013;" horiz-adv-x="1024" d="M-12 424v222h1048v-222h-1048z" />
<glyph unicode="&#x2014;" horiz-adv-x="2048" d="M-12 424v222h2072v-222h-2072z" />
<glyph unicode="&#x2018;" horiz-adv-x="353" d="M50 926v151q0 137 45 199q44 61 151 82v-125q-23 -7 -35 -22q-26 -22 -29 -94h121v-191h-253z" />
<glyph unicode="&#x2019;" horiz-adv-x="353" d="M50 1168v190h253v-150q0 -137 -45 -199q-44 -62 -151 -83v126q23 6 35 22q26 22 29 94h-121z" />
<glyph unicode="&#x201a;" horiz-adv-x="353" d="M50 26v190h253v-150q0 -137 -45 -199q-44 -62 -151 -83v126q23 6 35 22q26 22 29 94h-121z" />
<glyph unicode="&#x201c;" horiz-adv-x="707" d="M50 926v151q0 137 45 199q44 61 151 82v-125q-23 -7 -35 -22q-26 -22 -29 -94h121v-191h-253zM404 926v151q0 137 45 199q44 61 151 82v-125q-23 -7 -35 -22q-26 -22 -29 -94h121v-191h-253z" />
<glyph unicode="&#x201d;" horiz-adv-x="707" d="M50 1168v190h253v-150q0 -137 -45 -199q-44 -62 -151 -83v126q23 6 35 22q26 22 29 94h-121zM404 1168v190h253v-150q0 -137 -45 -199q-44 -62 -151 -83v126q23 6 35 22q26 22 29 94h-121z" />
<glyph unicode="&#x201e;" horiz-adv-x="707" d="M50 26v190h253v-150q0 -137 -45 -199q-44 -62 -151 -83v126q23 6 35 22q26 22 29 94h-121zM404 26v190h253v-150q0 -137 -45 -199q-44 -62 -151 -83v126q23 6 35 22q26 22 29 94h-121z" />
<glyph unicode="&#x2022;" horiz-adv-x="800" d="M100 660q0 124 88 212t212 88t212 -88t88 -212t-88 -212t-212 -88t-212 88t-88 212z" />
<glyph unicode="&#x2026;" horiz-adv-x="2048" d="M100 0v332h358v-332h-358zM783 0v332h358v-332h-358zM1466 0v332h358v-332h-358z" />
<glyph unicode="&#x202f;" horiz-adv-x="344" />
<glyph unicode="&#x2039;" horiz-adv-x="769" d="M80 753l293 463h316l-282 -463l272 -462h-306z" />
<glyph unicode="&#x203a;" horiz-adv-x="769" d="M80 1216h316l293 -463l-293 -462h-306l272 462z" />
<glyph unicode="&#x205f;" horiz-adv-x="430" />
<glyph unicode="&#x20ac;" horiz-adv-x="1452" d="M80 446l45 161h78q-2 21 -2 41t2 41h-123l45 162h107q66 207 241 338q179 134 403 134q274 0 471 -193l-193 -299q-95 189 -273 189h-7q-175 -3 -270 -169h308l-45 -162h-315q-3 -20 -3 -41q0 -20 3 -41h360l-45 -161h-263q95 -166 270 -170h7q178 0 273 189l218 -272 q-199 -219 -496 -219q-224 0 -403 133q-175 132 -241 339h-152z" />
<glyph unicode="&#x2122;" horiz-adv-x="1384" d="M-21 1133v182h733q108 -297 135 -414q27 117 135 414h292v-124h-66v-279h66v-123h-269v119h44v206q-40 -91 -106 -325h-192q-66 234 -106 325v-206h41v-119h-267v123h67v221h-61v66h-80v-287h71v-123h-309v123h67v287h-79v-66h-116z" />
<glyph unicode="&#x25fc;" horiz-adv-x="925" d="M0 0v925h925v-925h-925z" />
</font>
</defs>
</svg>
