<svg xmlns="http://www.w3.org/2000/svg" xmlns:xlink="http://www.w3.org/1999/xlink" version="1.0" id="Layer_1" x="0px" y="0px" viewBox="0 0 100 100" enable-background="new 0 0 100 100" xml:space="preserve" height="100px" width="100px">
<path d="M67,71.3H33c-0.9,0-1.6-0.7-1.6-1.6V30.3c0-0.9,0.7-1.6,1.6-1.6H67c0.9,0,1.6,0.7,1.6,1.6v39.3C68.7,70.6,67.9,71.3,67,71.3  z M34.6,68h30.9V32H34.6V68z"/>
<path d="M60,46.7H39.1c-0.9,0-1.6-0.7-1.6-1.6V37c0-0.9,0.7-1.6,1.6-1.6H60c0.9,0,1.6,0.7,1.6,1.6v8.1C61.7,46,60.9,46.7,60,46.7z   M40.8,43.5h17.7v-4.9H40.8V43.5z"/>
<path d="M43.2,58.8h-3.7c-0.9,0-1.6-0.7-1.6-1.6s0.7-1.6,1.6-1.6h3.7c0.9,0,1.6,0.7,1.6,1.6S44.1,58.8,43.2,58.8z"/>
<path d="M43.2,52.9h-3.7c-0.9,0-1.6-0.7-1.6-1.6s0.7-1.6,1.6-1.6h3.7c0.9,0,1.6,0.7,1.6,1.6S44.1,52.9,43.2,52.9z"/>
<path d="M43.2,64.5h-3.7c-0.9,0-1.6-0.7-1.6-1.6s0.7-1.6,1.6-1.6h3.7c0.9,0,1.6,0.7,1.6,1.6S44.1,64.5,43.2,64.5z"/>
<path d="M51.7,58.8H48c-0.9,0-1.6-0.7-1.6-1.6s0.7-1.6,1.6-1.6h3.7c0.9,0,1.6,0.7,1.6,1.6S52.6,58.8,51.7,58.8z"/>
<path d="M51.7,52.9H48c-0.9,0-1.6-0.7-1.6-1.6s0.7-1.6,1.6-1.6h3.7c0.9,0,1.6,0.7,1.6,1.6S52.6,52.9,51.7,52.9z"/>
<path d="M51.7,64.5H48c-0.9,0-1.6-0.7-1.6-1.6s0.7-1.6,1.6-1.6h3.7c0.9,0,1.6,0.7,1.6,1.6S52.6,64.5,51.7,64.5z"/>
<path d="M60,58.8h-3.7c-0.9,0-1.6-0.7-1.6-1.6s0.7-1.6,1.6-1.6H60c0.9,0,1.6,0.7,1.6,1.6S60.9,58.8,60,58.8z"/>
<path d="M60,52.9h-3.7c-0.9,0-1.6-0.7-1.6-1.6s0.7-1.6,1.6-1.6H60c0.9,0,1.6,0.7,1.6,1.6S60.9,52.9,60,52.9z"/>
<path d="M60,64.5h-3.7c-0.9,0-1.6-0.7-1.6-1.6s0.7-1.6,1.6-1.6H60c0.9,0,1.6,0.7,1.6,1.6S60.9,64.5,60,64.5z"/>
</svg>