<?xml version="1.0" standalone="no"?>
<!DOCTYPE svg PUBLIC "-//W3C//DTD SVG 1.1//EN" "http://www.w3.org/Graphics/SVG/1.1/DTD/svg11.dtd" >
<svg xmlns="http://www.w3.org/2000/svg">
<metadata></metadata>
<defs>
<font id="typoster_outlineregular" horiz-adv-x="1702" >
<font-face units-per-em="2048" ascent="1638" descent="-410" />
<missing-glyph horiz-adv-x="603" />
<glyph unicode="&#xd;" horiz-adv-x="0" />
<glyph horiz-adv-x="0" />
<glyph horiz-adv-x="0" />
<glyph unicode=" "  horiz-adv-x="603" />
<glyph unicode="&#x09;" horiz-adv-x="603" />
<glyph unicode="&#xa0;" horiz-adv-x="603" />
<glyph unicode="!" horiz-adv-x="636" d="M15 1373h514l-1 -6l148 -147l-76 -937l59 -59v-431h-473l-147 147h-6v437h61zM80 1313l73 -906h237l74 906h-384zM93 0h359v317h-359v-317z" />
<glyph unicode="&#x22;" horiz-adv-x="945" d="M12 1374h826l-1 -6l148 -147l-59 -515h-299l-91 90l-10 -90h-299l-147 147h-6zM80 1314l48 -401h197l46 401h-291zM480 1314l48 -401h197l46 401h-291z" />
<glyph unicode="#" horiz-adv-x="1365" d="M19 599h128l-115 115h-6l-7 356h276q7 36 14.5 76.5l15 81t14.5 79l13 71.5h375l-1 -6l82 -84q5 24 9 47t8 43h373l-1 -6l147 -147l-39 -215l93 -93l7 -350h-128l121 -121l7 -351h-275q-7 -36 -14 -75.5t-14.5 -79t-14.5 -77.5t-13 -70h-369l-90 90q-5 -24 -9 -47t-8 -43 h-367l-147 147h-7l42 215l-87 87h-6zM80 539l5 -237h124l-59 -302h251l57 302h221l-56 -302h253l56 302h265l-5 237h-216l49 235h172l-5 236h-121l55 308h-251l-58 -308h-220l57 308h-252l-57 -308h-265l5 -236h217l-51 -235h-171zM503 539l51 235h220l-50 -235h-221z" />
<glyph unicode="$" horiz-adv-x="1352" d="M7 390l360 45q-18 15 -34 31l-121 121q-38 31 -67.5 71t-48.5 86q-32 78 -32 166q0 28 2.5 55t8.5 53q17 68 49.5 131.5t78.5 108.5q52 51 117 80q42 18 90.5 29.5t108.5 16.5v123h249v-6l147 -147v-6q11 -5 21.5 -9.5t21.5 -9.5q73 -36 133 -111l112 -112 q102 -104 168 -305l-286 -36q19 -15 36 -32.5t32 -36.5l109 -109q-1 2 -2 2.5t-2 2.5l9 -9q75 -75 107 -182q8 -32 13 -65.5t5 -66.5q0 -96 -39 -195q-14 -34 -32 -65t-41 -60q-29 -37 -65.5 -67t-75.5 -52q-92 -49 -224 -64v-175h-243l-147 147h-6v56q-85 25 -143 62 q-30 20 -58 48l-111 110q-73 54 -122 147.5t-78 228.5zM80 338q41 -194 177 -284q117 -76 322 -85v-171h129v171q157 9 254 61q71 38 123 104q40 51 65 112q35 88 35 173q0 59 -16 116q-43 151 -180 222q-94 47 -281 75v255q92 -20 127 -125l310 38q-68 204 -213 275 q-87 44 -224 51v121h-129v-120q-144 -5 -234 -44q-55 -25 -100 -68q-84 -83 -111 -210q-10 -48 -10 -95q0 -74 28 -143q47 -120 160 -174q40 -19 113 -40q65 -19 154 -39v-318q-146 37 -168 184zM460 964v4q0 51 37 86q24 23 82 34v-232q-49 12 -71 26q-45 27 -48 82z M708 196v288q8 -2 14 -4q46 -15 65 -26q53 -35 53 -98q0 -125 -132 -160z" />
<glyph unicode="%" horiz-adv-x="1591" d="M10 1005q0 175 114 286l-5 -6q50 50 109 74.5t134 25.5q140 0 239 -96q9 -9 17 -18.5t16 -19.5l118 -117q14 -15 26.5 -31t23.5 -33l142 300h287l-3 -6l148 -147l-252 -532h13q69 0 129 -23.5t110 -72.5q9 -9 17 -18t16 -19l118 -118q52 -53 78 -121.5t26 -156.5 q0 -178 -107 -283q-96 -95 -241 -95q-141 2 -239 97l-121 121q-15 11 -31 27q-31 31 -51 64l-140 -296h-278l-147 147h-8l255 540h-14q-142 2 -238 96l-122 121q-15 12 -30 27q-109 106 -109 283zM70 1005q0 -150 91 -240q81 -79 199 -80h3q117 0 196 79q91 89 91 241 q0 153 -91 241q-79 79 -196 79h-3q-118 -1 -199 -82q-91 -89 -91 -238zM276 1003q0 83 26 132q24 45 58 45t58 -45q27 -49 27 -132t-27 -132q-24 -44 -58 -44t-58 44q-26 49 -26 132zM363 -2h152l621 1312h-154zM844 306q0 -150 90 -240q83 -80 200 -81h3q116 0 197 79 q90 89 90 242q0 152 -90 240q-81 79 -197 79h-3q-117 0 -200 -80q-90 -89 -90 -239zM1049 304q0 82 27 132q23 44 58 44q34 0 58 -44q27 -49 27 -132q0 -84 -27 -132q-24 -44 -58 -44q-35 0 -58 44q-27 48 -27 132z" />
<glyph unicode="&#x26;" horiz-adv-x="1530" d="M37 366q0 121 70 225h-1q57 88 178 155q-20 29 -35 55.5t-25 46.5q-17 41 -26.5 82t-9.5 82q0 15 1 30t4 30v-1q8 56 36.5 107.5t66.5 89.5q59 53 143.5 83t192.5 32h18q210 0 324 -111q10 -11 19 -20.5t17 -20.5l110 -110l-1 1l3 -2q109 -109 109 -237q0 -62 -25 -125 q-8 -20 -17.5 -39t-20.5 -37l202 -77q-1 -2 -1 -5l147 -147q-15 -66 -31.5 -120t-34.5 -99l120 -119l-232 -320q-31 20 -62 43t-55 43l-2 2q-11 8 -13.5 11t-3.5 4t-2 1t-6 4q-73 -55 -164 -85q-70 -22 -144 -34t-147 -12q-13 0 -27.5 0.5t-28.5 1.5q-106 7 -194.5 38 t-151.5 86l-8 8q-4 3 -7.5 6.5l-7.5 7.5l-116 115q-3 3 -6 5.5t-6 5.5q-121 108 -144 258v-1q-3 16 -4 31.5t-1 31.5zM97 366q0 -26 4 -52q19 -131 124 -223q112 -99 311 -110q27 -2 53 -2q140 0 273 43q107 35 179 103q21 -13 67 -50q48 -40 66 -52l164 225q-14 9 -123 86 q55 110 84 234l-262 100q-15 -90 -42 -153q-100 83 -191 175q148 108 199 239q21 54 21 104q0 106 -92 197q-94 93 -282 93h-17q-197 -4 -296 -98q-70 -66 -85 -163q-4 -26 -4 -50q0 -70 31 -140q27 -62 96 -148q-154 -68 -218 -166q-60 -90 -60 -192zM415 351q0 46 30 104 q20 35 88 89q175 -168 286 -257q-55 -46 -140 -63q-38 -8 -74 -8q-42 0 -80 11q-76 21 -100 75q-10 23 -10 49zM542 1014v8q0 49 31 80q32 30 77 32h6q42 0 73 -26q36 -31 39 -86v-3q0 -86 -129 -163q-95 103 -97 158zM646 279q5 1 10.5 1.5t10.5 2.5h1q8 2 18.5 4t19.5 5 l-25 25q-16 -14 -23 -22t-12 -16z" />
<glyph unicode="'" horiz-adv-x="545" d="M12 1374h426l-1 -6l148 -147l-59 -515h-299l-147 147h-6zM80 1314l48 -401h197l46 401h-291z" />
<glyph unicode="(" horiz-adv-x="826" d="M25 456v14q0 453 341 904h352l-3 -6l148 -147q-115 -259 -171.5 -485.5t-58.5 -427.5v-22q0 -406 233 -895h-350l-147 147h-4q-335 472 -340 918zM85 457q4 -429 310 -859h231q-200 419 -200 838v23q4 409 200 855h-231q-310 -410 -310 -844v-13z" />
<glyph unicode=")" horiz-adv-x="728" d="M-75 -462q235 494 235 898v22q-2 200 -59.5 427.5t-172.5 488.5h352q3 -5 6 -8.5t6 -8.5l137 -136q339 -447 339 -901v-14q-4 -445 -338 -915h-350l-147 147h-8zM20 -402h231q306 430 310 859v13q0 434 -310 844h-231q196 -446 200 -855v-23q0 -419 -200 -838z" />
<glyph unicode="*" horiz-adv-x="870" d="M0 985l101 293q48 -22 77.5 -34.5t44.5 -19.5q12 -5 14.5 -7t4.5 -2q-2 39 -5 76.5t-11 82.5h306q0 -2 -0.5 -3t-0.5 -3l105 -105q11 5 19 9.5t13 6.5l3 -9l145 -145l94 -287q-48 -11 -87 -20t-60 -16l-4 -2q22 -29 45 -57t46 -54l3 -2l-244 -181l-101 100 q-16 -24 -31 -50t-28 -49l-249 182l-139 139l-15 11l53 53l-92 91q-2 1 -3.5 1t-3.5 1zM80 1031q94 -16 191 -49q-5 -5 -134 -136l144 -105q13 24 52 80q31 44 47 82q16 -38 47 -82q38 -55 51 -80l141 105q-14 15 -56 71q-30 38 -63 65q44 8 96 24q56 18 90 25l-54 165 q-29 -14 -91 -41q-55 -23 -90 -41q11 41 12 100q3 78 5 100h-173q4 -28 7 -100q3 -59 12 -100q-6 4 -177 82z" />
<glyph unicode="+" horiz-adv-x="1317" d="M20 416v397h376v398h436v-6l147 -147v-245h231v-6l147 -147v-391h-378v-396h-430l-147 147h-6v249h-223l-147 147h-6zM80 476h376v-396h316v396h378v277h-378v398h-316v-398h-376v-277z" />
<glyph unicode="," horiz-adv-x="625" d="M40 -60v452h478v-6l147 -147v-398l-133 -448h-318l-147 147h-7l67 319l-81 81h-6zM100 0h119l-85 -400h205l119 400v332h-358v-332z" />
<glyph unicode="-" horiz-adv-x="827" d="M20 552v388h700v-6l147 -147v-382h-694l-147 147h-6zM80 612h580v268h-580v-268z" />
<glyph unicode="." horiz-adv-x="1547" d="M100 -397v1710h1335v-1710h-1335zM165 -337h1204v1590h-1204v-1590zM199 443q18 24 50 24h9q28 -5 28 -40q0 -34 -33 -49q-12 -5 -27 -7v-37h-1q-5 0 -14 3v34h-5l-5 1q0 11 5 19h5q0 41 -6 41q-6 7 -6 11zM211 -173q0 5 11 16h3q8 -18 30 -18q18 0 18 20q0 15 -21 18 q-27 0 -32 12q-4 8 -4 12v8q0 34 42 34q24 -5 24 -21v-1q-1 -2 -12 -9h-3q0 7 -13 8h-1q-13 0 -20 -10v-4q0 -6 31 -6q27 -12 27 -38v-5q0 -28 -22 -38q-5 -3 -10 -3h-9q-23 0 -39 25zM222 797v54h17q0 -27 16 -50q9 -8 15 -8h23q8 0 19 16q10 19 10 30v3q-7 46 -31 46 q0 1 -7 1h-23q-30 0 -39 44v81q10 45 40 45h28q30 0 42 -53q2 -23 2 -35v-4h-23v2q-5 34 -20 34h-32q-12 0 -19 -28q6 -28 16 -28q0 -3 14 -3h24q28 0 46 -55q4 -21 4 -50q0 -76 -39 -99q-9 -3 -14 -3h-20q-35 0 -49 60zM224 440q1 -35 1 -47q1 0 1 -2q29 6 37 17q8 10 8 18 q0 18 -15 21h-6q-26 -3 -26 -7zM288 379q0 40 32 53l11 1q23 -4 23 -22v-6q0 -20 -39 -36h-10q0 -11 17 -16q11 0 21 18h4q8 -12 8 -15q-17 -22 -30 -22h-7q-26 0 -30 45zM296 -81h15v9q0 46 5 46l15 -5q-2 -23 -2 -36v-14q13 3 15 3q2 -20 2 -24h-2q-9 -1 -15 -1 q3 -63 5 -91q-12 -2 -17 -2v1q-5 61 -5 88l-2 2h-14v24zM305 390q19 0 33 18v2q-7 2 -9 2q-16 0 -24 -19v-3zM350 -76q17 -5 17 -6v-20q0 -67 12 -67h5q17 19 24 55q5 10 6 38h2q15 -2 15 -6q-3 -42 -3 -59v-10q0 -10 5 -20q0 -6 -10 -18q-12 12 -12 25h-1q-11 -29 -28 -29 h-3q-29 0 -29 93v24zM352 121v4q0 58 45 79l7 2h10q14 0 23 -23q-6 -6 -6 -9h-3q-9 15 -21 15q-17 0 -35 -26q-9 -19 -9 -34v-5q0 -29 24 -35q2 -1 8 -1q31 3 31 20v10q-4 3 -12 3h-10v17q28 0 33 -9q2 -7 2 -9q-2 -25 -2 -29q0 -11 4 -26q-1 0 -8 -5h-1q-4 0 -6 22 q-6 -8 -29 -12h-2q-38 0 -43 51zM357 418q12 2 15 2v-1q0 -4 3 -19h1q10 43 28 43q19 0 28 -49q-1 0 -15 -4q-6 33 -13 33q-17 -9 -20 -75q1 -14 1 -15q-10 -2 -15 -2q-13 69 -13 87zM360 918v56h18v85h22v-85h20v-56h-20v-164q0 -40 19 -52q4 -1 9 -1v-55h-5q-34 0 -44 68 q-1 6 -1 19v185h-18zM432 352v1q1 3 9 11h1q12 -15 28 -15q14 4 14 16q-4 15 -21 15q-28 0 -28 22v3q0 30 37 30q18 -5 18 -17v-1q0 -2 -10 -8h-1q-4 7 -13 7q-13 0 -16 -11q0 -5 29 -6q20 -11 20 -34q0 -25 -20 -34l-8 -2h-5q-24 0 -34 23zM437 -128q0 48 34 58h4 q14 0 29 -16v1q0 8 3 65q1 0 17 -4q-4 -38 -5 -92q0 -34 10 -69q-11 -10 -12 -10h-1q-3 0 -6 13h-2q0 -8 -21 -16q-33 0 -47 42q-3 12 -3 28zM443 658v22q0 9 7 13h11q3 0 5 -10v-3l-8 -2q0 4 -2 4h-1q-2 0 -3 -4v-14v-6h4q2 0 2 5l8 -3v-3q-1 -12 -10 -12q-13 1 -13 13z M443 793v181h23v-149q0 -26 18 -32h24q15 0 18 38v143h22v-237h-22v7q-10 -7 -18 -7h-23q-32 0 -42 56zM446 107v15q0 33 26 46q5 2 15 2q20 -4 20 -20q1 0 1 -2q0 -23 -35 -36q-5 -3 -15 -3v-1q0 -11 17 -17h1q10 0 23 16h3q0 -2 6 -9v-1q-14 -22 -29 -22h-6q-19 0 -27 32z M454 -129v-3q0 -34 30 -40h3q12 0 15 26v3q0 36 -21 48l-6 1h-2q-17 0 -19 -35zM457 125q23 0 39 22q-2 6 -11 6h-3q-19 0 -25 -28zM471 645v66h8v-18h6q10 0 10 -15v-33h-8v30q0 6 -3 7h-2q-3 0 -3 -9v-28h-8zM501 369q0 50 25 65q2 1 11 3q20 0 33 -32q2 -9 2 -17v-3 q0 -36 -35 -53q-5 -1 -9 -1q-27 4 -27 38zM501 660v21q0 9 7 12h6q11 0 11 -24t-14 -24q-10 2 -10 15zM508 660q1 -2 3 -2h2q3 0 3 2v21l-5 1l-3 -4v-18zM513 147v16l11 1h2v18q0 27 3 27q8 -2 10 -2q-2 -29 -2 -42h2l12 2v-17q-1 0 -14 -2l4 -74l-2 -2h-8q-3 29 -5 75h-13z M516 370q2 -18 12 -18h3q24 7 26 35v3q-6 26 -20 26h-2q-13 0 -18 -32q-1 -7 -1 -14zM529 665v10q0 15 8 18h9q8 -4 8 -13v-22q0 -12 -13 -13q-12 0 -12 20zM534 -43q2 14 12 14q9 0 11 -14v-1q0 -11 -8 -16h-7q-8 5 -8 17zM537 -75h12l6 -1q0 -3 -1 -8q1 -67 4 -109h-18 l-1 8q-2 68 -2 110zM537 667q0 -8 4 -9h4l1 6v14q0 2 -4 4h-1q-4 0 -4 -9v-6zM558 660v6h6v1q-6 1 -6 9v6q0 9 6 11h10q4 -5 4 -17h-3q5 -7 5 -15q-1 -16 -11 -16q-11 2 -11 15zM566 -141q0 51 30 69q10 2 11 2q25 0 41 -38q2 -11 2 -17v-9q0 -40 -39 -60q-4 -2 -13 -2 q-27 0 -32 41v14zM566 660q0 -2 3 -2h2q0 3 1 3q-1 3 -1 5h-5v-6zM566 678h4v4h-4v-4zM569 801v111q0 40 30 61l8 1h23q13 0 21 -8v93h21v-322h-21v7q-11 -7 -17 -7h-24q-36 0 -41 64zM575 414q7 2 14 2q3 -17 3 -20h1q7 41 21 41q19 0 36 -89q1 0 1 -7q-8 -7 -12 -7 q-15 62 -23 80q-9 -13 -18 -70q-1 0 -5 -10h-7q-7 0 -9 57q-2 14 -2 23zM583 -147q0 -22 15 -25h4q15 0 29 29q2 4 2 9v9q-7 31 -24 31h-2q-21 0 -24 -53zM584 671v1q0 17 6 21h11q6 -4 6 -11v-15h-14v-7q0 -2 2 -2h3l1 6h8v-4q0 -15 -12 -15q-11 0 -11 26zM590 824 q4 -31 19 -31h24q17 0 18 42v37q0 35 -14 44l-6 2h-22q-19 -6 -19 -32v-62zM592 129v17q6 0 10 2q-3 21 -3 52q3 29 17 29h2q13 0 15 -34v-3l-6 -1h-2q-3 21 -8 21q-6 0 -8 -19q1 -2 1 -4q0 -10 2 -39q5 3 9 3h3v-15l-11 -3q5 -57 5 -69h-11q-4 54 -4 65h-1q-5 -2 -10 -2z M593 680h5q0 2 -2 2h-1q-2 0 -2 -2zM628 666v27h8v-24l1 -11h6l2 6v29h7v-51q0 -10 -7 -14h-9q-6 0 -6 20h3q-5 5 -5 18zM634 168q2 0 11 -3q0 -74 14 -74q19 12 28 66q1 5 1 11h1q3 0 10 -3q-3 -24 -3 -45v-12q0 -9 5 -19q-5 -7 -5 -11h-2q-7 4 -8 26h-2q-4 -15 -19 -29h-9 q-20 0 -20 75v10zM637 642q1 -2 3 -2t5 3v2h-8v-3zM652 353v8q0 30 32 35q11 -1 20 -6v1q-4 25 -17 25q-9 0 -18 -10h-3q-2 1 -8 11v2q12 14 23 14h11q27 -9 27 -45q-1 -21 -1 -35l2 -16q-9 -8 -13 -8h-1l-2 11q-12 -8 -23 -8h-7q-22 3 -22 21zM654 -81h17q0 34 3 55h1 l15 -5q-2 -28 -2 -45v-5q14 3 16 3l1 -14v-10q-16 -1 -16 -2q0 -23 5 -90q-13 -2 -17 -2v1q-5 75 -5 90h-18v24zM658 658v22q0 9 7 13h10q8 -3 8 -18v-10q0 -20 -12 -20q-13 1 -13 13zM666 664l1 -6h4q3 1 3 9v6q0 9 -3 9h-2q-1 0 -3 -4v-14zM667 356q0 -3 10 -6q17 0 25 17 q-8 7 -19 7q-16 -3 -16 -15v-3zM687 669v24h9v-33q1 -2 2 -2h4l1 6v29h8v-48h-10q-14 0 -14 24zM699 737v237h22v-237h-22zM699 1003v56h22v-56h-22zM709 173v39h4h6v-9q0 -61 3 -132h-11q-2 65 -2 102zM710 -105q0 33 3 33q12 -4 15 -4q-1 -23 -1 -34v-6q0 -33 12 -44h5 q22 18 22 72v10h17v-1q8 -89 8 -103v-10q0 -44 -28 -60q-10 -4 -16 -4q-22 0 -29 20q-2 4 -2 9v9q0 15 4 15l14 -7l-1 -8v-4q0 -8 11 -10h4q20 0 25 33q1 4 1 12v20l-1 13h-1q-10 -30 -29 -30h-2q-23 0 -30 50q-1 8 -1 20v9zM716 645v48h17v-11q-8 0 -8 -7v-30h-9zM725 467 v3v6h3l11 -1v-18q2 -70 2 -126l-7 -2h-6q-3 71 -3 138zM733 207v3q0 2 2 2h1h8v-30q0 -32 3 -111h-11q-3 66 -3 136zM748 803v106q0 44 29 64q9 2 20 2h6q28 0 36 -21q13 -17 13 -53v-89q0 -56 -30 -72q-4 -3 -9 -3h-24q-35 0 -41 66zM752 671v1q0 17 7 21h10q8 -3 8 -12 q-5 -3 -9 -3q0 4 -3 4h-2q-1 0 -1 -2v-20q0 -2 1 -2h5v5h3q6 -3 6 -6q0 -11 -14 -12q-11 0 -11 26zM769 825q0 -25 19 -32h24q18 6 18 34v57q0 35 -25 35h-14q-11 0 -16 -10q-6 -10 -6 -23v-61zM781 645v66h8v-18h6q10 0 10 -21v-27h-9v36l-5 1l-2 -4v-33h-8zM782 416v11 q0 25 8 44h4q0 -2 7 -12q-4 -18 -4 -30v-18q0 -44 15 -58h1q21 0 35 117h2q12 -4 13 -4q-6 -58 -6 -86q0 -31 12 -31q2 -16 2 -20h-8q-13 0 -20 32h-1q-11 -28 -27 -28h-5q-20 0 -27 61q-1 4 -1 22zM789 129v17l11 1q-3 46 -3 52q0 30 19 30q12 0 16 -37l-8 -1h-2v1 q0 15 -7 20q-8 -5 -8 -15q0 -8 3 -46v-1q5 3 10 3h1l1 -8v-7q-1 0 -12 -3l2 -3q0 -12 4 -66h-11q0 6 -4 65q-9 -2 -12 -2zM800 -70h5q11 0 11 -3v-2q9 5 19 5q25 0 33 -44q0 -11 1 -14q-3 -52 -31 -64l-8 -1h-10l1 -8q0 -6 1 -40h-17q-5 132 -5 171zM809 661q0 9 4 14v1h-3 v6q0 9 5 11h9q8 0 8 -22v-10q2 -8 2 -9l-2 -8h-3q-2 0 -2 2q-4 -2 -7 -2h-2q-9 5 -9 17zM816 -102q0 -3 3 -67l7 -1q22 0 26 42q-3 34 -17 34h-1q-10 0 -18 -8zM818 660q0 -3 2 -3t2 3v6h-2q-2 0 -2 -2v-4zM818 678h4v4h-2q-2 0 -2 -2v-2zM833 108v4q0 41 19 57q8 5 14 5 q23 0 34 -38v-14q0 -34 -34 -50l-7 -1q-16 0 -24 20q-2 11 -2 17zM837 645v48h16v-11q-8 0 -8 -8v-29h-8zM843 112q2 -23 15 -23h1q16 0 27 25q3 8 3 11q-6 31 -22 31h-4q-15 0 -20 -44zM858 658v7q0 7 4 11h-4v5q2 12 5 12h11q6 -2 6 -15v-17q0 -4 3 -6q-2 -11 -4 -11h-3 q0 2 -1 2q-4 -2 -7 -2q-9 0 -10 14zM865 1003v56h138v-56h-59v-266h-22v266h-57zM866 663l1 -6h1q3 1 3 9h-3q-2 0 -2 -2v-1zM866 678h5v4h-3q-2 0 -2 -2v-2zM871 352v1q8 11 10 11h1q12 -15 27 -15q14 4 14 16t-16 15q-25 0 -30 11q-2 11 -2 14q0 30 37 30q13 0 20 -18v-1 q-11 -7 -14 -7q0 6 -11 7q-12 0 -17 -10v-1q0 -5 29 -6q19 -9 19 -36q0 -26 -24 -34h-8q-23 0 -35 23zM873 -146q0 54 30 74q11 2 12 2q23 0 39 -35q4 -13 4 -24q0 -43 -38 -65q-8 -2 -14 -2q-22 0 -31 27q-2 12 -2 23zM886 672q0 17 6 21h11q6 -3 6 -12q-4 -3 -8 -3 q0 4 -3 4h-1q-2 0 -2 -2v-20q0 -2 2 -2h3q1 0 1 5h3q5 -3 5 -6q0 -12 -12 -12q-11 0 -11 27zM890 -147v-5q0 -17 15 -20h2q16 0 30 26q4 8 4 18q-6 34 -28 34q-19 0 -23 -53zM905 151l8 2h2q3 -16 3 -33h1q9 54 24 54t34 -94h-1q-5 -4 -9 -4q-15 67 -24 79q-7 -7 -23 -79 l-2 -1h-4q-6 0 -9 76zM913 682v11h3v18h8v-18h5v-11h-5v-16q0 -8 6 -8v-13h-1q-10 0 -13 18v19h-3zM935 660v21q0 9 7 12h6q10 0 10 -12v-14h-15v-7q0 -2 2 -2h2q3 0 3 6h9q0 -19 -14 -19q-10 2 -10 15zM941 378q0 40 30 54l12 1q24 -4 24 -23q0 -29 -42 -41h-7v-2 q7 -14 16 -14q10 0 23 18h1q1 0 9 -12q0 -9 -21 -22q-4 -3 -9 -3h-7q-24 0 -29 44zM944 680h6v1l-5 1zM958 390h3q17 0 31 19q-6 3 -9 3h-3q-16 0 -22 -21v-1zM964 645v48h16v-11q-9 0 -9 -8v-29h-7zM966 -178q1 17 11 17q9 0 12 -14v-5q-3 -13 -12 -13t-11 15zM979 147l1 8 v8l11 1h1v1q0 21 2 44q3 0 12 -2q-3 -13 -3 -29v-13h3l12 2v-17h-3l-12 -2l5 -74l-5 -2h-6q-3 62 -3 75h-15zM990 646v56h57q27 0 27 35v6q-9 -8 -29 -8h-4q-31 0 -40 23q-11 15 -11 67v149h22v-140q0 -42 23 -42h16q19 0 23 32v150h22v-253q-2 -66 -37 -75h-69zM996 -149 q0 34 19 64q12 12 18 12h8q6 0 15 -9q11 -12 11 -18q-11 -13 -12 -13q-11 15 -18 15h-2q-12 -5 -18 -28l-4 -21q0 -22 14 -24h3q11 0 34 16h1q6 -20 6 -22q-25 -18 -47 -18q-23 0 -28 46zM1044 372v9q0 50 40 88q8 2 10 2h6q12 0 28 -28q12 -22 12 -44v-9q0 -37 -40 -58 q-7 -3 -14 -3h-7q-30 0 -35 43zM1058 92v8q3 32 30 32q12 0 21 -8v3q0 25 -18 29h-3q-6 0 -17 -8h-1q-1 0 -6 7v2q10 13 19 13h11q16 0 24 -28q2 -16 3 -18q-1 -6 -3 -26q2 -4 2 -23l-6 -4h-3l-3 12q-10 -11 -25 -11h-4q-21 3 -21 20zM1059 373q0 -21 25 -24q22 0 37 27 q5 8 5 18v3q0 27 -26 53q-3 0 -3 2q-17 0 -35 -50q-3 -11 -3 -21v-8zM1068 97q3 -8 11 -8h6q14 0 22 18q-9 8 -17 8h-2q-20 -3 -20 -18zM1076 -141q0 51 30 69q10 2 11 2q24 0 39 -35q4 -8 4 -19v-8q0 -43 -39 -62q-4 -2 -13 -2q-28 0 -32 41v14zM1092 -147q0 -25 17 -25h3 q14 0 29 30q2 6 2 10v7q-8 31 -25 31h-1q-20 0 -25 -53zM1117 652v322h21v-7q9 7 17 7h23q36 0 42 -68v-87q0 -60 -28 -76q-5 -3 -17 -3h-13q-15 0 -24 6v-94h-21zM1126 147v16l11 1h1l2 45q3 0 12 -2q-2 -18 -2 -34v-8h2l12 2v-8v-9q-1 0 -14 -2v-6q0 -15 4 -68l-2 -2h-9 l-4 75h-13zM1138 825q0 -27 22 -30h13q17 0 23 17q1 10 1 15v59q-2 33 -19 33h-18q-18 0 -22 -29v-65zM1144 414q6 2 15 2q1 -19 1 -22h1q7 43 24 43q16 0 35 -96q-9 -7 -13 -7q-15 66 -24 80q-6 -12 -19 -74q-3 -6 -4 -6h-6q-7 0 -10 80zM1164 -88q13 6 17 6q2 -8 4 -31h2 q9 43 24 43q17 0 27 -58h1q8 58 27 58h1q24 0 40 -118h-2q-11 -5 -13 -5h-1q-19 98 -25 98q-10 -22 -17 -82q-3 -10 -10 -10q-8 0 -11 15q-13 76 -19 76q-16 -58 -16 -93q-10 -4 -17 -4v1zM1223 458q1 12 1 18h1l14 -1q-1 -9 -1 -13q0 -55 3 -131l-11 -2h-4q-2 58 -3 129z M1240 801v108q0 44 30 64q9 2 20 2h6q28 0 36 -21q8 -9 8 -19v-157q-11 -41 -35 -41h-23q-35 0 -42 64zM1247 388v17q0 10 2 29q13 -2 14 -2q-1 -18 -1 -26v-9q2 -35 13 -35h1q18 13 18 67h15v-3q7 -78 7 -88q0 -46 -30 -56h-5h-5q-18 0 -23 19q-1 5 -1 10q0 15 3 15h1 q9 -6 12 -6l-1 -9q0 -8 9 -9h2q23 0 23 42q0 5 -1 21h-1q-8 -24 -26 -24h-1q-19 0 -25 47zM1262 825q0 -25 19 -32h24q18 6 18 34v57q0 35 -25 35h-14q-12 0 -16 -10q-6 -10 -6 -23v-61z" />
<glyph unicode="/" horiz-adv-x="714" d="M-52 -460l326 1834h334l-1 -6l147 -147l-327 -1828h-325l-147 147h-7zM20 -400h209l307 1714h-211z" />
<glyph unicode="0" horiz-adv-x="1271" d="M20 658q0 334 114 507l4 4q144 216 462 216q279 0 420 -178l114 -113q177 -177 177 -581q0 -334 -110 -513q-141 -227 -460 -227q-247 0 -387 140l-111 111q-223 172 -223 634zM80 658q0 -678 511 -678q288 0 412 200q101 163 101 483q0 662 -504 662q-286 0 -413 -190 q-107 -162 -107 -477zM416 657q0 199 55 313q49 100 116 100h4q71 -3 121 -109q54 -118 54 -314q0 -187 -54 -300q-50 -102 -121 -105h-3q-69 0 -117 100q-55 115 -55 315zM623 507q0 -48 2.5 -91t9.5 -80q6 8 11.5 17t11.5 20q21 50 34.5 121.5t13.5 152.5q0 49 -4.5 94 t-12.5 85q-9 -12 -17 -31q-23 -51 -36 -124t-13 -164z" />
<glyph unicode="1" horiz-adv-x="905" d="M66 769v382q52 9 104 49q55 40 117 173h369v-6l147 -147v-863l142 -142v-422h-721l-147 147h-6v428h141v262l-141 140q-2 0 -2.5 -0.5t-2.5 -0.5zM126 850q107 32 146 60v-602h-141v-308h607v308h-142v1005h-270q-53 -112 -119 -160q-64 -49 -81 -52v-251z" />
<glyph unicode="2" horiz-adv-x="1346" d="M-18 846q20 141 75.5 246.5t140.5 170.5q78 57 170.5 87.5t198.5 32.5h46q211 0 360 -103q57 -40 98 -91l115 -115q112 -113 113 -284q0 -149 -113 -292h53v-6l147 -147v-552h-1228l-147 147h-6q0 6 1.5 23.5t3 39.5l3 44t2.5 36q2 18 3 35t3 29q0 2 0.5 5t0.5 5t2 6 q1 2 1 4l-1 -1q17 99 62 169q98 146 366 348q5 4 10.5 7.5t10.5 8.5h-338l-147 147h-6zM50 906h364q14 71 67 117q47 42 108 48q8 1 16 1q50 0 84 -30q45 -39 45 -112q0 -55 -44 -116q-45 -62 -202 -179q-258 -193 -352 -334q-39 -59 -53 -145q-3 -28 -8 -77q-4 -57 -6 -79 h1110v438h-308v-144h-331q34 41 137 117q142 105 184 141q231 194 231 388v2q-1 184 -153 289q-133 92 -326 92h-45q-193 -5 -334 -108q-157 -115 -184 -309z" />
<glyph unicode="3" horiz-adv-x="1278" d="M-43 198l411 212q2 -3 2.5 -5.5t2.5 -5.5l101 -101q8 -3 17 -5t20 -2q20 -1 41 0t45 4q19 4 35.5 12t28.5 18q17 19 23 44q-27 -2 -72 -7t-111 -12l-148 147h-5v369l-198 138l-141 140l-13 10q51 49 91.5 82.5t69.5 51.5q161 97 365 101h90q96 0 179 -23t150 -68 q45 -32 78 -72l131 -130q102 -102 102 -260q0 -71 -29 -133t-80 -113l74 -73q5 -5 9.5 -10.5t9.5 -10.5q82 -97 82 -237q-1 -110 -43 -197t-125 -155q-146 -117 -365 -131q-11 -1 -42 -1.5t-79 -0.5q-186 0 -340 83q-33 18 -67.5 44t-69.5 62l-114 113q-29 26 -58 56.5 t-58 65.5zM50 178q59 -72 151 -121q142 -76 313 -76q94 0 117 2q201 12 333 118q146 118 147 308v2q0 119 -68 198q-65 75 -183 105q185 102 185 272t-138 263q-119 80 -295 80h-89q-186 -5 -334 -93q-57 -34 -99 -75l251 -175q18 51 66 74q38 18 87 24q18 2 36 2 q19 0 37 -2q52 -8 84 -34q37 -24 37 -85q0 -62 -47 -107q-46 -46 -120 -46q-91 0 -113 4v-252q118 13 160 13q57 0 100 -24q79 -47 79 -164q0 -60 -42 -105q-40 -38 -101 -49q-50 -6 -95 -4q-48 1 -87 25q-56 25 -80 73z" />
<glyph unicode="4" horiz-adv-x="1303" d="M20 181v369l388 823h445l-3 -6l148 -147l-184 -392h220v-6l147 -147v-96h15v-6l147 -147v-392h-162v-241h-426l-147 147h-6v94h-429l-147 147h-6zM80 241h582v-241h312v241h162v278h-162v249h-312v-249h-274l370 794h-312l-366 -777v-295z" />
<glyph unicode="5" horiz-adv-x="1320" d="M-2 406h495l3 -9l99 -99h14q21 -1 37 5q20 8 33 16t22 17h-1q31 48 31 106v12t-1 11q-33 -11 -72 -46h-456l-147 147h-6l99 806h925v-6l147 -147v-391h-161q4 -4 7.5 -7t7.5 -7q11 -11 20.5 -22t18.5 -22l112 -111q135 -135 135 -333q0 -251 -177 -401 q-164 -135 -411 -135q-287 0 -452 165l-116 116q-141 118 -206 335zM80 346q106 -349 542 -349q228 0 375 122q156 132 156 357q0 177 -121 295q-107 104 -281 117q-23 1 -48 1q-135 0 -257 -57l32 203h535v277h-811l-85 -686h370q57 51 130 53h5q74 0 120 -58 q49 -63 49 -179q0 -81 -43 -143q-28 -31 -80 -52q-29 -10 -60 -9q-34 0 -71 11q-59 25 -85 97h-372z" />
<glyph unicode="6" horiz-adv-x="1306" d="M20 647q0 374 163 555q162 183 453 183q132 0 230 -40q101 -41 171 -122q2 -4 5 -7t6 -7l116 -116l10.5 -10.5t10.5 -11.5q33 -40 64.5 -107t58.5 -159h-254q4 -5 7.5 -8.5t6.5 -8.5l105 -105q-1 2 -2 2.5t-2 1.5l12 -11q55 -55 95 -129q34 -66 52 -135.5t18 -136.5 q0 -99 -37 -195q-58 -154 -219 -234q-134 -67 -313 -67h-28q-244 9 -393 158l-114 114q-89 72 -146 185q-76 157 -76 411zM80 647q0 -243 70 -385q131 -266 450 -276h27q165 0 288 61q140 69 191 203q33 87 33 175q0 122 -64 246q-112 217 -329 217h-13q-181 -6 -300 -145v6 q0 178 55 277q55 85 124 86h3q68 0 99 -100h368q-30 102 -90 172q-59 69 -148 105t-208 36q-262 0 -408 -163q-148 -164 -148 -515zM457 433q0 106 56 166q48 54 118 54h4q73 -1 123 -59q56 -64 56 -171q0 -112 -56 -165q-47 -43 -114 -43h-9q-72 3 -122 54q-56 56 -56 164z M664 276q29 4 53 25q37 37 37 122v9.5t-1 9.5q-26 -7 -48 -32q-41 -44 -41 -127v-7z" />
<glyph unicode="7" horiz-adv-x="1256" d="M-10 800v574h1159v-6l147 -147v-329q-186 -170 -268 -320q-48 -89 -81 -177.5t-50 -179.5q-8 -44 -18.5 -149t-24.5 -273h-478l-147 147h-6q27 204 57 357.5t62 254.5q8 25 17 50t19 51h-235l-147 147h-6zM50 860h308v166h293q-169 -232 -252 -492q-62 -193 -107 -534 h359q22 283 40 376q36 189 137 373q86 157 261 318v247h-1039v-454z" />
<glyph unicode="8" horiz-adv-x="1309" d="M-10 343q0 74 31 153q26 63 65 115.5t93 89.5l-12 11q-69 56 -104 121.5t-35 140.5q0 202 179 316q151 97 389 97t389 -98q68 -46 110 -102l112 -111q104 -104 104 -255q0 -137 -151 -264l57 -57q62 -63 97 -142q17 -40 26 -80t9 -78q0 -94 -47 -178h-1 q-65 -119 -214 -183q-132 -56 -323 -61h-27q-173 0 -299 45q-116 43 -186 113l-116 115q-48 37 -81 87q-31 47 -48 100t-17 105zM50 343q0 -90 55 -171q63 -94 203 -145q118 -42 279 -42h27q176 4 301 57q133 57 187 158q40 73 40 150q0 66 -30 135q-62 142 -210 213 q202 135 202 273q0 168 -152 267q-137 89 -356 89q-218 0 -356 -88q-152 -97 -152 -265q0 -163 213 -276q-161 -62 -224 -224q-27 -67 -27 -131zM407 395q0 96 53 152q46 48 134 48h2q89 0 137 -50q53 -56 53 -149q0 -90 -53 -132q-48 -38 -137 -38q-88 0 -136 38 q-53 42 -53 131zM426 945v8q4 74 51 116q44 39 124 39q80 -1 120 -40q41 -41 41 -108v-10q-3 -72 -52 -112q-42 -36 -120 -36h-3q-80 1 -120 38q-41 40 -41 105zM617 286q53 5 78 25q28 23 31 76q-51 -5 -75 -30h-1q-26 -27 -33 -71z" />
<glyph unicode="9" horiz-adv-x="1282" d="M20 854q0 53 10 105.5t31 106.5q31 80 80 141.5t118 103.5q129 78 308 78h25q141 -5 249 -55.5t185 -144.5l110 -110q63 -63 109 -153q38 -78 57.5 -181.5t19.5 -231.5q0 -376 -163 -557q-165 -183 -455 -183q-130 0 -230 39q-87 37 -153 103l-109 108q-17 14 -32.5 28.5 t-29.5 31.5q-33 41 -65 109.5t-60 162.5h271l-127 127q-5 5 -9 9.5t-9 9.5q-23 24 -42 52t-34 60q-27 59 -41 118.5t-14 122.5zM80 854q0 -109 50 -215q99 -206 326 -218q19 -1 36 -1q171 0 276 100q0 -98 -42 -200q-19 -45 -57 -71q-36 -19 -60 -18h-10q-93 0 -123 64h-371 q30 -104 90 -173q60 -70 150 -107q90 -35 209 -35q264 0 413 164q148 165 148 519q0 244 -71 388q-131 268 -453 278h-24q-160 0 -276 -70q-120 -74 -174 -214q-37 -97 -37 -191zM249 423q2 -4 3 -5q56 -31 118 -44q-32 8 -62.5 20t-58.5 29zM395 888q0 113 56 177 q48 53 115 53h9q73 -2 124 -63q57 -67 57 -176q0 -106 -57 -168q-50 -54 -121 -54h-3q-73 2 -124 60q-56 63 -56 171zM602 719q31 8 53 33q41 44 41 127q0 8 -0.5 15t-1.5 14q-27 -6 -51 -31q-41 -49 -41 -139v-19z" />
<glyph unicode=":" horiz-adv-x="625" d="M40 -60v452h147l-141 141h-6v452h478v-6l147 -147v-446h-147l147 -147v-446h-472l-147 147h-6zM100 0h358v332h-358v-332zM100 593h358v332h-358v-332z" />
<glyph unicode=";" horiz-adv-x="625" d="M40 -60v452h147l-141 141h-6v452h478v-6l147 -147v-446h-147l147 -147v-398l-133 -448h-318l-147 147h-7l67 319l-81 81h-6zM100 0h119l-85 -400h205l119 400v332h-358v-332zM100 593h358v332h-358v-332z" />
<glyph unicode="&#x3c;" horiz-adv-x="862" d="M20 525v340l735 478v-9l147 -147v-484l-218 -124q19 -11 36.5 -20.5t34.5 -19.5v-5l147 -147v-484l-729 474l-139 138zM80 558l615 -400v347l-334 192l334 189v346l-615 -400v-274z" />
<glyph unicode="=" horiz-adv-x="1027" d="M20 252v388h18l-12 12h-6v388h900v-6l147 -147v-382h-18l18 -18v-382h-894l-147 147h-6zM80 312h780v268h-780v-268zM80 712h780v268h-780v-268z" />
<glyph unicode="&#x3e;" horiz-adv-x="862" d="M20 47v492l218 126q-33 17 -65 37l-142 142q-8 4 -11 6v493l735 -478v-5l147 -147v-336l-729 -474l-148 147zM80 158l615 400v274l-615 400v-346l334 -189l-334 -192v-347z" />
<glyph unicode="?" horiz-adv-x="1178" d="M-20 922q21 109 60 191t96 137q139 133 410 133q216 0 347 -92q50 -37 88 -84l113 -113q38 -38 64.5 -83.5t41.5 -99.5h1q17 -60 17 -115q0 -42 -11 -85.5t-29 -81.5q-9 -17 -27 -39t-43.5 -48.5t-58 -56t-68.5 -59.5q-90 -78 -102 -195l9 -8v-432h-473l-147 147h-6v438 h13v63q0 151 83 263q1 2 2 3.5t3 3.5l-229 65l-145 145zM50 965l316 -89q1 79 55 132q50 48 113 48h2q98 0 106 -86q1 -9 1 -18q0 -70 -58 -117q-138 -115 -179 -169q-71 -95 -71 -227v-33h336q0 111 124 214q154 127 182 184q34 69 34 142q0 48 -15 99q-35 123 -138 198 q-112 80 -312 80q-248 0 -368 -116q-99 -96 -128 -242zM322 -2h359v318h-359v-318z" />
<glyph unicode="@" horiz-adv-x="1764" d="M31 612q1 230 105 430q107 202 297 325q203 129 460 129q324 0 545 -206q20 -21 46 -51l107 -106q205 -206 205 -523q0 -192 -81 -351q-38 -72 -97 -136l42 -11l-4 -4l148 -149q-127 -133 -185 -175q-115 -81 -262 -131q-154 -51 -323 -51q-239 0 -434 108 q-95 53 -168 126l-102 102q-116 96 -188 231q-111 204 -111 443zM90 609q0 -221 104 -412q103 -187 283 -288q182 -101 407 -101q163 0 304 48q138 46 249 124q58 43 112 100l-160 44q-115 -87 -244 -132q-127 -45 -265 -45q-309 0 -483 212q-151 181 -151 442v21 q6 272 170 464q181 210 478 210q251 0 399 -144q149 -144 149 -394q0 -152 -54 -259q-61 -119 -140 -164q-49 -26 -89 -26h-5q-44 3 -44 41q0 10 1 15l104 649q-23 50 -83 85q-53 29 -95 29h-5q-4 -18 -9 -47q-5 -31 -9 -46q-57 116 -191 121h-14q-229 0 -342 -237 q-71 -152 -71 -319q0 -54 8 -118q20 -142 87 -228q75 -99 199 -108q6 -1 19 -1q111 0 220 101q27 -127 140 -127h13q94 4 210 83q156 104 223 233q75 147 75 325q0 301 -193 488q-194 189 -504 189q-238 0 -427 -120q-177 -113 -277 -303q-97 -187 -99 -402v-3zM576 601 q0 31 5 69q16 127 82 213q70 94 171 94q62 0 94 -32q39 -39 39 -139q0 -136 -38 -282q-52 -207 -155 -217q-5 -1 -17 -1q-104 0 -152 132q-29 81 -29 163zM782 451q0 -32 7 -77q49 29 83 165q28 110 34 207q-27 -19 -48 -47q-55 -71 -71 -186q-5 -37 -5 -62zM1271 1049 l65 -68q-14 33 -23 47q-9 5 -42 21z" />
<glyph unicode="A" d="M10 -60v429h152q35 72 64.5 134.5t58.5 124.5q31 65 61.5 129t65.5 138l-48 50h-6v429h709l3 -8l145 -145l333 -852h47v-6l147 -147v-423h-722l-132 132v-132h-725l-147 147h-6zM70 0h611v309h-111l56 149h368l46 -149h-113v-309h608v309h-116l-393 1005h-608v-309h113 l-331 -696h-130v-309zM707 692q76 206 102 293q24 -91 102 -293h-204zM853 251l14 -14v14h-14z" />
<glyph unicode="B" horiz-adv-x="1547" d="M10 948v426h969q150 0 259 -104q15 -15 30 -35l124 -123q102 -102 102 -246q0 -147 -108 -251h-1q-3 -3 -10 -9l-9 -9l101 -101q120 -120 120 -287q0 -172 -126 -295q-127 -121 -302 -121h-995l-147 147h-6v426h148v439l-143 143h-6zM69 1008h149v-701h-148v-308h939 q153 0 263 105q109 107 109 255t-109 253q-110 106 -263 106h-30q128 0 218 88q91 87 91 211q0 123 -91 210q-90 88 -218 88h-910v-307zM599 266v252h275q60 0 92 -31q31 -25 37 -80v-7q0 -50 -26 -87q-35 -47 -93 -47h-285zM599 825v197h232q46 0 72 -31q23 -28 23 -72 q0 -34 -23 -62q-27 -32 -72 -32h-232z" />
<glyph unicode="C" horiz-adv-x="1562" d="M20 655q0 305 223 520q220 214 534 214q192 0 363 -91q6 21 12.5 41.5t10.5 34.5h292v-6l147 -147v-590h-422l-147 147h-5q-2 5 -5 8.5t-5 8.5q-20 7 -42.5 11.5t-44.5 4.5q-37 0 -79 -13l-1 1q-83 -25 -119 -95q-46 -84 -46 -199q0 -39 4.5 -75t15.5 -68 q20 -6 38.5 -8.5t36.5 -2.5q47 0 89 18q43 14 95.5 56.5t117.5 112.5l373 -218q-1 -1 -1.5 -2t-1.5 -2l148 -147q-66 -100 -144 -177t-158 -124q-86 -47 -179.5 -71t-192.5 -24q-314 0 -532 214l-114 113q-9 8 -18.5 17t-18.5 18q-224 212 -224 520zM80 655q0 -280 205 -477 q203 -198 492 -198q185 0 344 88q155 86 249 232l-276 162q-108 -116 -202 -149q-54 -22 -111 -22q-46 0 -96 16q-106 32 -153 122q-53 96 -53 226t53 226q47 89 153 122q49 15 96 15q57 0 111 -21q109 -43 172 -159h331v476h-187l-31 -106q-27 18 -56 34q-159 87 -344 87 q-289 0 -492 -197q-205 -198 -205 -477z" />
<glyph unicode="D" horiz-adv-x="1630" d="M20 -60v429h148v434l-142 142h-6v429h753q308 -1 529 -210q17 -17 33.5 -34t30.5 -35l84 -83q-1 0 -1 0.5t-1 0.5l14 -13q208 -207 208 -493q0 -143 -58.5 -272.5t-161.5 -232.5q-108 -98 -243 -153.5t-284 -55.5h-750l-147 147h-6zM80 0h693q286 0 488 193 q202 192 202 464t-202 464t-488 193h-693v-309h148v-696h-148v-309zM608 294v726h165q134 0 236 -116q98 -111 98 -247t-98 -247q-102 -116 -236 -116h-165zM815 358q82 17 149 92q37 45 60 99.5t23 107.5q0 34 -10 69.5t-28 68.5q-42 18 -86 18h-108v-455z" />
<glyph unicode="E" horiz-adv-x="1302" d="M20 945v429h1175v-6l147 -147v-486h-153l3 -3v-301h3v-6l147 -147v-485h-1168l-147 147h-6v429h148v433l-143 143h-6zM80 1005h149v-696h-148v-309h1054v371h-218v-85h-308v262h376v277h-376v196h308v-79h218v372h-1055v-309z" />
<glyph unicode="F" horiz-adv-x="1302" d="M20 945v429h1175v-6l147 -147v-486h-153l3 -3v-391h-368l125 -125v-423h-775l-147 147h-6v429h148v433l-143 143h-6zM80 1005h149v-696h-148v-309h661v309h-133v239h376v277h-376v196h308v-79h218v372h-1055v-309z" />
<glyph unicode="G" horiz-adv-x="1716" d="M22 650q0 305 220 519t531 214q194 0 354 -85q11 -5 23 -10.5t23 -10.5l1 -1q2 6 3 10q5 23 10.5 48t9.5 40h295v-6l147 -147v-519l117 -117v-377h-107v-415h-402l-38 38q-111 -62 -280 -62h-6q-310 0 -529 213l-109 108q-23 19 -43 40q-220 214 -220 520zM82 650 q0 -279 202 -476.5t489 -197.5h6q269 0 375 169v-145h288v415h107v263h-689v-263h171q-60 -126 -241 -126q-135 0 -225 106.5t-90 257.5t90 257.5t225 106.5t231 -106q19 -22 35 -46h376v449h-187l-30 -128q-27 17 -56 32q-28 14 -57 26q-148 79 -329 79q-287 0 -489 -197 t-202 -476zM682 503q0 -78 25 -138q38 -16 83 -16h21l-5 6h-6v383h296l-48 48q-50 24 -108 24q-108 0 -181 -87q-77 -92 -77 -220z" />
<glyph unicode="H" horiz-adv-x="1668" d="M20 -60v428h148v436l-142 142h-6v428h1541v-6l147 -147v-422h-130v-455l129 -129v-422h-1534l-147 147h-6zM80 0h653v308h-125v250h384v-250h-145v-308h653v308h-129v698h130v308h-653v-308h144v-161h-384v161h125v308h-653v-308h148v-698h-148v-308z" />
<glyph unicode="I" horiz-adv-x="901" d="M20 945v429h773v-6l147 -147v-423h-136v-446l137 -137v-422h-767l-147 147h-6v428h136v446l-131 131h-6zM80 1005h137v-697h-136v-308h653v308h-137v697h136v309h-653v-309z" />
<glyph unicode="J" horiz-adv-x="1323" d="M-76 368l433 115v-7l126 -126h4q22 0 40 5t32 13v-1q24 17 26 45v397l-136 136h-6v429h773v-6l147 -147v-423h-130v-495q0 -116 -37 -209h-1q-36 -97 -113 -166q-74 -67 -187 -105q-126 -43 -249 -43q-109 0 -214 35q-112 38 -194 120l-111 110q-134 109 -203 323zM0 326 q74 -231 300 -307q95 -32 196 -32q112 0 231 40q101 33 167 93q67 61 99 145q33 84 33 188v552h130v309h-653v-309h142v-593q-1 -59 -54 -95q-43 -27 -104 -27h-15q-67 4 -118 37q-54 36 -55 79z" />
<glyph unicode="K" horiz-adv-x="1820" d="M20 -60v428h148v436l-142 142h-6v428h773v-6l33 -33v39h773v-6l147 -147v-422h-173q-33 -23 -59 -41t-50.5 -35.5t-51.5 -36t-61 -42.5l244 -275h118v-6l147 -147v-423h-767l-147 147h-6v-147h-767l-147 147h-6zM80 0h653v308h-108v89l229 169l211 -257h-65v-309h653v309 h-98l-440 495l291 202h133v308h-653v-308h66l-327 -232v232h108v308h-653v-308h148v-698h-148v-308zM892 262l48 -47v83z" />
<glyph unicode="L" horiz-adv-x="1383" d="M20 -60v428h149v436l-142 142h-6v428h773v-6l147 -147v-422h-125v-436h58v154h402v-6l147 -147v-571h-1250l-147 147h-6zM80 0h1136v457h-282v-154h-325v703h125v308h-653v-308h148v-698h-149v-308z" />
<glyph unicode="M" horiz-adv-x="2148" d="M20 -60v428h149v435l-143 143h-6v428h753q1 -2 1 -4t1 -4l146 -145q55 -169 94.5 -290.5t68.5 -212.5q40 135 91 298t114 358h752v-6l147 -147v-422h-148v-431h1v-6l147 -147v-422h-713l-30 30q-2 -8 -3.5 -15t-3.5 -15h-514l-44 44v-44h-707l-147 147h-6zM80 0h593v298 h-90v514q88 -228 235 -812h426q147 584 235 812v-514h-97v-298h599v308h-148v698h148v308h-649q-240 -741 -301 -1034q-61 293 -301 1034h-650v-308h149v-698h-149v-308z" />
<glyph unicode="N" horiz-adv-x="1761" d="M20 -60v428h148v436l-142 142h-6v428h773v-6l87 -87v93h774v-6l147 -147v-423h-130v-452l130 -130v-423h-1628l-147 147h-6zM80 0h653v308h-150v524l308 -523h-51v-309h754v309h-130v696h130v309h-654v-309h169v-462l-376 643v128h-653v-308h148v-698h-148v-308z" />
<glyph unicode="O" horiz-adv-x="1611" d="M-10 655q0 305 223 520q220 214 534 214t534 -214q15 -15 29 -30t28 -31l103 -103q210 -212 210 -506q0 -306 -223 -517l1 -1q-220 -214 -532 -214q-314 0 -532 214l-114 113q-9 8 -18.5 17t-18.5 18q-224 212 -224 520zM50 655q0 -280 205 -477q203 -198 492 -198 t492 198q205 197 205 477q0 279 -205 477q-203 197 -492 197t-492 -197q-205 -198 -205 -477zM473 655q0 168 86 268q77 89 188 89q112 0 189 -89q86 -100 86 -268q0 -169 -86 -268q-77 -90 -189 -90q-111 1 -188 90q-86 99 -86 268zM680 505q0 -40 4.5 -74.5t15.5 -64.5 q24 -9 47 -9q85 0 144 69q71 82 71 229q0 81 -23 145q-11 2 -21 3.5t-21 1.5q-42 0 -79 -18t-66 -51q-72 -86 -72 -231z" />
<glyph unicode="P" horiz-adv-x="1538" d="M20 -60v428h148v436l-142 142h-6v428h880q123 0 219 -22.5t157 -63.5q40 -29 68 -66l125 -124q109 -109 109 -316v-14q-2 -146 -45.5 -244.5t-126.5 -150.5q-122 -73 -378 -73h-173l85 -85v-422h-767l-147 147h-6zM80 0h653v308h-125v199h270q241 0 348 65 q140 87 145 347v13q0 218 -129 307q-108 75 -342 75h-820v-308h148v-698h-148v-308zM608 788v233h299q44 0 70 -36q24 -30 24 -71q0 -39 -24 -80q-27 -46 -70 -46h-299z" />
<glyph unicode="Q" horiz-adv-x="1718" d="M17 655q0 306 224 520q219 214 533 214t534 -214q35 -35 58 -63l101 -101q211 -212 211 -506q0 -97 -22 -181l102 -101v-430h-148q-121 0 -277 63q-16 7 -29 15q-171 -98 -380 -98q-313 0 -532 215l-3 3q-3 2 -6 5q-4 3 -5 5l-100 99q-13 11 -37 35q-224 211 -224 520z M78 655q0 -281 205 -477q202 -197 491 -197q212 0 379 108q23 -15 55 -30q142 -58 252 -58h90v307q-48 -5 -78 -5q-48 0 -91 19q89 149 89 333q0 279 -204 476q-203 197 -492 197t-491 -197q-205 -197 -205 -476zM478 655q0 167 87 268q79 88 191 88q113 0 191 -88 q86 -101 86 -268q0 -64 -12 -116q-41 27 -83 27h-63q-26 0 -86 -18q-11 -5 -13 -5v-133l23 2h13q29 0 66 -20q19 -13 35 -38q-67 -57 -157 -57q-113 2 -191 90q-87 99 -87 268zM686 505q0 -79 21 -139q6 -2 8 -2v223l40 13l3 3q79 24 117 24h63q16 0 33 -3v15q1 10 1 16 q0 76 -24 143q-28 6 -42 6q-84 0 -147 -69q-73 -85 -73 -230z" />
<glyph unicode="R" horiz-adv-x="1691" d="M20 -60v428h148v436l-142 142h-6v428h997q244 0 349 -105q11 -10 20 -20t18 -21l111 -111h-1l9 -9q100 -101 100 -242q0 -146 -109 -251h1q-41 -39 -82 -62l28 -28q29 -30 58 -67q27 -36 44 -90h21v-6l147 -147v-422h-767l-24 24v-24h-767l-147 147h-6zM80 0h653v308 h-125v240h285q84 0 84 -182v-58h-106v-308h653v308h-139q-4 191 -61 265q-112 145 -216 145q127 0 217 88q91 87 91 210t-91 210q-90 88 -308 88h-937v-308h148v-698h-148v-308zM608 825v196h282q45 0 72 -31q23 -27 23 -61q0 -35 -20 -64q-30 -40 -75 -40h-282z" />
<glyph unicode="S" horiz-adv-x="1398" d="M20 -62v507h324q-18 13 -32 29l-126 126q-71 59 -110 150q-31 77 -31 165q0 28 2.5 54.5t8.5 52.5q17 67 49.5 130t80.5 108q29 27 59 46.5t63 33.5q59 23 143 36t190 13q77 -1 142.5 -14.5t119.5 -37.5l11 37h293v-6l147 -147v-502h-170q5 -5 9 -11t9 -11l111 -111 q75 -75 106 -177q8 -31 13.5 -65t5.5 -66q0 -91 -41 -194q-15 -35 -33 -66t-41 -58q-31 -38 -67.5 -67.5t-77.5 -50.5l-1 1q-133 -70 -374 -70q-199 1 -315 81q-3 2 -7 4l2 -2q4 -5 0.5 -2.5t-4.5 4.5l-1 1q-6 -20 -10 -37.5t-8 -30.5h-287l-147 147h-6zM80 -2h187l31 108 q29 -27 66 -50q108 -75 289 -76q229 0 349 63q74 37 127 103q40 50 66 110q36 88 36 172q0 59 -17 115q-44 150 -184 220q-100 49 -307 77q-182 21 -226 47q-46 27 -48 71v5q0 31 37 56q42 30 156 30q109 0 155 -18q64 -34 76 -105h274v388h-187l-19 -66q-24 16 -50 29 q-97 51 -250 52q-203 0 -310 -45q-57 -24 -103 -67q-86 -82 -113 -208q-10 -48 -10 -94q0 -74 27 -142q49 -119 164 -172q41 -19 116 -40q75 -20 205 -44q74 -16 140 -28q47 -15 66 -27q54 -34 54 -96q0 -70 -63 -108q-57 -32 -157 -32h-11q-81 0 -140 32q-75 52 -92 127 h-334v-387zM545 356l65 -64v-5q8 -1 17 -1h19h11q76 0 119 20q-5 1 -10.5 2t-10.5 3h-1q-65 12 -117.5 23.5t-89.5 21.5h-2zM961 826v1l2 -1h-2z" />
<glyph unicode="T" horiz-adv-x="1495" d="M20 800v574h1368v-6l147 -147v-568h-371l-63 63v-349h10v-6l147 -147v-421h-801l-147 147h-6v427h150v286h-281l-147 147h-6zM80 860h257v165h177v-718h-150v-307h687v307h-157v718h177v-165h257v454h-1248v-454z" />
<glyph unicode="U" d="M20 943v431h1575v-6l147 -147v-425h-157v-414q0 -251 -184 -432q-185 -179 -444 -179q-130 0 -240.5 44t-203.5 135l-111 111q-11 8 -21 17.5t-20 19.5q-186 180 -186 434v264h-2l-147 147h-6zM80 1003h155v-471q0 -228 168 -391t404 -163q235 0 404 163q167 163 167 391 v471h157v311h-682v-311h156v-511q-10 -97 -70 -149q-54 -50 -132 -50h-3q-76 0 -129 50q-61 52 -71 149v511h155v311h-679v-311zM811 353q51 2 87 34q22 18 34 45t17 62v302h-138v-443z" />
<glyph unicode="V" horiz-adv-x="1828" d="M20 947v427h771v-6l147 -147v-421h-68q10 -21 19 -38.5t18 -34.5q18 38 39.5 82.5t47.5 96.5l-40 41h-6v427h773v-6l147 -147v-421h-179l-285 -560l27 -27v-421h-822l-147 147h-6v427h40q-33 63 -64.5 125.5t-62.5 122.5q-24 47 -48 92.5t-48 93.5h-100l-147 147h-6z M80 1007h156l359 -701h-79v-307h708v307h-78l358 701h157v307h-653v-307h105q-228 -453 -242 -509q-14 56 -244 509h104v307h-651v-307z" />
<glyph unicode="W" horiz-adv-x="2157" d="M10 947v427h704v-6l94 -95q2 5 2.5 10t2.5 10q1 2 1 4.5t1 4.5t1.5 5t1.5 5l15 62h402l2 -8l126 -126v134h687v-6l147 -147v-421h-164q-26 -71 -49.5 -135t-46.5 -126t-46.5 -125t-48.5 -132l69 -68v-421h-727l-4 4v-4h-717l-147 147h-6v427h85q-23 63 -44.5 122.5 t-43.5 119.5q-17 48 -34.5 95t-35.5 96h-74l-147 147h-6zM70 1007h156l256 -700h-112v-307h603v307h-80l141 440l141 -440h-84v-307h613v307h-118l256 700h148v307h-567v-307h76q-13 -71 -31 -133q-58 -179 -89 -438q-32 259 -89 438q-74 313 -99 426l-3 14h-308l-3 -14 q-25 -113 -98 -426q-59 -179 -90 -438q-31 259 -89 438q-22 92 -31 133h85v307h-584v-307z" />
<glyph unicode="X" horiz-adv-x="1722" d="M20 -60v427h187q42 45 78 84t71 77q35 37 69.5 74t76.5 83q-28 29 -55 58t-54 57h-178l-147 147h-6v427h751v-6l18 -18v24h749v-6l147 -147v-421h-188q-33 -37 -62.5 -69.5t-58 -65t-58.5 -66t-65 -71.5l144 -161h176v-6l147 -147v-421h-749l-93 93v-93h-747l-147 147h-6 zM80 0h633v307h-55l159 157l158 -157h-55v-307h635v307h-153l-334 371l297 329h155v307h-629v-307h68l-133 -152l-138 152h65v307h-631v-307h155l307 -322l-350 -378h-154v-307z" />
<glyph unicode="Y" horiz-adv-x="1636" d="M20 947v427h729v-6l52 -52v58h728v-6l147 -147v-421h-182q-40 -59 -77.5 -115t-74.5 -110.5t-74 -110t-76 -113.5l136 -136v-422h-806l-147 147h-6v428h156v101q-51 75 -101 150.5t-98 146.5q-6 8 -12 16.5t-11 17.5h-130l-147 147h-6zM80 1007h156l349 -520v-179h-156 v-308h692v308h-157v179l349 520h156v307h-608v-307h79q-84 -160 -165 -299q-81 139 -166 299h80v307h-609v-307z" />
<glyph unicode="Z" horiz-adv-x="1385" d="M20 -60v393l290 318h-84l-147 147h-6v576h1180v-6l147 -147v-355l-308 -339h186v-6l147 -147v-581h-1252l-147 147h-6zM80 0h1138v467h-257v-165h-435l667 735v277h-1060v-456h257v155h331l-641 -703v-310z" />
<glyph unicode="[" horiz-adv-x="793" d="M20 -461v1835h666v-6l147 -147v-375h-234v-927h87v-6l147 -147v-374h-660l-147 147h-6zM80 -401h546v260h-234v1194h234v261h-546v-1715z" />
<glyph unicode="\" horiz-adv-x="714" d="M-52 1374h334l1 -8l146 -145l325 -1829h-325l-147 147h-6zM20 1314l307 -1715h209l-305 1715h-211z" />
<glyph unicode="]" horiz-adv-x="793" d="M20 -81h235v927h-82l-147 147h-6v381h666v-6l147 -147v-1829h-660l-147 147h-6v380zM80 -141v-260h546v1715h-546v-261h235v-1194h-235z" />
<glyph unicode="^" horiz-adv-x="1369" d="M-31 639l478 735h340l9 -15l139 -138l474 -729h-484l-147 147h-5l-40 70q-32 -56 -64 -111.5t-60 -105.5h-484l-147 147h-9zM80 699h347l192 334l189 -334h346l-400 615h-274z" />
<glyph unicode="_" horiz-adv-x="1210" d="M-140 25h1243v-6l147 -147v-214h-1237l-147 147h-6v220zM-80 -35v-100h1123v100h-1123z" />
<glyph unicode="`" horiz-adv-x="797" d="M-68 1372h534l6 -11l142 -142l223 -407h-326l-422 407l-43 43zM80 1312l303 -293h208l-161 293h-350z" />
<glyph unicode="a" horiz-adv-x="1247" d="M-30 287q0 146 117 248l-91 303q149 119 342 151q48 6 91 8.5t82 2.5q108 0 195 -30q117 -40 193 -136l113 -113l-1 1l4 -3q49 -49 84 -119q56 -113 63 -261l125 -124v-422h-431l-39 39q-2 -1 -3.5 -1t-3.5 -1l1 -1q-92 -43 -286 -43q-81 0 -151.5 25t-129.5 76 q-7 6 -13.5 12t-12.5 12l-114 114q-3 2 -6 4.5t-6 5.5q-122 104 -122 252zM30 287q0 -121 101 -207q101 -87 244 -87q182 0 262 38q32 14 46 30l50 -61h347v308h-123v130q0 168 -59 287q-69 139 -211 188q-80 27 -176 27q-80 0 -165 -10q-173 -28 -280 -113l64 -213 q128 101 245 112q16 2 33 2q38 0 84 -10q73 -15 113 -60q30 -36 35 -95q2 -14 2 -28q-95 56 -267 56q-143 0 -244 -86t-101 -208zM325 297q0 40 39 67q40 28 115 28q76 0 115 -28q39 -27 39 -67q0 -39 -39 -67t-115 -28q-75 0 -115 28q-39 28 -39 67z" />
<glyph unicode="b" horiz-adv-x="1348" d="M-10 -60v428h108v476l-101 101h-6v429h549v-6l147 -147v-218q246 -6 398 -156q11 -11 20.5 -22t19.5 -22l108 -108q155 -155 155 -373v-4q0 -152 -80 -280q-38 -60 -88 -107t-113 -81q-119 -63 -288 -63h-56q-61 2 -113.5 15.5t-103.5 41.5q-8 -14 -15 -28t-12 -23h-376 l-147 147h-6zM50 0h284l39 76q109 -77 241 -82h55q156 0 261 56q113 60 180 168q71 112 71 250v4q0 195 -138 333t-373 138q-132 -5 -190 -81v452h-429v-309h107v-697h-108v-308zM490 472q0 80 41 140q41 62 139 62q97 0 139 -62q41 -60 41 -140q0 -82 -41 -145 q-42 -65 -139 -65t-139 65q-41 63 -41 145zM697 324q43 8 62 36h-1q14 23 22 49t10 55q-46 -8 -62 -34q-31 -47 -31 -106z" />
<glyph unicode="c" horiz-adv-x="1181" d="M-10 461v12q1 91 27 169t77 147q95 128 251 184q88 32 221 32q57 -3 103.5 -15.5t81.5 -32.5q3 5 6.5 10t5.5 9q1 1 5 9h235v-6l147 -147v-475h-264l111 -111l224 -257q-74 -63 -146 -106.5t-129 -63.5q-44 -14 -98 -23t-115 -13h-38q-111 0 -199 32q-58 21 -108 52 t-92 73l-111 110q-50 41 -91 96q-103 139 -104 315zM50 462q2 -159 92 -280q86 -114 223 -163q80 -29 180 -29h36q117 7 198 33q111 35 211 121l-150 173q-36 -30 -74 -44q-52 -21 -94 -25q-19 -2 -38 -2q-25 0 -52 3q-48 6 -95 23q-48 21 -78 53q-56 59 -56 144 q0 84 55 148q54 63 173 63h4q128 -13 130 -116h228v361h-143l-38 -54q-61 66 -197 74q-120 0 -200 -29q-137 -49 -223 -163q-90 -121 -92 -280v-11zM560 313q7 -2 14 -2.5t14 -1.5q27 -3 46 -3h11t11 1q3 0 5.5 0.5t6.5 0.5q17 2 36.5 7.5t40.5 13.5q18 6 57 35l-107 107 q-63 -6 -94 -41q-41 -47 -41 -111v-6z" />
<glyph unicode="d" horiz-adv-x="1328" d="M-30 468v4q0 219 156 375t416 156q38 -1 69.5 -7t59.5 -17v395h549v-6l147 -147v-423h-107v-475l108 -108v-422h-377l-43 43q-45 -20 -97.5 -33.5t-102.5 -15.5h-56q-170 0 -288 63q-72 38 -125 93l-109 108q-71 57 -120 135q-80 128 -80 282zM30 468q0 -138 71 -250 q67 -108 180 -168q105 -56 261 -56h55q132 5 241 82l39 -76h284v308h-108v697h107v309h-429v-452q-58 76 -190 81q-235 0 -373 -138t-138 -333v-4zM361 472q0 80 41 140q42 62 139 62q98 0 139 -62q41 -60 41 -140q0 -82 -41 -145q-42 -65 -139 -65t-139 65q-41 63 -41 145z M568 324q43 8 62 36h-1q14 23 22 49t10 55q-43 -6 -62 -34q-31 -47 -31 -106z" />
<glyph unicode="e" horiz-adv-x="1214" d="M-10 469q0 119 43 220q20 46 50 89t65 77q37 34 79.5 62.5t87.5 46.5q100 41 236 41q143 0 241 -43q47 -20 86 -46.5t73 -58.5q25 -23 48 -51l117 -117q27 -26 47.5 -59.5t34.5 -70.5q32 -74 32 -179q0 -38 -6 -80q-3 -20 -10.5 -47.5t-20.5 -65.5h-115l176 -202 q-77 -66 -145.5 -108.5t-129.5 -61.5q-122 -38 -307 -38q-96 0 -186 31q-94 31 -170 97q-6 5 -11.5 10.5l-10.5 10.5l-113 112q-5 4 -9 7.5t-8 7.5q-38 33 -69 75.5t-56 94.5q-49 104 -49 246zM50 469q0 -129 43 -221t110 -150t151 -86t168 -28q179 0 290 35t211 121 l-150 173q-36 -30 -63 -47q-32 -18 -70 -33q-23 -10 -44 -14q-31 -7 -78 -7h-12q-111 6 -145 32q-33 16 -53 39t-28 48t-11 63h633q10 31 16 65q5 35 5 71q0 91 -29 159q-28 78 -85 125q-58 57 -141 93q-86 38 -217 38q-122 0 -213 -37q-84 -35 -149 -96q-64 -61 -101 -147 q-38 -87 -38 -196zM374 578q1 23 7 37q7 22 22 45q17 30 48 51q44 30 113 31q69 0 116 -30q26 -16 40 -43q13 -21 18 -47q4 -14 6 -44h-370z" />
<glyph unicode="f" horiz-adv-x="1142" d="M-10 524v343h93q4 212 159 362q154 153 373 153q221 0 421 -203l-2 -2l148 -148l-314 -260l55 -55v-337h-241v-55l107 -107v-422h-643l-147 147h-6v428h90v69l-87 87h-6zM50 584h93v-276h-90v-308h529v308h-107v276h241v223h-241v43q10 115 43 164q41 58 97 58 q64 0 106 -77l227 188q-138 139 -333 139q-193 0 -331 -136q-139 -136 -141 -331v-48h-93v-223z" />
<glyph unicode="g" horiz-adv-x="1278" d="M-10 463q0 220 133 377q147 161 389 161q68 -1 119.5 -15t91.5 -44q5 12 9 24t7 20h432v-6l147 -147v-424h-108v-454q0 -128 -37 -229q-20 -54 -50 -99t-72 -84q-38 -35 -90 -65.5t-109 -50.5q-48 -17 -100.5 -25.5t-105.5 -8.5q-35 0 -71 3t-71 11q-87 17 -169.5 56 t-157.5 101l-130 130q-6 5 -12 9.5t-12 9.5l182 265q14 -7 26.5 -13t25.5 -11l-71 71q-42 32 -79 78q-117 154 -117 360zM50 463q0 -186 104 -323q112 -136 293 -153q33 -1 44 -1h32q55 2 92 20q36 19 75 61q0 -175 -189 -204q-40 -6 -79 -6q-118 1 -198 43l-120 -175 q99 -81 261 -112q67 -13 131 -13q98 0 187 31q108 38 179 104q72 67 107 161q34 94 34 209v511h108v310h-331l-37 -96q-62 109 -231 111q-216 0 -344 -140q-118 -140 -118 -338zM342 463q0 81 44 142q44 62 126 62q80 0 125 -62q44 -61 44 -142q0 -82 -44 -143 q-45 -62 -125 -62q-82 0 -126 62q-44 61 -44 143zM549 325q23 9 40 31h-1q14 22 22.5 46t10.5 51q-24 -9 -38 -31q-15 -22 -24 -46t-10 -51z" />
<glyph unicode="h" horiz-adv-x="1368" d="M-10 -60v429h101v481l-95 95h-6v429h543v-6l147 -147v-222q5 1 11 1.5t12 1.5t13.5 1.5t17.5 0.5q105 0 198 -60q59 -40 106 -99l112 -111q53 -52 91 -126q60 -119 60 -253v-33l107 -107v-422h-552l-63 63v-63h-650l-147 147h-6zM50 0h536v308h-103v196q0 80 41 136 t99 56q57 0 98 -56q41 -55 42 -134v-506h438v308h-107v197q0 121 -54 227q-53 104 -141 161q-79 51 -165 51q-16 0 -32 -2q-114 -11 -229 -107v479h-423v-309h101v-696h-101v-309zM690 318l13 -13v121q-7 -16 -10 -34t-3 -38v-36z" />
<glyph unicode="i" horiz-adv-x="758" d="M-10 -60v428h104v111l-78 78h-6v429h195l-10 9q-14 10 -27 24q-30 32 -45.5 69t-15.5 82q0 86 61 150q66 63 152 63q87 0 150 -63q7 -7 12.5 -13.5t10.5 -14.5l125 -124q62 -62 62 -148q0 -72 -45 -129l58 -58v-513l105 -105v-422h-655l-147 147h-6zM50 0h541v308h-105 v618h-416v-309h84v-309h-104v-308zM167 1170q0 -63 44 -108q46 -45 109 -45t108 45t45 108t-45 108t-108 45t-109 -45q-44 -45 -44 -108z" />
<glyph unicode="j" horiz-adv-x="669" d="M-59 -92q167 31 169 148v418l-83 83h-6v429h210l-11 11q-7 5 -13.5 10.5t-12.5 11.5q-30 32 -45.5 69t-15.5 82q0 86 61 150q66 63 152 63q87 0 150 -63q7 -7 12.5 -14t10.5 -14l125 -124q62 -62 62 -148q0 -76 -50 -135l53 -52v-882q0 -126 -38 -229 q-20 -54 -50.5 -99.5t-70.5 -83.5q-80 -74 -200 -116q-91 -31 -256 -34l-147 147h-6v372zM1 -142v-261q96 1 181 30q107 38 179 104q71 67 106 161t35 209v825h-421v-309h89v-561q-2 -167 -169 -198zM193 1170q0 -63 44 -108q46 -45 109 -45t108 45t45 108t-45 108t-108 45 t-109 -45q-44 -45 -44 -108z" />
<glyph unicode="k" horiz-adv-x="1280" d="M-10 -60v426h92v494l-86 86h-6v428h545v-6l147 -147v-235h421v-6l147 -147v-347h-192q-11 -9 -18 -14.5t-14 -11.5t-15.5 -13t-22.5 -18q12 -16 24 -31l24 -30h137v-6l147 -147v-422h-1177l-147 147h-6zM50 0h478v308h-55v49l98 87l97 -135h-64v-309h509v308h-130 l-224 280l129 105h155v233h-491v-233h126l-203 -171v792h-425v-308h92v-700h-92v-306z" />
<glyph unicode="l" horiz-adv-x="758" d="M-10 -60v428h104v499l-78 78h-6v429h536v-6l147 -147v-901l105 -105v-422h-655l-147 147h-6zM50 0h541v308h-105v1006h-416v-309h84v-697h-104v-308z" />
<glyph unicode="m" horiz-adv-x="1938" d="M-10 -60v428h84v121l-68 68h-6v429h463l4 -10l38 -39q51 32 99 45t103 13q20 0 40 -1.5t40 -6.5q64 -14 121 -48.5t102 -85.5q13 15 27 27q60 51 125 79.5t129 34.5q7 1 16 1h17q52 0 103.5 -15.5t97.5 -44.5q32 -21 60.5 -47t53.5 -58l111 -110q25 -25 47 -54t39 -63 q60 -114 60 -248v-58l82 -82v-422h-528l-84 84v-84h-527l-83 83v-83h-613l-147 147h-6zM50 0h499v308h-83v196q0 80 41 136t99 56q57 0 98 -56q41 -55 42 -134v-506h413v308h-82v197q1 79 42 135t98 56q58 0 99 -56q41 -55 41 -134v-506h414v308h-82v197q0 119 -54 222 q-53 101 -142 157q-80 51 -169 51q-13 0 -27 -1q-114 -9 -220 -99q-30 -27 -70 -81q-88 144 -233 174q-34 7 -67 7q-123 0 -241 -100l-40 91h-366v-309h74v-309h-84v-308zM673 298l13 -13v141q-7 -16 -10 -34t-3 -38v-56zM1284 297l13 -13v140q-6 -15 -9 -32.5t-4 -36.5v-58 z" />
<glyph unicode="n" horiz-adv-x="1364" d="M-10 -60v428h84v121l-68 68h-6v429h463l4 -10l39 -38q42 25 87.5 38.5t92.5 17.5q7 1 17 1h18q111 0 212 -59q77 -46 131 -115l115 -114q44 -44 77 -101q68 -117 69 -251v-61l79 -79v-422h-525l-121 121v-121h-615l-147 147h-6zM50 0h501v308h-85v196q0 77 51 136 q49 56 109 56q59 0 108 -56q51 -58 52 -134v-506h411v308h-79v197q-1 118 -61 222q-59 100 -155 157q-87 51 -181 51q-14 0 -29 -1q-121 -9 -226 -99l-40 91h-366v-309h74v-309h-84v-308zM673 300l53 -53v221q-9 -7 -16 -16h-1q-36 -42 -36 -98v-54z" />
<glyph unicode="o" horiz-adv-x="1280" d="M-30 471q0 219 157 376q177 155 445 155q133 0 243.5 -38.5t200.5 -116.5q11 -11 20.5 -22t18.5 -22l109 -108q156 -156 156 -374q0 -220 -156 -379q-176 -158 -442 -158q-268 0 -444 158l-126 126q-7 5 -13.5 10.5t-12.5 11.5q-156 159 -156 381zM30 471 q0 -197 138 -338q159 -142 404 -142q244 0 403 142q138 141 138 338q0 195 -138 333q-158 138 -403 138q-246 0 -404 -138q-138 -138 -138 -333zM379 471q0 90 48 154q49 65 145 65q94 0 143 -65q49 -64 49 -154q0 -92 -49 -160q-50 -68 -143 -68q-96 0 -145 68 q-48 68 -48 160zM586 303q52 4 81 44q37 50 37 124v11q-54 -6 -81 -41l-1 -1q-36 -49 -36 -119v-18z" />
<glyph unicode="p" horiz-adv-x="1324" d="M-10 -33h84v522l-68 68h-6v429h347l5 -10l34 -35q46 21 98.5 34.5t104.5 15.5h56q172 0 289 -63q51 -28 92.5 -62.5t75.5 -78.5l95 -94q5 -6 11 -11q44 -44 76 -95q80 -128 80 -280v-4q0 -218 -155 -373t-414 -155q-15 1 -29 2t-28 3v-388h-595l-147 147h-6v428zM50 -93 v-308h481v308h-75v156q58 -76 190 -81q235 0 373 138t138 333v4q0 138 -71 250q-67 108 -180 168q-105 56 -261 56h-55q-132 -5 -241 -82l-39 77h-250v-309h74v-710h-84zM466 453q0 82 41 145q42 65 139 65t139 -65q41 -63 41 -145q0 -80 -41 -140q-42 -62 -139 -62 q-98 0 -139 62q-41 60 -41 140zM673 312q43 6 63 35q14 22 22 48.5t8 57.5q-42 -8 -61 -36q-14 -23 -22.5 -49.5t-9.5 -55.5z" />
<glyph unicode="q" horiz-adv-x="1304" d="M-30 453v4q0 154 80 282q76 120 203 189q118 63 289 63h56q61 -2 113.5 -15t103.5 -41q6 12 13 25.5t12 25.5h347v-6l147 -147v-423h-74v-512l84 -84v-422h-595l-147 147h-6v243q-194 24 -318 148l-112 111q-21 18 -40 37q-156 156 -156 375zM30 453q0 -195 138 -333 t373 -138q132 5 190 81v-156h-75v-308h481v308h-84v710h74v309h-250l-39 -77q-109 77 -241 82h-55q-156 0 -261 -56q-113 -60 -180 -168q-71 -112 -71 -250v-4zM361 453q0 82 41 145q42 65 139 65t139 -65q41 -63 41 -145q0 -80 -41 -140q-41 -62 -139 -62q-97 0 -139 62 q-41 60 -41 140zM568 312q43 6 62 34q31 46 31 107q-42 -8 -61 -36q-14 -23 -22.5 -49.5t-9.5 -55.5z" />
<glyph unicode="r" horiz-adv-x="1002" d="M-10 -60v428h80v115l-74 74h-6v429h473l3 -9l37 -38q101 58 207 58q72 0 185 -40l-1 -5l148 -147l-61 -402q-167 76 -204 76h-5q-32 0 -66 -37h-1q-36 -42 -36 -98v-54l75 -75v-422h-601l-147 147h-6zM50 0h487v308h-75v186q0 77 51 136q49 56 109 56h5q51 0 159 -50 l43 280q-60 21 -119 21q-129 0 -248 -102l-40 91h-372v-309h80v-309h-80v-308z" />
<glyph unicode="s" horiz-adv-x="1126" d="M-10 -60v423h174l-31 31q-64 44 -97 117q-14 31 -20.5 62.5t-6.5 64.5q0 41 9 80q27 109 114 181q23 19 50.5 34.5t54.5 25.5q49 18 114 27.5t142 9.5q126 -2 217 -44v-1h1h1q-3 4 -2 4.5t3 -1.5l-1 -3l2 -1l1 2l-2 2l15 32h226v-6l147 -147v-407h-73l42 -43q-1 2 -2 2.5 t-2 2.5l9 -9q50 -52 74 -120q17 -51 17 -99q0 -71 -35 -147q-24 -49 -63 -92q-26 -29 -57.5 -50.5t-67.5 -37.5l1 -1q-111 -50 -292 -50q-135 0 -232 51q-5 -12 -9 -22.5t-6 -17.5h-262l-147 147h-6zM50 0h166l27 72q5 -12 36 -28q90 -55 223 -55q169 0 268 45q62 27 106 75 q32 36 54 79q29 62 29 122q0 41 -14 81q-37 109 -154 161q-82 35 -246 54q-103 13 -131 28q-25 13 -26 40q0 19 24 33q31 18 87 18h4q47 0 85 -20q37 -22 48 -72h258v293h-128l-32 -63q-15 19 -50 35q-81 37 -191 38q-147 0 -235 -33q-49 -18 -88 -50q-71 -59 -93 -149 q-8 -34 -8 -66q0 -53 22 -102q41 -87 139 -126q34 -14 94 -29q59 -14 144 -30q56 -11 90 -18q32 -9 43 -16q31 -17 31 -39q0 -33 -35 -52q-33 -15 -84 -15h-9q-43 0 -85 19.5t-67 72.5h-302v-303zM864 799l3 -2q-1 0 -1.5 1t-1.5 1z" />
<glyph unicode="t" horiz-adv-x="798" d="M-35 645v341h127q13 55 24 127.5t21 166.5l385 91v-7l147 -147v-231h22v-6l147 -147v-335h-169v-116q5 5 10.5 11t11.5 12v-10l147 -147v-418q-106 -23 -174.5 -34.5t-102.5 -11.5q-72 2 -131.5 26.5t-104.5 69.5l-121 121q-57 43 -93 111q-18 39 -29 97.5t-11 130.5v205 l-100 100h-6zM25 705h106v-365q0 -135 34 -201q74 -144 247 -148h3q55 0 216 35v230q-32 -33 -80 -33q-8 0 -16 1q-53 6 -67 53q-6 19 -6 72v356h169v221h-169v369l-269 -64q-20 -182 -55 -305h-113v-221z" />
<glyph unicode="u" horiz-adv-x="1331" d="M-10 556v430h522v-6l142 -142v148h510v-6l147 -147v-558l60 -60v-422h-448l-46 46q-82 -47 -175 -56h-1q-7 -1 -15 -1h-16q-111 0 -213 60l1 -1q-51 29 -95 73l-110 110q-38 29 -68.5 65t-55.5 78q-33 57 -51 121.5t-18 130.5v73l-64 64h-6zM50 616h70v-197 q0 -117 61 -221q58 -101 155 -157q88 -52 184 -52q13 0 26 1q120 10 226 100l40 -90h352v308h-60v618h-390v-309h58v-197q0 -77 -51 -135q-49 -57 -109 -57t-109 56q-51 58 -51 135v507h-402v-310zM659 307l8 8l9 9q36 40 36 96v85l-52 52h-1v-250z" />
<glyph unicode="v" horiz-adv-x="1296" d="M-10 557v429h1199v-6l147 -147v-423h-145q-29 -74 -60.5 -152.5t-63 -157.5t-62.5 -157t-59 -150h-410l-147 147h-5l-187 470h-54l-147 147h-6zM50 617h130l245 -617h332l245 617h127v309h-487v-309h61q-80 -165 -112 -323q-32 158 -112 323h58v309h-487v-309z" />
<glyph unicode="w" horiz-adv-x="1726" d="M-10 557v430h607v-6l26 -26q2 8 4.5 16t5.5 16h355l2 -7l22 -22v28h607v-6l147 -147v-423h-161q-23 -74 -46.5 -152.5t-47.5 -158t-48 -157t-46 -149.5h-348l-147 147h-5l-8 25q-15 -45 -29.5 -88t-27.5 -84h-350l-147 147h-5l-143 470h-64l-147 147h-6zM50 617h157 l188 -617h266l149 450l150 -450h265l189 617h145v309h-487v-309h64l-43 -203l-150 513h-265l-150 -492l-41 182h50v310h-487v-310z" />
<glyph unicode="x" horiz-adv-x="1307" d="M-10 -59v426h135q34 15 54 24t37 17q2 0 4 2h-77l-147 147h-6v429h1208v-6l147 -147v-423h-136q-17 -9 -29 -15l-21 -10.5t-16.5 -8t-15.5 -7.5q2 -2 3 -2h70v-6l147 -147v-420h-1204l-147 147h-6zM50 1h473v306h-92l165 73l131 -73h-97v-306h510v306h-27l-321 184 l253 126h93v309h-431v-309h74l-128 -67l-141 67h87v309h-549v-309h60l342 -171l-315 -139h-87v-306z" />
<glyph unicode="y" horiz-adv-x="1202" d="M-34 -411l159 342q37 -8 55 -10.5t24 -2.5q71 0 111 84l-156 408h-16l-147 147h-6v429h1105v-6l147 -147v-423h-105q-29 -77 -57 -153.5t-56 -153.5l-18 -49h1q-15 -42 -31 -83.5t-31 -83.5q-11 -32 -24 -65.5t-24 -66.5q-23 -59 -51.5 -109t-64.5 -92l1 -1 q-36 -43 -81 -76t-96 -54q-46 -19 -101.5 -29.5t-113.5 -10.5h-12q-51 1 -115.5 16t-142.5 42l-145 145zM49 -376q90 -32 180 -34h11q107 0 193 36q90 38 155 114q66 76 106 184l47 132l62 167l18 50l127 344h87v309h-467v-309h72q-49 -160 -102 -332q-49 183 -89 332h68 v309h-467v-309h94l235 -617l-1 -1q-56 -141 -174 -141q-21 0 -44 4z" />
<glyph unicode="z" horiz-adv-x="1058" d="M-10 -60v325l153 157l-132 134h-6v430h918v-6l147 -147v-310l-152 -155h33v-6l147 -147v-422h-955l-147 147h-6zM50 0h841v308h-248v-66h-227l447 455v229h-798v-310h238v67h180l-433 -443v-240z" />
<glyph unicode="{" horiz-adv-x="941" d="M20 261v387q70 0 97 24q14 11 24 23t15 22q11 23 15.5 61t4.5 89v22.5t-1 23.5q-1 14 -1 28v27q0 129 28 199q18 42 44 76.5t55 56.5q85 63 240 74q10 1 48.5 1h108.5h136v-6l147 -147v-408q-214 0 -233 -36q-14 -25 -16 -151q-1 -100 -40.5 -179.5t-117.5 -142.5l37 -37 q122 -123 122 -309v-13q22 -1 47 -1.5t54 -0.5v-6l147 -147v-405q-385 0 -478 45l1 -1q-53 25 -89 62l-119 119q-29 22 -50.5 48t-36.5 57q-40 86 -40 246q0 101 -3 158l-140 141h-6zM80 318q32 -1 77 -40q40 -33 55 -64q17 -37 17 -252q0 -146 35 -220q34 -72 114 -110 q81 -39 396 -39v291q-189 0 -224 53q-24 38 -24 172q0 222 -204 345q201 116 203 323q2 140 24 179q35 65 225 65v294q-219 0 -227 -1q-140 -9 -209 -61q-51 -38 -80 -108q-24 -59 -24 -177q0 -25 1 -52q1 -25 1 -49q0 -116 -25 -174q-15 -33 -54 -66q-43 -39 -77 -39v-270z " />
<glyph unicode="|" horiz-adv-x="597" d="M120 -467v1843h370v-6l147 -147v-1837h-364l-147 147h-6zM180 -407h250v1723h-250v-1723z" />
<glyph unicode="}" horiz-adv-x="941" d="M20 -56q213 0 234 26h-1q15 24 15 139q0 106 39 191.5t120 152.5q-156 125 -158 323v18.5t-1 17.5q-20 1 -44 1.5t-51 0.5l-147 147h-6v414h136h110.5t47.5 -1q74 -6 135 -24t103 -49q14 -10 26.5 -23t24.5 -28l123 -123q-1 1 -1.5 1t-1.5 1l7 -6q42 -43 68 -106h1 q28 -66 28 -199v-27t-1 -28q-1 -13 -1 -23.5v-22.5v-37t1 -32h8v-6l147 -147v-381q-67 -3 -98 -30q-15 -13 -24.5 -22.5t-14.5 -20.5q-12 -27 -12 -229q0 -158 -41 -245q-44 -91 -141 -137l-1 1q-95 -45 -476 -45l-147 147h-6v411zM80 -116v-291q315 0 396 39q80 38 114 110 q35 74 35 220q0 215 17 252q15 31 55 64q45 39 77 40v270q-34 0 -77 39q-39 33 -54 66q-25 58 -25 174q0 24 1 49q1 27 1 52q0 118 -24 177q-29 70 -80 108q-69 52 -209 61q-8 1 -227 1v-294q190 0 225 -65q22 -39 24 -179q2 -207 203 -323q-204 -123 -204 -345 q0 -134 -24 -172q-35 -53 -224 -53z" />
<glyph unicode="~" horiz-adv-x="1372" d="M20 369v493q91 80 177 124t168 52q8 1 17.5 1h20.5q136 0 303 -81q138 -67 222 -67h14q48 7 129.5 62t193.5 159v-10l147 -147v-481q-201 -152 -357 -159h-16q-134 0 -329 90q-102 48 -182 48q-12 0 -24.5 -1.5t-24.5 -3.5q-99 -19 -306 -222l-148 148zM80 512 q122 119 238 142q29 6 60 6q94 0 206 -53q185 -85 305 -85h15q136 6 301 131v320q-140 -130 -256 -141q-10 -1 -21 -1q-97 0 -248 73q-154 75 -277 75q-17 0 -33 -1q-144 -14 -290 -143v-323z" />
<glyph unicode="&#xa1;" horiz-adv-x="636" d="M15 -448l76 943l-53 53h-6v437h479v-6l147 -147v-431h-62l80 -996h-508l-147 147h-6zM80 -388h384l-73 906h-237zM92 608h359v317h-359v-317z" />
<glyph unicode="&#xa2;" horiz-adv-x="1287" d="M21 503q0 262 186 445q187 187 449 187q8 0 10.5 0.5t3.5 0.5h12q8 29 17 60t19 63t19.5 65.5t17.5 59.5h273l-2 -6l148 -147l-82 -274q19 -19 38 -39t39 -42l93 -93q16 -16 30.5 -33t30.5 -35q1 -1 2 -1.5t2 -1.5l-298 -242l-101 -81l-2 1q-3 -9 -6 -18.5t-6 -19.5 q66 -54 133 -107.5t132 -106.5q-1 -1 -1 -1.5t-1 -1.5l148 -147q-81 -103 -173.5 -168.5t-188.5 -91.5q-37 -8 -77 -14t-77 -6q-22 0 -41.5 1t-39.5 4q-11 -39 -23.5 -80.5t-25.5 -83.5t-25 -82.5t-22 -75.5h-263l-147 147h-7l112 389l-74 74q-29 24 -56 52t-51 60 q-63 85 -94 181t-31 209zM81 500q0 -200 113 -351q85 -113 211 -174l-110 -377h144l98 331q61 -14 122 -14q70 0 140 18q178 45 297 196l-253 205l-45 36q-30 -62 -49 -82q-34 -35 -93 -35q-12 0 -24 2l130 440q15 -23 36 -66l45 36l253 205q-100 119 -233 169l84 285h-147 l-74 -253q-34 4 -70 4q-238 0 -407 -169q-168 -167 -168 -403v-3zM485 500q0 96 52 171q42 60 93 72l-112 -383q-33 63 -33 140z" />
<glyph unicode="&#xa3;" horiz-adv-x="1484" d="M5 121q87 63 139 121l-118 119h-6v354h129q-11 61 -11 123q0 179 103 331q143 214 469 215q307 0 465 -192l115 -115q21 -22 41 -47q75 -97 116 -294l-420 -66l109 -108v-307q14 6 28.5 12.5t30.5 14.5l5 -11l143 -143l181 -396q-223 -113 -410 -113q-109 0 -220 30 q-128 36 -225 36h-16t-17 -1q-108 -8 -309 -85l-148 148q-1 -1 -2 -1t-2 -1zM80 101l127 -279q159 62 275 69q18 1 37 1q105 0 240 -38q104 -28 205 -28q172 0 335 82l-134 293q-105 -49 -198 -49h1q0 1 -206 20q-33 3 -65 3q-95 0 -185 -24q146 138 154 270h263v234h-297 q-45 139 -47 180q-1 11 -1 21q0 70 31 120q31 52 82 61q10 2 19 2q40 0 75 -32q47 -44 64 -133l374 59q-25 125 -93 212q-139 179 -426 179h-3q-291 -1 -417 -189q-92 -136 -92 -297q0 -88 28 -183h-146v-234h204v-14q0 -159 -204 -306zM791 715h113l-88 87l-3 -6 q-20 -34 -22 -81zM947 214q16 -3 23 -5l-1 3h14t15 2h-51z" />
<glyph unicode="&#xa4;" horiz-adv-x="1382" d="M3 407l137 137q-52 99 -52 203q0 53 14 106t40 106q-17 17 -35.5 36t-37 37.5t-35.5 36t-30 30.5l286 290l141 -139q51 26 104 38.5t106 12.5q105 0 207 -50l71 71q19 19 36 36.5t30 30.5l291 -291l-2 -2l148 -148l-138 -139q48 -99 48 -204q0 -52 -11.5 -104t-36.5 -105 l138 -138l-286 -289l-141 140q-53 -24 -103.5 -35t-103.5 -11q-105 0 -205 47q-16 -17 -34.5 -36.5t-36.5 -38.5t-34.5 -36t-28.5 -30l-149 147l-1 -1zM88 408l210 -208l124 130q107 -60 216 -60t220 60l128 -130l206 208l-128 128q61 111 61 219t-61 214l128 130l-206 205 l-128 -129q-108 66 -217 66t-219 -66l-131 129l-203 -205l128 -130q-68 -114 -68 -222t68 -211zM432 753q0 96 65 153q59 51 143 51q85 0 143 -51q65 -57 65 -153t-65 -153q-59 -51 -143 -51h-3q-82 0 -140 50q-65 57 -65 154zM639 609h1q64 0 103 36q43 37 45 105 q-64 -2 -104 -37h1q-46 -40 -46 -104z" />
<glyph unicode="&#xa5;" horiz-adv-x="1576" d="M20 951v423h1449v-6l147 -147v-417h-188q-21 -38 -36.5 -68t-31.5 -58h30v-6l147 -147v-528h-384v-214h-522l-147 147h-6v67h-231l-147 147h-6v534h256q-16 29 -30.5 56t-28.5 53q-2 4 -5 8t-5 9h-108l-147 147h-6zM80 1011h160l209 -393h-295v-158h380l4 -8v-89h-384 v-159h384v-214h408v214h384v159h-384v89l4 8h380v158h-295l209 393h165v303h-608v-303h33q-50 -93 -92 -197q-43 104 -93 197h40v303h-609v-303z" />
<glyph unicode="&#xa6;" horiz-adv-x="497" d="M20 373h370v-6l147 -147v-827h-364l-147 147h-6v833zM20 543v832h370v-6l147 -147v-826h-364l-147 147h-6zM80 313v-713h250v713h-250zM80 603h250v712h-250v-712z" />
<glyph unicode="&#xa7;" horiz-adv-x="1481" d="M51 513q0 45 15 90q18 55 56 105t93 93q-26 35 -42 72t-24 74q-8 35 -8 63q0 45 16 88t47 80q48 57 118.5 100t151.5 69q57 17 118.5 26.5t122.5 9.5q23 0 45 -1t42 -3q84 -10 160.5 -32.5t139.5 -60.5q63 -39 111 -99l114 -114q85 -85 127 -227l-326 -51q75 -39 121 -76 q38 -32 64 -65l114 -114q94 -93 94 -217q0 -37 -7 -68q-14 -63 -47.5 -120.5t-85.5 -108.5q35 -43 52.5 -86.5t25.5 -95.5q2 -14 3 -25.5t1 -22.5q0 -106 -68 -200q-97 -130 -273 -184q-56 -17 -113 -25.5t-118 -8.5q-58 0 -110 6q-184 23 -318 109q-21 14 -40.5 29 t-37.5 33l-114 114q-60 49 -105 119t-71 161l381 76q-55 28 -96.5 55.5t-70.5 56.5l-118 118q-23 17 -41 37q-99 103 -99 221zM111 513q0 -93 82 -180t325 -175q244 -88 300 -138q41 -38 41 -64q0 -4 -1 -9q-16 -63 -66 -85q-27 -13 -59 -13q-21 0 -44 5q-55 12 -100 45 q-46 36 -58 75l-359 -71q38 -127 172 -212q125 -79 294 -100q52 -6 103 -6q111 0 214 32q160 50 244 163q57 78 57 166q0 19 -3 40q-16 107 -104 194q131 103 159 237q6 29 6 56q0 114 -103 200q-101 82 -359 168q-181 60 -229 101q-28 24 -28 48v6q9 49 51 74q31 20 71 20 q8 0 16 -1q49 -4 85 -32q39 -28 43 -73l369 58q-34 116 -159 192q-116 69 -275 85q-41 4 -81 4q-116 0 -223 -33q-155 -47 -242 -151q-49 -58 -49 -129q0 -24 6 -49q19 -92 98 -170q-144 -91 -182 -207q-12 -36 -12 -71zM434 571q0 60 57 96q74 -37 264 -109 q189 -72 227 -105q26 -23 26 -53q0 -53 -58 -92q-11 4 -115 41q-105 36 -174 65q-227 93 -227 157zM660 -50l35 -35q2 -1 3 -1t3 -1h-1q1 0 2 -0.5t2 -0.5q16 -3 29 -3q14 0 25 4q-22 8 -47 17.5t-51 19.5z" />
<glyph unicode="&#xa8;" horiz-adv-x="950" d="M-3 1150q0 86 61 150q66 63 152 63q87 0 150 -63q7 -7 13 -14t11 -14l46 -47q15 40 48 75q66 63 152 63q87 0 150 -63q7 -7 12.5 -14t10.5 -14l125 -124q62 -62 62 -148t-62 -148t-148 -62q-88 0 -150 61l-74 73q-15 -39 -48 -72q-62 -62 -148 -62q-88 0 -150 61 l-126 126q-7 5 -13.5 10.5t-12.5 11.5q-30 32 -45.5 69t-15.5 82zM57 1150q0 -63 44 -108q46 -45 109 -45t108 45t45 108t-45 108t-108 45t-109 -45q-44 -45 -44 -108zM477 1150q0 -63 44 -108q46 -45 109 -45t108 45t45 108t-45 108t-108 45t-109 -45q-44 -45 -44 -108z " />
<glyph unicode="&#xa9;" horiz-adv-x="1744" d="M20 592q0 214 108 397q110 185 298 291q186 105 402 105q218 0 404 -105q125 -71 218 -182l101 -100q72 -73 125 -161q51 -90 79.5 -190.5t28.5 -204.5q0 -212 -108 -395q-55 -92 -128 -164t-167 -125q-186 -105 -403 -105q-215 0 -401 105q-96 53 -174 131l-103 103 q-103 87 -172 203q-108 183 -108 397zM80 592q0 -197 100 -366q101 -170 275 -268t373 -98q201 0 375 98t274 268t100 366t-100 366q-101 171 -274 269t-375 98q-200 0 -373 -98q-174 -98 -275 -269q-100 -170 -100 -366zM224 592q0 245 177 418q178 174 427 174 q250 0 427 -174q177 -173 177 -418t-177 -418q-176 -173 -427 -173q-250 0 -427 173t-177 418zM431 411q7 -139 82 -253q101 -71 228 -91q-28 21 -57 50l-110 110q-21 15 -42 38q-34 33 -59 69.5t-42 76.5zM456 592q0 -167 118 -285t285 -118q224 0 343 191l-177 103 q-37 -70 -100 -95q-31 -13 -64 -13q-27 0 -55 9q-61 20 -100 73q-42 58 -42 135q0 78 42 135q39 54 100 73q29 9 57 9q32 0 62 -12q63 -26 100 -96l177 103q-119 191 -343 191q-167 0 -285 -118t-118 -285zM871 435q8 1 15.5 2.5t15.5 5.5q21 9 45.5 38.5t53.5 83.5l141 -81 l-118 117q-4 1 -11 1q-21 0 -40 -6q-43 -14 -71 -53q-31 -41 -31 -101v-7zM1139 954q43 -35 85 -84l106 -106q5 -6 10.5 -11.5t10.5 -11.5q-23 80 -70 146q-33 22 -68.5 39t-73.5 28zM1157 475l129 -74q-1 -1 -1.5 -2t-1.5 -2l36 -36q53 106 53 231v7z" />
<glyph unicode="&#xab;" horiz-adv-x="1437" d="M9 753l331 523h457l-4 -6l48 -49l35 55h457l-4 -6l148 -147l-318 -521q34 -58 74 -125.5t80.5 -136.5t79.5 -135.5t71 -120.5h-436l-147 147h-5l-245 385l-8 -14q34 -58 74 -125.5t80.5 -136.5t79.5 -135.5t71 -120.5h-436l-147 147h-5zM80 753l293 -462h306l-272 462 l282 463h-316zM616 753l293 -462h306l-272 462l282 463h-316z" />
<glyph unicode="&#xac;" horiz-adv-x="1278" d="M20 652v438h1151v-6l147 -147v-914h-454l-147 147h-6v335h-538l-147 147h-6zM80 712h691v-482h340v800h-1031v-318z" />
<glyph unicode="&#xad;" horiz-adv-x="827" d="M20 552v388h700v-6l147 -147v-382h-694l-147 147h-6zM80 612h580v268h-580v-268z" />
<glyph unicode="&#xae;" horiz-adv-x="1744" d="M20 592q0 214 108 397q110 185 298 291q186 105 402 105q218 0 404 -105q125 -71 218 -182l101 -100q72 -73 125 -161q51 -90 79.5 -190.5t28.5 -204.5q0 -212 -108 -395q-55 -92 -128 -164t-167 -125q-186 -105 -403 -105q-215 0 -401 105q-96 53 -174 131l-103 103 q-103 87 -172 203q-108 183 -108 397zM80 592q0 -197 100 -366q101 -170 275 -268t373 -98q201 0 375 98t274 268t100 366t-100 366q-101 171 -274 269t-375 98q-200 0 -373 -98q-174 -98 -275 -269q-100 -170 -100 -366zM224 592q0 245 177 418q178 174 427 174 q250 0 427 -174q177 -173 177 -418t-177 -418q-176 -173 -427 -173q-250 0 -427 173t-177 418zM431 442q0 -109 39 -202v404q-39 -93 -39 -202zM530 182h220v351h96q48 0 80 -150q0 -4 30 -201h226q-5 24 -14 82q-11 65 -17 97q-23 119 -56 163q-65 87 -125 87q73 0 126 52 q52 53 52 126q0 74 -52 126q-53 52 -126 52h-440v-785zM750 669v159h135q25 0 41 -25q13 -22 13 -54t-13 -55q-16 -25 -41 -25h-135zM1142 953q11 -11 21 -26l123 -122q69 -69 69 -166t-69 -166q-7 -7 -14 -13.5t-15 -11.5q18 -20 34 -40h-1q7 -10 14 -22.5t13 -28.5 q55 108 55 235q0 165 -91 295q-64 43 -139 66z" />
<glyph unicode="&#xaf;" horiz-adv-x="827" d="M20 1031v388h700v-6l147 -147v-382h-694l-147 147h-6zM80 1091h580v268h-580v-268z" />
<glyph unicode="&#xb0;" horiz-adv-x="822" d="M40 1076q0 125 103 213q98 83 235 83q69 0 127 -20.5t109 -62.5q24 -23 44 -47l116 -116q-1 1 -1.5 1t-1.5 1l7 -6q84 -84 84 -196q0 -122 -100 -211q-98 -86 -234 -86q-138 0 -234 87l1 -1q-5 5 -10.5 9.5t-10.5 9.5l-119 119q-8 6 -12 10q-51 45 -77 98t-26 115z M100 1076q0 -98 82 -168q80 -72 196 -72q115 0 197 72q80 70 80 168t-80 168q-82 68 -197 68q-116 0 -196 -68q-82 -70 -82 -168zM294 1076q0 40 26 67q24 30 58 30t58 -30q25 -27 25 -67t-25 -70q-24 -29 -58 -29t-58 29q-26 30 -26 70z" />
<glyph unicode="&#xb1;" horiz-adv-x="1176" d="M20 -61v353h361l-29 29h-6v197h-173l-147 147h-6v360h326v346h395v-6l147 -147v-193h181v-6l147 -147v-354h-328v-226h181v-6l147 -147v-347h-1043l-147 147h-6zM80 -1h929v233h-929v-233zM80 725h326v-344h275v344h328v240h-328v346h-275v-346h-326v-240z" />
<glyph unicode="&#xb4;" horiz-adv-x="1049" d="M186 960l226 413h534l-5 -5l148 -148l-422 -407h-326l-147 147h-8zM287 1020h208l303 293h-350z" />
<glyph unicode="&#xb5;" horiz-adv-x="1309" d="M50 -62v1433h489v-6l147 -147v-478q13 20 21 45.5t8 56.5v529h487v-6l147 -147v-1121h-459l-52 52q-26 -6 -52 -6h-6q-51 0 -94 17v-369h-483l-147 147h-6zM110 -2h369v429q55 -77 151 -77h5q99 3 162 84v-130h345v1007h-367v-469q0 -91 -47 -146q-41 -48 -101 -50h-4 q-58 0 -97 45q-47 51 -47 141v479h-369v-1313z" />
<glyph unicode="&#xb6;" horiz-adv-x="1290" d="M33 1028q0 129 90 227q115 124 319 124h741v-6l147 -147v-338h-90v-1095h-318l-14 14v-14h-318l-147 147h-6v602q-20 7 -39.5 14.5t-36.5 18.5q-23 13 -42.5 27.5t-36.5 31.5l-120 119q-111 85 -127 238q-1 8 -1.5 16.5t-0.5 20.5zM93 1028q0 -18 2 -37q18 -146 144 -216 q102 -55 258 -55v-720h204v1095h128v-1095h204v1095h90v224h-681q-178 0 -275 -105q-74 -80 -74 -186z" />
<glyph unicode="&#xb7;" horiz-adv-x="573" d="M40 654q0 86 61 150q66 63 152 63q87 0 150 -63q7 -7 12.5 -14t10.5 -14l125 -124q62 -62 62 -148t-62 -148t-148 -62q-88 0 -150 61l-126 126q-7 5 -13.5 10.5t-12.5 11.5q-30 32 -45.5 69t-15.5 82zM100 654q0 -63 44 -108q46 -45 109 -45t108 45t45 108t-45 108 t-108 45t-109 -45q-44 -45 -44 -108z" />
<glyph unicode="&#xb8;" horiz-adv-x="840" d="M20 -141q47 -15 86.5 -26.5t72.5 -19.5l82 283h270l-1 -6l147 -147l-3 -14q7 -6 12 -12.5t10 -12.5l127 -127q57 -57 57 -131q0 -31 -10 -61q-36 -108 -160 -152q-84 -30 -217 -30q-112 0 -320 30l-146 146q-3 1 -7 1v279zM80 -223v-145q153 -22 263 -22q122 0 198 27 q98 35 125 116q7 22 7 43q0 61 -63 110q-52 40 -169 47l20 83h-155l-57 -197q32 2 57 2q85 0 110 -18q20 -10 24 -32v-6q-2 -24 -29 -36q-33 -13 -103 -13h-19q-82 0 -209 41z" />
<glyph unicode="&#xbb;" horiz-adv-x="1402" d="M-28 1276h457l8 -14l140 -139l243 -385l8 14q-23 37 -47.5 77t-50.5 84q-28 46 -58 95t-59.5 96.5t-56 91.5t-48.5 80h457l8 -14l140 -139l329 -520l-329 -519h-437l-61 60l-38 -60h-437l-147 147h-9l308 521q-23 37 -47.5 77t-50.5 84q-28 46 -58 95t-59.5 96.5 t-56 91.5t-48.5 80zM80 1216l282 -463l-272 -462h306l293 462l-293 463h-316zM616 1216l282 -463l-272 -462h306l293 462l-293 463h-316z" />
<glyph unicode="&#xbf;" horiz-adv-x="1187" d="M-10 -23q0 42 11 86t29 82q9 16 27 38.5t43.5 49t58 56t69.5 60.5q44 38 69.5 86t30.5 108l-3 4h-5v438h479v-6l147 -147v-432h-13v-66q0 -150 -82 -261q-4 -4 -5 -6l235 -66q-1 -1 -1 -5l147 -147q-42 -217 -154 -324q-138 -132 -408 -132q-219 0 -345 90 q-15 11 -28.5 22.5t-25.5 23.5l-114 114q-107 86 -145 218q-17 60 -17 116zM50 -23q0 -48 15 -99q35 -123 138 -198q112 -80 312 -80q248 0 368 116q99 96 128 242l-316 89q-1 -79 -55 -132q-50 -48 -113 -48h-2q-98 0 -106 86q-1 9 -1 18q0 70 58 117q138 115 179 169 q71 95 71 227v33h-336q0 -111 -124 -214q-154 -127 -182 -184q-34 -69 -34 -142zM380 607h359v318h-359v-318z" />
<glyph unicode="&#xc0;" d="M10 -60v429h152q35 72 64.5 134.5t58.5 124.5q31 65 61.5 129t65.5 138l-48 50h-6v429h354l-241 233l-43 42l-114 111h534l6 -11l142 -142l202 -370l17 -16l333 -852h47v-6l147 -147v-423h-722l-132 132v-132h-725l-147 147h-6zM70 0h611v309h-111l56 149h368l46 -149 h-113v-309h608v309h-116l-393 1005h-608v-309h113l-331 -696h-130v-309zM462 1700l303 -293h208l-161 293h-350zM707 692q76 206 102 293q24 -91 102 -293h-204zM853 251l14 -14v14h-14z" />
<glyph unicode="&#xc1;" d="M10 -60v429h152q35 72 64.5 134.5t58.5 124.5q31 65 61.5 129t65.5 138l-48 50h-6v429h187l212 387h534l-5 -5l148 -148l-309 -297l90 -90l333 -852h47v-6l147 -147v-423h-722l-132 132v-132h-725l-147 147h-6zM70 0h611v309h-111l56 149h368l46 -149h-113v-309h608v309 h-116l-393 1005h-608v-309h113l-331 -696h-130v-309zM632 1408h208l303 293h-350zM707 692q76 206 102 293q24 -91 102 -293h-204zM853 251l14 -14v14h-14z" />
<glyph unicode="&#xc2;" d="M10 -60v429h152q35 72 64.5 134.5t58.5 124.5q31 65 61.5 129t65.5 138l-48 50h-6v429h52l283 392h219l10 -15l139 -138l314 -437h-143l316 -807h47v-6l147 -147v-423h-722l-132 132v-132h-725l-147 147h-6zM70 0h611v309h-111l56 149h368l46 -149h-113v-309h608v309 h-116l-393 1005h-608v-309h113l-331 -696h-130v-309zM491 1383h221l92 135l89 -135h221l-232 323h-159zM707 692q76 206 102 293q24 -91 102 -293h-204zM853 251l14 -14v14h-14z" />
<glyph unicode="&#xc3;" d="M10 -60v429h152q35 72 64.5 134.5t58.5 124.5q31 65 61.5 129t65.5 138l-48 50h-6v429h33q0 10 -0.5 22.5t-1 23.5t-0.5 20v12q0 78 23 139q26 72 85 112q25 18 56 30q39 13 85 13q98 0 212 -63q54 -30 82 -30q2 0 6 2q0 4 0.5 14t1.5 28q1 12 1.5 28.5t1.5 34.5h270v-7 l147 -146q0 -6 1 -22.5t1.5 -35t1 -36.5t0.5 -27q0 -132 -70 -208h-1q-32 -37 -79 -57h1l333 -852h47v-6l147 -147v-423h-722l-132 132v-132h-725l-147 147h-6zM70 0h611v309h-111l56 149h368l46 -149h-113v-309h608v309h-116l-393 1005h-608v-309h113l-331 -696h-130v-309z M449 1452q0 -18 1 -42h153q5 78 59 82h6q37 0 103 -32q90 -46 171 -50q9 -1 17 -1q90 0 143 58q55 60 55 169q0 38 -1 64h-155q-3 -69 -18 -86q-19 -21 -51 -21q-44 0 -111 37q-101 56 -183 56q-35 0 -66 -10q-123 -39 -123 -224zM707 692q76 206 102 293q24 -91 102 -293 h-204zM853 251l14 -14v14h-14z" />
<glyph unicode="&#xc4;" d="M10 -60v429h152q35 72 64.5 134.5t58.5 124.5q31 65 61.5 129t65.5 138l-48 50h-6v429h97q-4 3 -7.5 6t-6.5 7q-30 32 -45.5 69t-15.5 82q0 86 61 150q66 63 152 63q87 0 150 -63q7 -7 13 -14t11 -14l46 -47q15 40 48 75q66 63 152 63q87 0 150 -63q7 -7 12.5 -14 t10.5 -14l125 -124q62 -62 62 -148t-62 -148q-37 -37 -83 -52l320 -819h47v-6l147 -147v-423h-722l-132 132v-132h-725l-147 147h-6zM70 0h611v309h-111l56 149h368l46 -149h-113v-309h608v309h-116l-393 1005h-608v-309h113l-331 -696h-130v-309zM440 1538q0 -63 44 -108 q46 -45 109 -45t108 45t45 108t-45 108t-108 45t-109 -45q-44 -45 -44 -108zM707 692q76 206 102 293q24 -91 102 -293h-204zM853 251l14 -14v14h-14zM860 1538q0 -63 44 -108q46 -45 109 -45t108 45t45 108t-45 108t-108 45t-109 -45q-44 -45 -44 -108z" />
<glyph unicode="&#xc5;" d="M10 -60v429h152q35 72 64.5 134.5t58.5 124.5q31 65 61.5 129t65.5 138l-48 50h-6v429h260q-82 70 -82 170t82 170q78 66 185 66q108 0 186 -66q12 -11 23 -22.5t19 -23.5l121 -120q65 -65 65 -154q0 -73 -44 -131l42 -42l333 -852h47v-6l147 -147v-423h-722l-132 132 v-132h-725l-147 147h-6zM70 0h611v309h-111l56 149h368l46 -149h-113v-309h608v309h-116l-393 1005h-608v-309h113l-331 -696h-130v-309zM596 1544q0 -73 61 -125q60 -54 146 -54t147 54q60 52 60 125t-60 125q-61 51 -147 51t-146 -51q-61 -52 -61 -125zM707 692 q76 206 102 293q24 -91 102 -293h-204zM741 1544q0 30 19 50q18 22 43 22q26 0 44 -22q18 -20 18 -50t-18 -52t-44 -22q-25 0 -43 22q-19 22 -19 52zM853 251l14 -14v14h-14z" />
<glyph unicode="&#xc6;" horiz-adv-x="2144" d="M10 -60v429h152q35 72 64.5 134.5t58.5 124.5q31 65 61.5 129t65.5 138l-48 50h-6v429h1679v-6l147 -147v-486h-153l3 -3v-301h3v-6l147 -147v-485h-1168l-128 128v-128h-725l-147 147h-6zM70 0h611v309h-111l56 149h368l46 -149h-117v-309h1054v371h-218v-85h-308v292 h376v247h-376v206h308v-89h218v372h-1559v-309h113l-331 -696h-130v-309zM707 692q76 206 102 293q24 -91 102 -293h-204zM853 251l10 -10v10h-10zM1658 346h41v25h-41v-25z" />
<glyph unicode="&#xc7;" horiz-adv-x="1562" d="M20 655q0 305 223 520q220 214 534 214q192 0 363 -91q6 21 12.5 41.5t10.5 34.5h292v-6l147 -147v-590h-422l-147 147h-5q-2 5 -5 8.5t-5 8.5q-20 7 -42.5 11.5t-44.5 4.5q-37 0 -79 -13l-1 1q-83 -25 -119 -95q-46 -84 -46 -199q0 -39 4.5 -75t15.5 -68 q20 -6 38.5 -8.5t36.5 -2.5q47 0 89 18q43 14 95.5 56.5t117.5 112.5l372 -218q-1 -1 -1.5 -2t-1.5 -2l148 -147q-68 -104 -142.5 -179t-159.5 -122q-35 -19 -71 -34t-73 -27l30 -30q57 -57 57 -131q0 -31 -10 -61q-36 -108 -160 -152q-84 -30 -217 -30q-112 0 -320 30 l-146 146q-3 1 -7 1v279q47 -15 86.5 -26.5t72.5 -19.5l15 53q-43 25 -83 55t-77 66l-114 114q-20 16 -37 34q-224 212 -224 520zM80 655q0 -280 205 -477q158 -154 369 -188l-44 -151q32 2 57 2q85 0 110 -18q20 -10 24 -32v-6q-2 -24 -29 -36q-33 -13 -103 -13h-19 q-82 0 -209 41v-145q153 -22 263 -22q122 0 198 27q98 35 125 116q7 22 7 43q0 61 -63 110q-52 40 -169 47l7 28q167 7 312 87q155 86 249 232l-276 162q-108 -116 -202 -149q-54 -22 -111 -22q-46 0 -96 16q-106 32 -153 122q-53 96 -53 226t53 226q47 89 153 122 q49 15 96 15q57 0 111 -21q109 -43 172 -159h331v476h-187l-31 -106q-27 18 -56 34q-159 87 -344 87q-289 0 -492 -197q-205 -198 -205 -477z" />
<glyph unicode="&#xc8;" horiz-adv-x="1302" d="M20 945v429h497l-241 233l-43 42l-114 111h534l6 -11l142 -142l127 -233h267v-6l147 -147v-486h-153l3 -3v-301h3v-6l147 -147v-485h-1168l-147 147h-6v429h148v433l-143 143h-6zM80 1005h149v-696h-148v-309h1054v371h-218v-85h-308v262h376v277h-376v196h308v-79h218 v372h-1055v-309zM267 1700l303 -293h208l-161 293h-350z" />
<glyph unicode="&#xc9;" horiz-adv-x="1302" d="M20 945v429h330l212 387h534l-5 -5l148 -148l-243 -234h199v-6l147 -147v-486h-153l3 -3v-301h3v-6l147 -147v-485h-1168l-147 147h-6v429h148v433l-143 143h-6zM80 1005h149v-696h-148v-309h1054v371h-218v-85h-308v262h376v277h-376v196h308v-79h218v372h-1055v-309z M437 1408h208l303 293h-350z" />
<glyph unicode="&#xca;" horiz-adv-x="1302" d="M20 945v429h195l283 392h219l10 -15l139 -138l172 -239h157v-6l147 -147v-486h-153l3 -3v-301h3v-6l147 -147v-485h-1168l-147 147h-6v429h148v433l-143 143h-6zM80 1005h149v-696h-148v-309h1054v371h-218v-85h-308v262h376v277h-376v196h308v-79h218v372h-1055v-309z M296 1383h221l92 135l89 -135h221l-232 323h-159z" />
<glyph unicode="&#xcb;" horiz-adv-x="1302" d="M20 945v429h240q-4 3 -7.5 6t-6.5 7q-30 32 -45.5 69t-15.5 82q0 86 61 150q66 63 152 63q87 0 150 -63q7 -7 13 -14t11 -14l46 -47q15 40 48 75q66 63 152 63q87 0 150 -63q7 -7 12.5 -14t10.5 -14l125 -124q62 -62 62 -148q0 -10 -1 -14h18v-6l147 -147v-486h-153l3 -3 v-301h3v-6l147 -147v-485h-1168l-147 147h-6v429h148v433l-143 143h-6zM80 1005h149v-696h-148v-309h1054v371h-218v-85h-308v262h376v277h-376v196h308v-79h218v372h-1055v-309zM245 1538q0 -63 44 -108q46 -45 109 -45t108 45t45 108t-45 108t-108 45t-109 -45 q-44 -45 -44 -108zM665 1538q0 -63 44 -108q46 -45 109 -45t108 45t45 108t-45 108t-108 45t-109 -45q-44 -45 -44 -108z" />
<glyph unicode="&#xcc;" horiz-adv-x="915" d="M-68 1760h534l6 -11l142 -142l127 -233h66v-6l147 -147v-423h-136v-446l137 -137v-422h-767l-147 147h-6v428h136v446l-131 131h-6v429h296l-241 233l-43 42zM80 1700l303 -293h208l-161 293h-350zM94 1005h137v-697h-136v-308h653v308h-137v697h136v309h-653v-309z" />
<glyph unicode="&#xcd;" horiz-adv-x="999" d="M20 945v429h130l212 387h534l-5 -5l148 -148l-246 -237v-4l147 -146v-423h-136v-446l137 -137v-422h-767l-147 147h-6v428h136v446l-131 131h-6zM80 1005h137v-697h-136v-308h653v308h-137v697h136v309h-653v-309zM237 1408h208l303 293h-350z" />
<glyph unicode="&#xce;" horiz-adv-x="940" d="M-21 1323l319 443h219l10 -15l139 -138l314 -437h-40v-378h-136v-446l137 -137v-422h-767l-147 147h-6v428h136v446l-131 131h-6v346l-32 32h-9zM80 1005h137v-697h-136v-308h653v308h-137v697h136v309h-653v-309zM96 1383h221l92 135l89 -135h221l-232 323h-159z" />
<glyph unicode="&#xcf;" horiz-adv-x="973" d="M20 1538q0 86 61 150q66 63 152 63q87 0 150 -63q7 -7 13 -14t11 -14l46 -47q15 40 48 75q66 63 152 63q87 0 150 -63q7 -7 12.5 -14t10.5 -14l125 -124q62 -62 62 -148q0 -84 -59 -145l22 -22v-423h-136v-446l137 -137v-422h-767l-147 147h-6v428h136v446l-131 131h-6 v429h39q-4 3 -7.5 6t-6.5 7q-30 32 -45.5 69t-15.5 82zM80 1538q0 -63 44 -108q46 -45 109 -45t108 45t45 108t-45 108t-108 45t-109 -45q-44 -45 -44 -108zM116 1005h137v-697h-136v-308h653v308h-137v697h136v309h-653v-309zM500 1538q0 -63 44 -108q46 -45 109 -45 t108 45t45 108t-45 108t-108 45t-109 -45q-44 -45 -44 -108z" />
<glyph unicode="&#xd0;" horiz-adv-x="1630" d="M20 -60v429h147l-141 141h-6v327h114l-108 108h-6v429h753q308 -1 529 -210q17 -17 33.5 -34t30.5 -35l96 -95q208 -207 208 -493q0 -143 -58.5 -272.5t-161.5 -232.5q-108 -98 -243 -153.5t-284 -55.5h-750l-147 147h-6zM80 0h693q286 0 488 193q202 192 202 464 t-202 464t-488 193h-693v-309h148v-228h-148v-207h148v-261h-148v-309zM608 294v276h143v207h-143v243h165q134 0 236 -116q98 -111 98 -247t-98 -247q-102 -116 -236 -116h-165zM815 358q5 1 9.5 2t9.5 3h-19v-5zM829 813l129 -129v-241q2 2 3 3.5t3 3.5q37 45 60 99.5 t23 107.5q0 34 -10 69.5t-28 68.5q-42 18 -86 18h-94z" />
<glyph unicode="&#xd1;" horiz-adv-x="1761" d="M20 -60v428h148v436l-142 142h-6v428h405q0 10 -0.5 22.5t-1 23.5t-0.5 20v12q0 78 23 139q26 72 85 112q25 18 56 30q39 13 85 13q98 0 212 -63q54 -30 82 -30q2 0 6 2q0 4 0.5 14t1.5 28q1 12 1.5 28.5t1.5 34.5h270v-7l147 -146q0 -6 1 -22.5t1.5 -35t1 -36.5t0.5 -27 q0 -32 -4 -59.5t-12 -52.5h272v-6l147 -147v-423h-130v-452l130 -130v-423h-1628l-147 147h-6zM80 0h653v308h-150v524l308 -523h-51v-309h754v309h-130v696h130v309h-654v-309h169v-462l-376 643v128h-653v-308h148v-698h-148v-308zM483 1452q0 -18 1 -42h153q5 78 59 82h6 q37 0 103 -32q90 -46 171 -50q9 -1 17 -1q90 0 143 58q55 60 55 169q0 38 -1 64h-155q-3 -69 -18 -86q-19 -21 -51 -21q-44 0 -111 37q-101 56 -183 56q-35 0 -66 -10q-123 -39 -123 -224z" />
<glyph unicode="&#xd2;" horiz-adv-x="1611" d="M-10 655q0 305 223 520q184 180 434 208l-232 224l-37 37l-120 116h534l6 -11l142 -142l166 -304q48 -25 91 -57t84 -71q15 -15 29 -30t27 -31l104 -103q210 -212 210 -506q0 -306 -223 -517l1 -1q-220 -214 -532 -214q-314 0 -532 214l-114 113q-9 8 -18.5 17t-18.5 18 q-224 212 -224 520zM50 655q0 -280 205 -477q203 -198 492 -198t492 198q205 197 205 477q0 279 -205 477q-203 197 -492 197t-492 -197q-205 -198 -205 -477zM406 1700l303 -293h208l-161 293h-350zM473 655q0 168 86 268q77 89 188 89q112 0 189 -89q86 -100 86 -268 q0 -169 -86 -268q-77 -90 -189 -90q-111 1 -188 90q-86 99 -86 268zM680 505q0 -40 4.5 -74.5t15.5 -64.5q24 -9 47 -9q85 0 144 69q71 82 71 229q0 81 -23 145q-11 2 -21 3.5t-21 1.5q-42 0 -79 -18t-66 -51q-72 -86 -72 -231z" />
<glyph unicode="&#xd3;" horiz-adv-x="1611" d="M-10 655q0 305 223 520q121 118 272 171l-1 2h-8l226 413h534l-5 -5l148 -148l-302 -291q56 -26 106 -61.5t98 -80.5q15 -15 29 -30t28 -31l103 -103q210 -212 210 -506q0 -306 -223 -517l1 -1q-220 -214 -532 -214q-314 0 -532 214l-114 113q-9 8 -18.5 17t-18.5 18 q-224 212 -224 520zM50 655q0 -280 205 -477q203 -198 492 -198t492 198q205 197 205 477q0 279 -205 477q-203 197 -492 197t-492 -197q-205 -198 -205 -477zM473 655q0 168 86 268q77 89 188 89q112 0 189 -89q86 -100 86 -268q0 -169 -86 -268q-77 -90 -189 -90 q-111 1 -188 90q-86 99 -86 268zM577 1408h208l303 293h-350zM680 505q0 -40 4.5 -74.5t15.5 -64.5q24 -9 47 -9q85 0 144 69q71 82 71 229q0 81 -23 145q-11 2 -21 3.5t-21 1.5q-42 0 -79 -18t-66 -51q-72 -86 -72 -231z" />
<glyph unicode="&#xd4;" horiz-adv-x="1611" d="M-10 655q0 305 223 520q70 68 148 114l-33 34h-9l319 443h219l10 -15l139 -138l314 -437h-40q0 -1 1 -1q15 -15 29 -30t27 -31l104 -103q210 -212 210 -506q0 -306 -223 -517l1 -1q-220 -214 -532 -214q-314 0 -532 214l-114 113q-9 8 -18.5 17t-18.5 18 q-224 212 -224 520zM50 655q0 -280 205 -477q203 -198 492 -198t492 198q205 197 205 477q0 279 -205 477q-203 197 -492 197t-492 -197q-205 -198 -205 -477zM436 1383h221l92 135l89 -135h221l-232 323h-159zM473 655q0 168 86 268q77 89 188 89q112 0 189 -89 q86 -100 86 -268q0 -169 -86 -268q-77 -90 -189 -90q-111 1 -188 90q-86 99 -86 268zM680 505q0 -40 4.5 -74.5t15.5 -64.5q24 -9 47 -9q85 0 144 69q71 82 71 229q0 81 -23 145q-11 2 -21 3.5t-21 1.5q-42 0 -79 -18t-66 -51q-72 -86 -72 -231z" />
<glyph unicode="&#xd5;" horiz-adv-x="1611" d="M-10 655q0 305 223 520q80 78 175 129l-45 46h-6q0 6 -1 21t-1.5 31.5t-1 30.5t-0.5 19q0 78 23 139q26 72 85 112q25 18 56 30q39 13 85 13q98 0 212 -63q54 -30 82 -30q2 0 6 2q0 4 0.5 14t1.5 28q1 12 1.5 28.5t1.5 34.5h270v-7l147 -146q0 -6 1 -22.5t1.5 -35 t1 -36.5t0.5 -27q0 -132 -70 -208h-1q-8 -10 -17 -18.5t-20 -15.5q42 -32 81 -69q15 -15 29 -30t27 -31l104 -103q210 -212 210 -506q0 -306 -223 -517l1 -1q-220 -214 -532 -214q-314 0 -532 214l-114 113q-9 8 -18.5 17t-18.5 18q-224 212 -224 520zM50 655 q0 -280 205 -477q203 -198 492 -198t492 198q205 197 205 477q0 279 -205 477q-203 197 -492 197t-492 -197q-205 -198 -205 -477zM393 1452q0 -18 1 -42h153q5 78 59 82h6q37 0 103 -32q90 -46 171 -50q9 -1 17 -1q90 0 143 58q55 60 55 169q0 38 -1 64h-155 q-3 -69 -18 -86q-19 -21 -51 -21q-44 0 -111 37q-101 56 -183 56q-35 0 -66 -10q-123 -39 -123 -224zM473 655q0 168 86 268q77 89 188 89q112 0 189 -89q86 -100 86 -268q0 -169 -86 -268q-77 -90 -189 -90q-111 1 -188 90q-86 99 -86 268zM680 505q0 -40 4.5 -74.5 t15.5 -64.5q24 -9 47 -9q85 0 144 69q71 82 71 229q0 81 -23 145q-11 2 -21 3.5t-21 1.5q-42 0 -79 -18t-66 -51q-72 -86 -72 -231z" />
<glyph unicode="&#xd6;" horiz-adv-x="1611" d="M-10 655q0 305 223 520q53 51 110.5 89.5t120.5 65.5l-34 35q-7 5 -13 10.5t-12 11.5q-30 32 -45.5 69t-15.5 82q0 86 61 150q66 63 152 63q87 0 150 -63q7 -7 13 -14t11 -14l46 -47q15 40 48 75q66 63 152 63q87 0 150 -63q7 -7 12.5 -14t10.5 -14l125 -124 q62 -62 62 -148t-62 -148q-12 -12 -24 -21q25 -21 50 -44q15 -15 29 -30t27 -31l104 -103q210 -212 210 -506q0 -306 -223 -517l1 -1q-220 -214 -532 -214q-314 0 -532 214l-114 113q-9 8 -18.5 17t-18.5 18q-224 212 -224 520zM50 655q0 -280 205 -477q203 -198 492 -198 t492 198q205 197 205 477q0 279 -205 477q-203 197 -492 197t-492 -197q-205 -198 -205 -477zM384 1538q0 -63 44 -108q46 -45 109 -45t108 45t45 108t-45 108t-108 45t-109 -45q-44 -45 -44 -108zM473 655q0 168 86 268q77 89 188 89q112 0 189 -89q86 -100 86 -268 q0 -169 -86 -268q-77 -90 -189 -90q-111 1 -188 90q-86 99 -86 268zM680 505q0 -40 4.5 -74.5t15.5 -64.5q24 -9 47 -9q85 0 144 69q71 82 71 229q0 81 -23 145q-11 2 -21 3.5t-21 1.5q-42 0 -79 -18t-66 -51q-72 -86 -72 -231zM804 1538q0 -63 44 -108q46 -45 109 -45 t108 45t45 108t-45 108t-108 45t-109 -45q-44 -45 -44 -108z" />
<glyph unicode="&#xd7;" horiz-adv-x="1196" d="M-35 446l277 278l-57 57t-59 58q-42 42 -84 83t-77 76l286 287l277 -275l275 275l287 -287l-2 -2l148 -148l-275 -272q34 -35 67 -68l62 -62l-2 -2q11 -11 20.5 -21t20.5 -20l107 -107l-283 -280l-148 148l-2 -2l-129 129l-68.5 -68.5l-71.5 -71.5t-70 -70.5t-63 -63.5 l-149 147l-1 -1zM50 447l201 -200l277 278l275 -278l202 200l-277 278l277 274l-202 202l-275 -275l-277 275l-201 -202l277 -274z" />
<glyph unicode="&#xd8;" horiz-adv-x="1641" d="M20 659q0 305 223 520q220 214 534 214q74 0 143 -12q8 18 17.5 39t19 41.5t18 39.5t14.5 34h316l-3 -6l148 -147l-105 -238q6 -6 11.5 -12.5t10.5 -13.5l87 -87q-1 2 -2 2.5t-2 1.5l21 -20q210 -212 210 -506q0 -306 -223 -517l1 -1q-220 -214 -532 -214 q-37 0 -73.5 3.5t-71.5 9.5q-22 -50 -47.5 -106t-44.5 -99h-307l-147 147h-8l130 296l-65 65q-13 11 -25.5 22.5t-23.5 23.5q-17 17 -33.5 35t-31.5 38q-95 116 -133 258q-26 93 -26 189zM80 659q0 -280 205 -477q72 -70 155 -116l-120 -274h183l95 213q85 -21 179 -21 q289 0 492 198q205 197 205 477q0 279 -205 477q-72 70 -155 115l99 224h-185l-73 -163q-85 21 -178 21q-289 0 -492 -197q-205 -198 -205 -477zM440 659q0 168 106 268q95 89 232 89t232 -89q105 -100 105 -268q0 -169 -105 -268q-95 -90 -232 -90q-137 1 -232 90 q-106 99 -106 268zM647 509q0 -35 5 -66.5t16 -59.5q52 -22 110 -22q113 0 191 73q86 83 86 225q0 74 -24 131q-24 9 -49.5 14t-53.5 5q-114 0 -193 -74h-1q-87 -84 -87 -226z" />
<glyph unicode="&#xd9;" d="M20 943v431h697l-241 233l-43 42l-114 111h534l6 -11l142 -142l127 -233h467v-6l147 -147v-425h-157v-414q0 -251 -184 -432q-185 -179 -444 -179q-130 0 -240.5 44t-203.5 135l-111 111q-11 8 -21 17.5t-20 19.5q-186 180 -186 434v264h-2l-147 147h-6zM80 1003h155 v-471q0 -228 168 -391t404 -163q235 0 404 163q167 163 167 391v471h157v311h-682v-311h156v-511q-10 -97 -70 -149q-54 -50 -132 -50h-3q-76 0 -129 50q-61 52 -71 149v511h155v311h-679v-311zM467 1700l303 -293h208l-161 293h-350zM811 353q51 2 87 34q22 18 34 45t17 62 v302h-138v-443z" />
<glyph unicode="&#xda;" d="M20 943v431h530l212 387h534l-5 -5l148 -148l-243 -234h399v-6l147 -147v-425h-157v-414q0 -251 -184 -432q-185 -179 -444 -179q-130 0 -240.5 44t-203.5 135l-111 111q-11 8 -21 17.5t-20 19.5q-186 180 -186 434v264h-2l-147 147h-6zM80 1003h155v-471 q0 -228 168 -391t404 -163q235 0 404 163q167 163 167 391v471h157v311h-682v-311h156v-511q-10 -97 -70 -149q-54 -50 -132 -50h-3q-76 0 -129 50q-61 52 -71 149v511h155v311h-679v-311zM637 1408h208l303 293h-350zM811 353q51 2 87 34q22 18 34 45t17 62v302h-138v-443z " />
<glyph unicode="&#xdb;" d="M20 943v431h395l283 392h219l10 -15l139 -138l172 -239h357v-6l147 -147v-425h-157v-414q0 -251 -184 -432q-185 -179 -444 -179q-130 0 -240.5 44t-203.5 135l-111 111q-11 8 -21 17.5t-20 19.5q-186 180 -186 434v264h-2l-147 147h-6zM80 1003h155v-471 q0 -228 168 -391t404 -163q235 0 404 163q167 163 167 391v471h157v311h-682v-311h156v-511q-10 -97 -70 -149q-54 -50 -132 -50h-3q-76 0 -129 50q-61 52 -71 149v511h155v311h-679v-311zM496 1383h221l92 135l89 -135h221l-232 323h-159zM811 353q51 2 87 34q22 18 34 45 t17 62v302h-138v-443z" />
<glyph unicode="&#xdc;" d="M20 943v431h440q-4 3 -7.5 6t-6.5 7q-30 32 -45.5 69t-15.5 82q0 86 61 150q66 63 152 63q87 0 150 -63q7 -7 13 -14t11 -14l46 -47q15 40 48 75q66 63 152 63q87 0 150 -63q7 -7 12.5 -14t10.5 -14l125 -124q62 -62 62 -148q0 -10 -1 -14h218v-6l147 -147v-425h-157 v-414q0 -251 -184 -432q-185 -179 -444 -179q-130 0 -240.5 44t-203.5 135l-111 111q-11 8 -21 17.5t-20 19.5q-186 180 -186 434v264h-2l-147 147h-6zM80 1003h155v-471q0 -228 168 -391t404 -163q235 0 404 163q167 163 167 391v471h157v311h-682v-311h156v-511 q-10 -97 -70 -149q-54 -50 -132 -50h-3q-76 0 -129 50q-61 52 -71 149v511h155v311h-679v-311zM445 1538q0 -63 44 -108q46 -45 109 -45t108 45t45 108t-45 108t-108 45t-109 -45q-44 -45 -44 -108zM811 353q51 2 87 34q22 18 34 45t17 62v302h-138v-443zM865 1538 q0 -63 44 -108q46 -45 109 -45t108 45t45 108t-45 108t-108 45t-109 -45q-44 -45 -44 -108z" />
<glyph unicode="&#xdd;" horiz-adv-x="1636" d="M20 947v427h497l212 387h534l-5 -5l148 -148l-243 -234h366v-6l147 -147v-421h-182q-40 -59 -77.5 -115t-74.5 -110.5t-74 -110t-76 -113.5l136 -136v-422h-806l-147 147h-6v428h156v101q-51 75 -101 150.5t-98 146.5q-6 8 -12 16.5t-11 17.5h-130l-147 147h-6zM80 1007 h156l349 -520v-179h-156v-308h692v308h-157v179l349 520h156v307h-608v-307h79q-84 -160 -165 -299q-81 139 -166 299h80v307h-609v-307zM604 1408h208l303 293h-350z" />
<glyph unicode="&#xde;" horiz-adv-x="1250" d="M50 -60v1434h461v-6l147 -147v-82h20q211 -1 348 -149q6 -7 12 -13.5t11 -14.5l125 -124q116 -127 116 -300v-15.5t-1 -14.5q-9 -186 -146 -317q-150 -144 -359 -144h-126v-254h-455l-147 147h-6zM110 0h341v254h183q186 0 320 128q120 116 128 283q1 12 1 23 q0 152 -101 261q-120 129 -304 130l-227 1v234h-341v-1314zM451 520v293h114q93 0 146 -46q45 -39 45 -94v-7q-3 -59 -55 -101q-57 -45 -152 -45h-98zM1052 408q53 71 73 153q-12 -41 -30.5 -79.5t-42.5 -73.5z" />
<glyph unicode="&#xdf;" horiz-adv-x="1466" d="M-40 -60v427h127v536q0 135 41.5 233t119.5 155q134 93 430 93q256 0 378 -89q46 -34 74 -72l119 -118q83 -83 83 -196q0 -82 -76 -198q-24 -36 -37 -61t-18 -40q62 -46 99 -94l114 -113q92 -92 92 -202q0 -66 -20.5 -121t-61.5 -102l-1 1q-36 -42 -86 -71t-108 -46 q-66 -18 -139 -18q-24 0 -48 1.5t-49 6.5q-123 20 -258 118v-177h-622l-147 147h-6zM20 0h508v870q0 76 37 129q33 46 82 60q17 5 32 5q28 0 50 -15q38 -27 38 -86q0 -55 -43 -125q-43 -90 -43 -146q0 -102 132 -179q73 -47 90 -71q23 -31 23 -62v-6q-3 -31 -26 -50 q-19 -16 -44 -16q-4 0 -9 1q-34 4 -64 37l-128 -207q85 -63 198 -81q44 -7 87 -7q64 0 124 16q105 29 167 99q68 76 68 185q0 123 -154 224q-85 56 -106 75q-48 45 -48 96q0 43 67 146q67 104 67 167q0 111 -105 188t-342 77q-278 0 -395 -82q-136 -95 -136 -339v-596h-127 v-307zM735 385l37 61q34 -38 55 -57t29 -21h1q-3 2 -6 5.5t-5 6.5l-111 111v-106z" />
<glyph unicode="&#xe0;" horiz-adv-x="1247" d="M-30 287q0 146 117 248l-91 303q149 119 342 151q29 4 57.5 6t55.5 4l-228 220l-38 38l-119 115h534l6 -11l142 -142l223 -407h-49l90 -91l-1 1l4 -3q49 -49 84 -119q56 -113 63 -261l125 -124v-422h-431l-39 39q-2 -1 -3.5 -1t-3.5 -1l1 -1q-92 -43 -286 -43 q-81 0 -151.5 25t-129.5 76q-7 6 -13.5 12t-12.5 12l-114 114q-3 2 -6 4.5t-6 5.5q-122 104 -122 252zM30 287q0 -121 101 -207q101 -87 244 -87q182 0 262 38q32 14 46 30l50 -61h347v308h-123v130q0 168 -59 287q-69 139 -211 188q-80 27 -176 27q-80 0 -165 -10 q-173 -28 -280 -113l64 -213q128 101 245 112q16 2 33 2q38 0 84 -10q73 -15 113 -60q30 -36 35 -95q2 -14 2 -28q-95 56 -267 56q-143 0 -244 -86t-101 -208zM214 1312l303 -293h208l-161 293h-350zM325 297q0 40 39 67q40 28 115 28q76 0 115 -28q39 -27 39 -67 q0 -39 -39 -67t-115 -28q-75 0 -115 28q-39 28 -39 67z" />
<glyph unicode="&#xe1;" horiz-adv-x="1247" d="M-30 287q0 146 117 248l-91 303q66 54 141 89t158 54l215 392h534l-5 -5l148 -148l-341 -329q30 -27 53 -57l116 -115q49 -49 84 -119q56 -113 63 -261l125 -124v-422h-431l-39 39q-2 -1 -3.5 -1t-3.5 -1l1 -1q-92 -43 -286 -43q-81 0 -151.5 25t-129.5 76q-7 6 -13.5 12 t-12.5 12l-114 114q-3 2 -6 4.5t-6 5.5q-122 104 -122 252zM30 287q0 -121 101 -207q101 -87 244 -87q182 0 262 38q32 14 46 30l50 -61h347v308h-123v130q0 168 -59 287q-69 139 -211 188q-80 27 -176 27q-80 0 -165 -10q-173 -28 -280 -113l64 -213q128 101 245 112 q16 2 33 2q38 0 84 -10q73 -15 113 -60q30 -36 35 -95q2 -14 2 -28q-95 56 -267 56q-143 0 -244 -86t-101 -208zM325 297q0 40 39 67q40 28 115 28q76 0 115 -28q39 -27 39 -67q0 -39 -39 -67t-115 -28q-75 0 -115 28q-39 28 -39 67zM385 1020h208l303 293h-350z" />
<glyph unicode="&#xe2;" horiz-adv-x="1247" d="M-30 287q0 146 117 248l-91 303q69 55 145 91l-6 6h-8l319 443h219l10 -15l139 -138l314 -437h-182l69 -69q49 -49 84 -119q56 -113 63 -261l125 -124v-422h-431l-39 39q-2 -1 -3.5 -1t-3.5 -1l1 -1q-92 -43 -286 -43q-81 0 -151.5 25t-129.5 76q-7 6 -13.5 12t-12.5 12 l-114 114q-3 2 -6 4.5t-6 5.5q-122 104 -122 252zM30 287q0 -121 101 -207q101 -87 244 -87q182 0 262 38q32 14 46 30l50 -61h347v308h-123v130q0 168 -59 287q-69 139 -211 188q-80 27 -176 27q-80 0 -165 -10q-173 -28 -280 -113l64 -213q128 101 245 112q16 2 33 2 q38 0 84 -10q73 -15 113 -60q30 -36 35 -95q2 -14 2 -28q-95 56 -267 56q-143 0 -244 -86t-101 -208zM244 995h221l92 135l89 -135h221l-232 323h-159zM325 297q0 40 39 67q40 28 115 28q76 0 115 -28q39 -27 39 -67q0 -39 -39 -67t-115 -28q-75 0 -115 28q-39 28 -39 67z " />
<glyph unicode="&#xe3;" horiz-adv-x="1247" d="M-30 287q0 146 117 248l-91 303q40 32 83.5 57.5t90.5 45.5l-19 21h-6q0 6 -1 21t-1.5 31.5t-1 30.5t-0.5 19q0 78 23 139q26 72 85 112q25 18 56 30q39 13 85 13q98 0 212 -63q54 -30 82 -30q2 0 6 2q0 4 0.5 14t1.5 28q1 12 1.5 28.5t1.5 34.5h270v-7l147 -146 q0 -6 1 -22.5t1.5 -35t1 -36.5t0.5 -27q0 -132 -70 -208h-1q-51 -57 -130 -72l97 -97l-1 1l4 -3q49 -49 84 -119q56 -113 63 -261l125 -124v-422h-431l-39 39q-2 -1 -3.5 -1t-3.5 -1l1 -1q-92 -43 -286 -43q-81 0 -151.5 25t-129.5 76q-7 6 -13.5 12t-12.5 12l-114 114 q-3 2 -6 4.5t-6 5.5q-122 104 -122 252zM30 287q0 -121 101 -207q101 -87 244 -87q182 0 262 38q32 14 46 30l50 -61h347v308h-123v130q0 168 -59 287q-69 139 -211 188q-80 27 -176 27q-80 0 -165 -10q-173 -28 -280 -113l64 -213q128 101 245 112q16 2 33 2q38 0 84 -10 q73 -15 113 -60q30 -36 35 -95q2 -14 2 -28q-95 56 -267 56q-143 0 -244 -86t-101 -208zM201 1064q0 -18 1 -42h153q5 78 59 82h6q37 0 103 -32q90 -46 171 -50q9 -1 17 -1q90 0 143 58q55 60 55 169q0 38 -1 64h-155q-3 -69 -18 -86q-19 -21 -51 -21q-44 0 -111 37 q-101 56 -183 56q-35 0 -66 -10q-123 -39 -123 -224zM325 297q0 40 39 67q40 28 115 28q76 0 115 -28q39 -27 39 -67q0 -39 -39 -67t-115 -28q-75 0 -115 28q-39 28 -39 67z" />
<glyph unicode="&#xe4;" horiz-adv-x="1247" d="M-30 287q0 146 117 248l-91 303q105 84 235 125l-12 13q-7 5 -13.5 10.5t-12.5 12.5q-30 32 -45.5 69t-15.5 82q0 86 61 150q66 63 152 63q87 0 150 -63q7 -7 13 -14t11 -14l46 -47q15 40 48 75q66 63 152 63q87 0 150 -63q7 -7 12.5 -14t10.5 -14l125 -124 q62 -62 62 -148t-62 -148q-52 -52 -121 -61l70 -70l-1 1l4 -3q49 -49 84 -119q56 -113 63 -261l125 -124v-422h-431l-39 39q-2 -1 -3.5 -1t-3.5 -1l1 -1q-92 -43 -286 -43q-81 0 -151.5 25t-129.5 76q-7 6 -13.5 12t-12.5 12l-114 114q-3 2 -6 4.5t-6 5.5q-122 104 -122 252 zM30 287q0 -121 101 -207q101 -87 244 -87q182 0 262 38q32 14 46 30l50 -61h347v308h-123v130q0 168 -59 287q-69 139 -211 188q-80 27 -176 27q-80 0 -165 -10q-173 -28 -280 -113l64 -213q128 101 245 112q16 2 33 2q38 0 84 -10q73 -15 113 -60q30 -36 35 -95 q2 -14 2 -28q-95 56 -267 56q-143 0 -244 -86t-101 -208zM192 1150q0 -63 44 -108q46 -45 109 -45t108 45t45 108t-45 108t-108 45t-109 -45q-44 -45 -44 -108zM325 297q0 40 39 67q40 28 115 28q76 0 115 -28q39 -27 39 -67q0 -39 -39 -67t-115 -28q-75 0 -115 28 q-39 28 -39 67zM612 1150q0 -63 44 -108q46 -45 109 -45t108 45t45 108t-45 108t-108 45t-109 -45q-44 -45 -44 -108z" />
<glyph unicode="&#xe5;" horiz-adv-x="1247" d="M-30 287q0 146 117 248l-91 303q149 119 342 151q13 2 26 2q-76 69 -76 165q0 100 82 170q78 66 185 66q108 0 186 -66q12 -11 23 -22.5t19 -23.5l121 -120q65 -65 65 -154q0 -96 -76 -165q3 -3 6 -7l112 -112l4 -3q49 -49 84 -119q56 -113 63 -261l125 -124v-422h-431 l-39 39q-2 -1 -3.5 -1t-3.5 -1l1 -1q-92 -43 -286 -43q-81 0 -151.5 25t-129.5 76q-7 6 -13.5 12t-12.5 12l-114 114q-3 2 -6 4.5t-6 5.5q-122 104 -122 252zM30 287q0 -121 101 -207q101 -87 244 -87q182 0 262 38q32 14 46 30l50 -61h347v308h-123v130q0 168 -59 287 q-69 139 -211 188q-80 27 -176 27q-80 0 -165 -10q-173 -28 -280 -113l64 -213q128 101 245 112q16 2 33 2q38 0 84 -10q73 -15 113 -60q30 -36 35 -95q2 -14 2 -28q-95 56 -267 56q-143 0 -244 -86t-101 -208zM325 297q0 40 39 67q40 28 115 28q76 0 115 -28q39 -27 39 -67 q0 -39 -39 -67t-115 -28q-75 0 -115 28q-39 28 -39 67zM348 1156q0 -73 61 -125q60 -54 146 -54t147 54q60 52 60 125t-60 125q-61 51 -147 51t-146 -51q-61 -52 -61 -125zM493 1156q0 30 19 50q18 22 43 22q26 0 44 -22q18 -20 18 -50t-18 -52t-44 -22q-25 0 -43 22 q-19 22 -19 52z" />
<glyph unicode="&#xe6;" horiz-adv-x="1931" d="M20 284q0 143 116 248l-90 302q74 60 160.5 98.5t180.5 52.5h-1q35 6 69.5 9t66.5 3q107 0 195 -31q118 -41 189 -132q75 82 171.5 124t214.5 42q106 0 203 -50t176 -138q4 -6 7 -9l117 -117q6 -6 12 -12.5t12 -13.5q72 -88 112 -203.5t40 -252.5l-102 -1l72 -71 q-78 -150 -186.5 -236t-238.5 -108q-23 -4 -45.5 -5.5t-42.5 -1.5q-138 0 -254 67v-59h-311l-57 57q-49 -30 -108 -46.5t-123 -16.5q-163 0 -281 100q-6 5 -12 10.5t-11 10.5l-117 117q-3 2 -6 4.5t-6 5.5q-122 104 -122 253zM80 284q0 -122 101 -208t244 -86q154 0 257 97 l61 -91h224v115q134 -123 311 -123q39 0 80 6q238 34 350 252l-276 76l-24 6q-41 -62 -116 -62q-118 0 -140 143q0 2 1 2h611q0 201 -138 362q-143 167 -334 167q-249 0 -390 -208q-70 130 -205 177q-80 28 -175 28q-60 0 -126 -11q-173 -27 -280 -113l64 -213 q126 87 252 87q25 0 49 -3q70 -9 107 -48q35 -36 35 -91q0 -10 -1 -20q-88 53 -197 53q-143 0 -244 -86q-101 -87 -101 -208zM375 284q0 39 39 67q40 28 95 28q56 0 95 -28t39 -67q0 -40 -39 -68q-39 -27 -95 -27q-55 0 -95 27q-39 28 -39 68zM1171 593q26 135 121 135 q96 0 122 -135h-243z" />
<glyph unicode="&#xe7;" horiz-adv-x="1171" d="M-20 461v12q1 91 27 169t77 147q95 128 251 184q88 32 221 32q57 -3 103.5 -15.5t81.5 -32.5q3 5 6.5 10t5.5 9q1 1 5 9h235v-6l147 -147v-475h-264l111 -111l224 -257q-77 -65 -145 -108t-129 -62q-5 -2 -8.5 -3t-8.5 -2l37 -37q57 -57 57 -131q0 -31 -10 -61 q-36 -108 -160 -152q-84 -30 -217 -30q-112 0 -320 30l-146 146q-3 1 -7 1v279q47 -15 86.5 -26.5t72.5 -19.5l24 84q-27 20 -53 46l-109 108q-26 21 -48.5 44.5t-42.5 50.5q-103 139 -104 315zM40 462q2 -159 92 -280q86 -114 223 -163q35 -13 74 -20l-46 -160q32 2 57 2 q85 0 110 -18q20 -10 24 -32v-6q-2 -24 -29 -36q-33 -13 -103 -13h-19q-82 0 -209 41v-145q153 -22 263 -22q122 0 198 27q98 35 125 116q7 22 7 43q0 61 -63 110q-52 40 -169 47l9 38q109 7 185 32q111 35 211 121l-150 173q-36 -30 -74 -44q-52 -21 -94 -25q-19 -2 -38 -2 q-25 0 -52 3q-48 6 -95 23q-48 21 -78 53q-56 59 -56 144q0 84 55 148q54 63 173 63h4q128 -13 130 -116h228v361h-143l-38 -54q-61 66 -197 74q-120 0 -200 -29q-137 -49 -223 -163q-90 -121 -92 -280v-11zM550 313q7 -2 14 -2.5t14 -1.5q12 -2 25 -2.5t21 -0.5h11t11 1 q3 0 5.5 0.5t6.5 0.5q17 2 36.5 7.5t40.5 13.5q18 6 57 35l-107 107q-63 -6 -94 -41q-41 -47 -41 -111v-6zM588 216q0 -2 2 -2z" />
<glyph unicode="&#xe8;" horiz-adv-x="1214" d="M-10 469q0 119 43 220q20 46 50 89t65 77q37 34 79.5 62.5t87.5 46.5q54 22 120 33l-230 222l-38 37l-119 116h534l6 -11l142 -142l176 -324q12 -9 23 -18.5t22 -19.5q25 -23 48 -51l117 -117q27 -26 47.5 -59.5t34.5 -70.5q32 -74 32 -179q0 -38 -6 -80 q-3 -20 -10.5 -47.5t-20.5 -65.5h-115l176 -202q-77 -66 -145.5 -108.5t-129.5 -61.5q-122 -38 -307 -38q-96 0 -186 31q-94 31 -170 97q-6 5 -11.5 10.5l-10.5 10.5l-113 112q-5 4 -9 7.5t-8 7.5q-38 33 -69 75.5t-56 94.5q-49 104 -49 246zM50 469q0 -129 43 -221 t110 -150t151 -86t168 -28q179 0 290 35t211 121l-150 173q-36 -30 -63 -47q-32 -18 -70 -33q-23 -10 -44 -14q-31 -7 -78 -7h-12q-111 6 -145 32q-33 16 -53 39t-28 48t-11 63h633q10 31 16 65q5 35 5 71q0 91 -29 159q-28 78 -85 125q-58 57 -141 93q-86 38 -217 38 q-122 0 -213 -37q-84 -35 -149 -96q-64 -61 -101 -147q-38 -87 -38 -196zM196 1312l303 -293h208l-161 293h-350zM374 578q1 23 7 37q7 22 22 45q17 30 48 51q44 30 113 31q69 0 116 -30q26 -16 40 -43q13 -21 18 -47q4 -14 6 -44h-370z" />
<glyph unicode="&#xe9;" horiz-adv-x="1214" d="M-10 469q0 119 43 220q20 46 50 89t65 77q30 27 64 51.5t71 42.5l-10 11h-8l226 413h534l-5 -5l148 -148l-306 -295q25 -15 47 -32t42 -36q25 -23 48 -51l114 -115l-1 1l4 -3q27 -26 47.5 -59.5t34.5 -70.5q32 -74 32 -179q0 -38 -6 -80q-3 -20 -10.5 -47.5t-20.5 -65.5 h-115l176 -202q-77 -66 -145.5 -108.5t-129.5 -61.5q-122 -38 -307 -38q-96 0 -186 31q-94 31 -170 97q-6 5 -11.5 10.5l-10.5 10.5l-113 112q-5 4 -9 7.5t-8 7.5q-38 33 -69 75.5t-56 94.5q-49 104 -49 246zM50 469q0 -129 43 -221t110 -150t151 -86t168 -28q179 0 290 35 t211 121l-150 173q-36 -30 -63 -47q-32 -18 -70 -33q-23 -10 -44 -14q-31 -7 -78 -7h-12q-111 6 -145 32q-33 16 -53 39t-28 48t-11 63h633q10 31 16 65q5 35 5 71q0 91 -29 159q-28 78 -85 125q-58 57 -141 93q-86 38 -217 38q-122 0 -213 -37q-84 -35 -149 -96 q-64 -61 -101 -147q-38 -87 -38 -196zM366 1020h208l303 293h-350zM374 578q1 23 7 37q7 22 22 45q17 30 48 51q44 30 113 31q69 0 116 -30q26 -16 40 -43q13 -21 18 -47q4 -14 6 -44h-370z" />
<glyph unicode="&#xea;" horiz-adv-x="1214" d="M-10 469q0 119 43 220q20 46 50 89t65 77q6 5 12 11t13 11l-56 58h-9l319 443h219l10 -15l139 -138l314 -437h-92l99 -99q27 -26 47.5 -59.5t34.5 -70.5q32 -74 32 -179q0 -38 -6 -80q-3 -20 -10.5 -47.5t-20.5 -65.5h-115l176 -202q-77 -66 -145.5 -108.5t-129.5 -61.5 q-122 -38 -307 -38q-96 0 -186 31q-94 31 -170 97q-6 5 -11.5 10.5l-10.5 10.5l-113 112q-5 4 -9 7.5t-8 7.5q-38 33 -69 75.5t-56 94.5q-49 104 -49 246zM50 469q0 -129 43 -221t110 -150t151 -86t168 -28q179 0 290 35t211 121l-150 173q-36 -30 -63 -47q-32 -18 -70 -33 q-23 -10 -44 -14q-31 -7 -78 -7h-12q-111 6 -145 32q-33 16 -53 39t-28 48t-11 63h633q10 31 16 65q5 35 5 71q0 91 -29 159q-28 78 -85 125q-58 57 -141 93q-86 38 -217 38q-122 0 -213 -37q-84 -35 -149 -96q-64 -61 -101 -147q-38 -87 -38 -196zM225 995h221l92 135 l89 -135h221l-232 323h-159zM374 578q1 23 7 37q7 22 22 45q17 30 48 51q44 30 113 31q69 0 116 -30q26 -16 40 -43q13 -21 18 -47q4 -14 6 -44h-370z" />
<glyph unicode="&#xeb;" horiz-adv-x="1214" d="M-10 469q0 119 43 220q20 46 50 89t65 77q23 21 48 40t52 35l-47 46q-14 9 -26 23q-30 32 -45.5 69t-15.5 82q0 86 61 150q66 63 152 63q87 0 150 -63q7 -7 13 -14t11 -14l46 -47q15 40 48 75q66 63 152 63q87 0 150 -63q7 -7 12.5 -14t10.5 -14l125 -124q62 -62 62 -148 t-62 -148q-23 -23 -52 -39q2 -2 3 -3.5t3 -3.5l117 -117q27 -26 47.5 -59.5t34.5 -70.5q32 -74 32 -179q0 -38 -6 -80q-3 -20 -10.5 -47.5t-20.5 -65.5h-115l176 -202q-77 -66 -145.5 -108.5t-129.5 -61.5q-122 -38 -307 -38q-96 0 -186 31q-94 31 -170 97q-6 5 -11.5 10.5 l-10.5 10.5l-113 112q-5 4 -9 7.5t-8 7.5q-38 33 -69 75.5t-56 94.5q-49 104 -49 246zM50 469q0 -129 43 -221t110 -150t151 -86t168 -28q179 0 290 35t211 121l-150 173q-36 -30 -63 -47q-32 -18 -70 -33q-23 -10 -44 -14q-31 -7 -78 -7h-12q-111 6 -145 32q-33 16 -53 39 t-28 48t-11 63h633q10 31 16 65q5 35 5 71q0 91 -29 159q-28 78 -85 125q-58 57 -141 93q-86 38 -217 38q-122 0 -213 -37q-84 -35 -149 -96q-64 -61 -101 -147q-38 -87 -38 -196zM174 1150q0 -63 44 -108q46 -45 109 -45t108 45t45 108t-45 108t-108 45t-109 -45 q-44 -45 -44 -108zM374 578q1 23 7 37q7 22 22 45q17 30 48 51q44 30 113 31q69 0 116 -30q26 -16 40 -43q13 -21 18 -47q4 -14 6 -44h-370zM594 1150q0 -63 44 -108q46 -45 109 -45t108 45t45 108t-45 108t-108 45t-109 -45q-44 -45 -44 -108z" />
<glyph unicode="&#xec;" horiz-adv-x="828" d="M-98 1372h534l6 -11l142 -142l223 -407h-44v-492l105 -105v-422h-655l-147 147h-6v428h104v111l-78 78h-6v428h221l-242 234l-43 42zM50 1312l303 -293h208l-161 293h-350zM120 0h541v308h-105v617h-416v-308h84v-309h-104v-308z" />
<glyph unicode="&#xed;" horiz-adv-x="912" d="M-10 -60v428h104v111l-78 78h-6v428h52l213 388h534l-5 -5l148 -148l-330 -318l71 -70v-512l105 -105v-422h-655l-147 147h-6zM50 0h541v308h-105v617h-416v-308h84v-309h-104v-308zM150 1020h208l303 293h-350z" />
<glyph unicode="&#xee;" horiz-adv-x="894" d="M-67 935l319 443h219l10 -15l139 -138l314 -437h-200v-468l105 -105v-422h-655l-147 147h-6v428h104v111l-78 78h-6v269l-109 109h-9zM50 995h221l92 135l89 -135h221l-232 323h-159zM91 0h541v308h-105v617h-416v-308h84v-309h-104v-308z" />
<glyph unicode="&#xef;" horiz-adv-x="943" d="M-10 1150q0 86 61 150q66 63 152 63q87 0 150 -63q7 -7 13 -14t11 -14l46 -47q15 40 48 75q66 63 152 63q87 0 150 -63q7 -7 12.5 -14t10.5 -14l125 -124q62 -62 62 -148t-62 -148q-29 -29 -63 -44.5t-73 -17.5v-470l105 -105v-422h-655l-147 147h-6v428h104v111l-78 78 h-6v395l-24 24q-14 8 -27 23q-30 32 -45.5 69t-15.5 82zM50 1150q0 -63 44 -108q46 -45 109 -45t108 45t45 108t-45 108t-108 45t-109 -45q-44 -45 -44 -108zM142 0h541v308h-105v617h-416v-308h84v-309h-104v-308zM470 1150q0 -63 44 -108q46 -45 109 -45t108 45t45 108 t-45 108t-108 45t-109 -45q-44 -45 -44 -108z" />
<glyph unicode="&#xf0;" horiz-adv-x="1262" d="M-10 480q0 134 62 255q29 56 71 105t90 85q13 10 26.5 18t27.5 16l-99 148l168 60l-101 101q-8 3 -13 7l26 99h399q51 -29 91 -58q19 7 40.5 15.5t42.5 16.5q27 11 53.5 21t46.5 17l22 -27l127 -127l144 -176l-156 -56q54 -64 95 -129.5t72 -134.5q77 -177 77 -362v-23.5 t-1 -23.5q-12 -242 -154 -389q-157 -160 -421 -160q-247 0 -410 142q-6 5 -12 10.5t-11 10.5l-116 115q-3 3 -6.5 6t-6.5 6q-174 153 -174 412zM50 480q0 -230 154 -367q146 -128 372 -128q241 0 380 143q127 132 138 353q1 22 1 43q0 174 -72 339q-72 163 -214 312l160 58 l-67 81l-174 -65q-44 35 -97 65h-354q102 -56 202 -158l-218 -80l58 -86l226 86q53 -74 111 -179q-87 55 -184 55q-14 0 -28 -1q-103 -7 -195 -74q-90 -66 -143 -169q-56 -108 -56 -228zM400 477q0 107 54 173q49 58 120 61h7q66 0 113 -51q54 -60 55 -166q0 -114 -54 -184 q-49 -64 -119 -67h-9q-65 0 -111 54q-55 65 -56 180zM607 312q23 12 41 35q18 26 29.5 64.5t11.5 81.5v2q-23 -11 -41 -32h-1q-40 -51 -40 -136v-15zM1066 177q60 98 78 226q-11 -61 -30 -118.5t-48 -107.5z" />
<glyph unicode="&#xf1;" horiz-adv-x="1364" d="M-10 -60v428h84v121l-68 68h-6v429h212q0 10 -0.5 22.5t-1 23.5t-0.5 20v12q0 78 23 139q26 72 85 112q25 18 56 30q39 13 85 13q98 0 212 -63q54 -30 82 -30q2 0 6 2q0 4 0.5 14t1.5 28q1 12 1.5 28.5t1.5 34.5h270v-7l147 -146q0 -6 1 -22.5t1.5 -35t1 -36.5t0.5 -27 q0 -132 -70 -208h-1q-27 -31 -65 -50q4 -5 7.5 -9.5t7.5 -9.5l115 -114q44 -44 77 -101q68 -117 69 -251v-61l79 -79v-422h-525l-121 121v-121h-615l-147 147h-6zM50 0h501v308h-85v196q0 77 51 136q49 56 109 56q59 0 108 -56q51 -58 52 -134v-506h411v308h-79v197 q-1 118 -61 222q-59 100 -155 157q-87 51 -181 51q-14 0 -29 -1q-121 -9 -226 -99l-40 91h-366v-309h74v-309h-84v-308zM270 1064q0 -18 1 -42h153q5 78 59 82h6q37 0 103 -32q90 -46 171 -50q9 -1 17 -1q90 0 143 58q55 60 55 169q0 38 -1 64h-155q-3 -69 -18 -86 q-19 -21 -51 -21q-44 0 -111 37q-101 56 -183 56q-35 0 -66 -10q-123 -39 -123 -224zM673 300l53 -53v221q-9 -7 -16 -16h-1q-36 -42 -36 -98v-54z" />
<glyph unicode="&#xf2;" horiz-adv-x="1280" d="M-30 471q0 219 157 376q143 125 344 149l-231 223l-38 37l-119 116h534l6 -11l142 -142l170 -313q40 -24 81 -59q11 -11 20.5 -22t18.5 -22l109 -108q156 -156 156 -374q0 -220 -156 -379q-176 -158 -442 -158q-268 0 -444 158l-126 126q-7 5 -13.5 10.5t-12.5 11.5 q-156 159 -156 381zM30 471q0 -197 138 -338q159 -142 404 -142q244 0 403 142q138 141 138 338q0 195 -138 333q-158 138 -403 138q-246 0 -404 -138q-138 -138 -138 -333zM231 1312l303 -293h208l-161 293h-350zM379 471q0 90 48 154q49 65 145 65q94 0 143 -65 q49 -64 49 -154q0 -92 -49 -160q-50 -68 -143 -68q-96 0 -145 68q-48 68 -48 160zM586 303q52 4 81 44q37 50 37 124v11q-55 -6 -82 -42q-36 -49 -36 -119v-18z" />
<glyph unicode="&#xf3;" horiz-adv-x="1280" d="M-30 471q0 219 157 376q42 35 87 62.5t96 47.5l-2 3h-8l226 413h534l-5 -5l148 -148l-304 -293q60 -32 117 -80q11 -11 20.5 -22t18.5 -22l109 -108q156 -156 156 -374q0 -220 -156 -379q-176 -158 -442 -158q-268 0 -444 158l-126 126q-7 5 -13.5 10.5t-12.5 11.5 q-156 159 -156 381zM30 471q0 -197 138 -338q159 -142 404 -142q244 0 403 142q138 141 138 338q0 195 -138 333q-158 138 -403 138q-246 0 -404 -138q-138 -138 -138 -333zM379 471q0 90 48 154q49 65 145 65q94 0 143 -65q49 -64 49 -154q0 -92 -49 -160q-50 -68 -143 -68 q-96 0 -145 68q-48 68 -48 160zM401 1020h208l303 293h-350zM586 303q52 4 81 44q37 50 37 124v11q-54 -6 -81 -41q-37 -50 -37 -120v-18z" />
<glyph unicode="&#xf4;" horiz-adv-x="1280" d="M-30 471q0 219 157 376q15 13 30.5 25.5t32.5 23.5l-38 39h-9l319 443h219l10 -15l139 -138l314 -437h-73l93 -93q156 -156 156 -374q0 -220 -156 -379q-176 -158 -442 -158q-268 0 -444 158l-126 126q-7 5 -13.5 10.5t-12.5 11.5q-156 159 -156 381zM30 471 q0 -197 138 -338q159 -142 404 -142q244 0 403 142q138 141 138 338q0 195 -138 333q-158 138 -403 138q-246 0 -404 -138q-138 -138 -138 -333zM260 995h221l92 135l89 -135h221l-232 323h-159zM379 471q0 90 48 154q49 65 145 65q94 0 143 -65q49 -64 49 -154 q0 -92 -49 -160q-50 -68 -143 -68q-96 0 -145 68q-48 68 -48 160zM586 303q52 4 81 44q37 50 37 124v11q-54 -6 -81 -41l-1 -1q-36 -49 -36 -119v-18z" />
<glyph unicode="&#xf5;" horiz-adv-x="1280" d="M-30 471q0 219 157 376q44 38 90 65l-49 50h-6q0 6 -1 21t-1.5 31.5t-1 30.5t-0.5 19q0 78 23 139q26 72 85 112q25 18 56 30q39 13 85 13q98 0 212 -63q54 -30 82 -30q2 0 6 2q0 4 0.5 14t1.5 28q1 12 1.5 28.5t1.5 34.5h270v-7l147 -146q0 -6 1 -22.5t1.5 -35t1 -36.5 t0.5 -27q0 -132 -70 -208h-1q-11 -12 -23 -22.5t-25 -18.5q0 -2 2 -2q11 -11 20.5 -22t18.5 -22l109 -108q156 -156 156 -374q0 -220 -156 -379q-176 -158 -442 -158q-268 0 -444 158l-126 126q-7 5 -13.5 10.5t-12.5 11.5q-156 159 -156 381zM30 471q0 -197 138 -338 q159 -142 404 -142q244 0 403 142q138 141 138 338q0 195 -138 333q-158 138 -403 138q-246 0 -404 -138q-138 -138 -138 -333zM218 1064q0 -18 1 -42h153q5 78 59 82h6q37 0 103 -32q90 -46 171 -50q9 -1 17 -1q90 0 143 58q55 60 55 169q0 38 -1 64h-155q-3 -69 -18 -86 q-19 -21 -51 -21q-44 0 -111 37q-101 56 -183 56q-35 0 -66 -10q-123 -39 -123 -224zM379 471q0 90 48 154q49 65 145 65q94 0 143 -65q49 -64 49 -154q0 -92 -49 -160q-50 -68 -143 -68q-96 0 -145 68q-48 68 -48 160zM586 303q52 4 81 44q37 50 37 124v11q-55 -6 -82 -42 q-36 -49 -36 -119v-18z" />
<glyph unicode="&#xf6;" horiz-adv-x="1280" d="M-30 471q0 219 157 376q65 58 145 94l-35 34q-14 10 -27 24q-30 32 -45.5 69t-15.5 82q0 86 61 150q66 63 152 63q87 0 150 -63q7 -7 13 -14t11 -14l46 -47q15 40 48 75q66 63 152 63q87 0 150 -63q7 -7 12.5 -14t10.5 -14l125 -124q62 -62 62 -148t-62 -148 q-19 -19 -40 -31l15 -18l109 -108q156 -156 156 -374q0 -220 -156 -379q-176 -158 -442 -158q-268 0 -444 158l-126 126q-7 5 -13.5 10.5t-12.5 11.5q-156 159 -156 381zM30 471q0 -197 138 -338q159 -142 404 -142q244 0 403 142q138 141 138 338q0 195 -138 333 q-158 138 -403 138q-246 0 -404 -138q-138 -138 -138 -333zM209 1150q0 -63 44 -108q46 -45 109 -45t108 45t45 108t-45 108t-108 45t-109 -45q-44 -45 -44 -108zM379 471q0 90 48 154q49 65 145 65q94 0 143 -65q49 -64 49 -154q0 -92 -49 -160q-50 -68 -143 -68 q-96 0 -145 68q-48 68 -48 160zM586 303q52 4 81 44q37 50 37 124v11q-54 -6 -81 -41q-37 -50 -37 -120v-18zM629 1150q0 -63 44 -108q46 -45 109 -45t108 45t45 108t-45 108t-108 45t-109 -45q-44 -45 -44 -108z" />
<glyph unicode="&#xf7;" horiz-adv-x="845" d="M-10 548v316h201l-12 12h-6v363h382v-6l147 -147v-222h36v-6l147 -147v-310h-183v-353h-376l-147 147h-6v206h-30l-147 147h-6zM50 608h628v196h-628v-196zM233 255h262v243h-262v-243zM233 936h262v243h-262v-243z" />
<glyph unicode="&#xf8;" horiz-adv-x="1206" d="M20 470q0 113 39.5 207.5t117.5 174.5q80 78 175 118t208 40q70 0 133 -15l33 69q11 22 21 43.5t18 38.5h238l-3 -6l148 -147l-114 -238l55 -55q157 -159 157 -380t-156 -383q-158 -161 -380 -161q-71 0 -137 17q-19 -39 -38.5 -80t-34.5 -73h-229l-147 147h-8l117 245 l-16 16l-1 1q-21 18 -39 36q-78 81 -117.5 176.5t-39.5 208.5zM80 470q0 -199 140 -343q42 -43 90 -73l-99 -207h103l79 165q78 -29 167 -29q198 0 339 144q140 144 140 343t-140 340q-42 42 -89 71l98 205h-105l-78 -164q-77 28 -165 28q-199 0 -340 -140 q-140 -141 -140 -340zM417 470q0 81 42 138t101 57t100 -57q42 -57 42 -138t-42 -142t-100 -61q-59 0 -101 61t-42 142z" />
<glyph unicode="&#xf9;" horiz-adv-x="1331" d="M-10 556v430h522v-6l142 -142v15l-379 366l-43 43l-114 110h534l6 -11l142 -142l127 -233h237v-6l147 -147v-558l60 -60v-422h-448l-46 46q-82 -47 -175 -56q-7 -1 -15 -1h-17q-111 0 -213 60l1 -1q-51 29 -95 73l-110 110q-38 29 -68.5 65t-55.5 78q-33 57 -51 121.5 t-18 130.5v73l-64 64h-6zM50 616h70v-197q0 -117 61 -221q58 -101 155 -157q88 -52 184 -52q13 0 26 1q120 10 226 100l40 -90h352v308h-60v618h-390v-309h58v-197q0 -77 -51 -135q-49 -57 -109 -57t-109 56q-51 58 -51 135v507h-402v-310zM266 1312l303 -293h208l-161 293 h-350zM659 307l8 8l9 9q36 40 36 96v85l-52 52h-1v-250z" />
<glyph unicode="&#xfa;" horiz-adv-x="1331" d="M-10 556v430h360l212 387h534l-5 -5l148 -148l-243 -234h168v-6l147 -147v-558l60 -60v-422h-448l-46 46q-82 -47 -176 -56q-7 -1 -15 -1h-16q-111 0 -213 60l1 -1q-51 29 -95 73l-110 110q-38 29 -68.5 65t-55.5 78q-33 57 -51 121.5t-18 130.5v73l-64 64h-6zM50 616h70 v-197q0 -117 61 -221q58 -101 155 -157q88 -52 184 -52q13 0 26 1q120 10 226 100l40 -90h352v308h-60v618h-390v-309h58v-197q0 -77 -51 -135q-49 -57 -109 -57t-109 56q-51 58 -51 135v507h-402v-310zM437 1020h208l303 293h-350zM659 307l8 8l9 9q36 40 36 96v85l-52 52 h-1v-250z" />
<glyph unicode="&#xfb;" horiz-adv-x="1331" d="M-10 556v430h225l283 392h219l10 -15l139 -138l172 -239h126v-6l147 -147v-558l60 -60v-422h-448l-46 46q-82 -47 -176 -56q-7 -1 -15 -1h-16q-111 0 -213 60l1 -1q-51 29 -95 73l-110 110q-38 29 -68.5 65t-55.5 78q-33 57 -51 121.5t-18 130.5v73l-64 64h-6zM50 616h70 v-197q0 -117 61 -221q58 -101 155 -157q88 -52 184 -52q13 0 26 1q120 10 226 100l40 -90h352v308h-60v618h-390v-309h58v-197q0 -77 -51 -135q-49 -57 -109 -57t-109 56q-51 58 -51 135v507h-402v-310zM296 995h221l92 135l89 -135h221l-232 323h-159zM659 307l8 8l9 9 q36 40 36 96v85l-52 52h-1v-250z" />
<glyph unicode="&#xfc;" horiz-adv-x="1331" d="M-10 556v430h269q-4 3 -7.5 6t-6.5 7q-30 32 -45.5 69t-15.5 82q0 86 61 150q66 63 152 63q87 0 150 -63q7 -7 13 -14t11 -14l46 -47q15 40 48 75q66 63 152 63q87 0 150 -63q7 -7 12.5 -14t10.5 -14l125 -124q62 -62 62 -148q0 -8 -0.5 -15.5t-1.5 -15.5l136 -136v-558 l60 -60v-422h-448l-46 46q-82 -47 -175 -56q-7 -1 -15 -1h-17q-111 0 -213 60l1 -1q-51 29 -95 73l-110 110q-38 29 -68.5 65t-55.5 78q-33 57 -51 121.5t-18 130.5v73l-64 64h-6zM50 616h70v-197q0 -117 61 -221q58 -101 155 -157q88 -52 184 -52q13 0 26 1q120 10 226 100 l40 -90h352v308h-60v618h-390v-309h58v-197q0 -77 -51 -135q-49 -57 -109 -57t-109 56q-51 58 -51 135v507h-402v-310zM244 1150q0 -63 44 -108q46 -45 109 -45t108 45t45 108t-45 108t-108 45t-109 -45q-44 -45 -44 -108zM659 307l8 8l9 9q36 40 36 96v85l-52 52h-1v-250z M664 1150q0 -63 44 -108q46 -45 109 -45t108 45t45 108t-45 108t-108 45t-109 -45q-44 -45 -44 -108z" />
<glyph unicode="&#xfd;" horiz-adv-x="1202" d="M-31 -397l159 342q37 -8 55 -10.5t24 -2.5q69 0 107 71l-155 407h-16l-147 147h-6v429h295l212 387h534l-5 -5l148 -148l-243 -234h164v-6l147 -147v-423h-105q-29 -77 -57 -153.5t-56 -153.5l-18 -49h1q-15 -42 -31 -83.5t-31 -83.5q-10 -27 -22.5 -59.5t-22.5 -59.5 q-22 -59 -51 -108.5t-65 -91.5l1 -1q-36 -43 -81 -76t-96 -54q-46 -19 -101.5 -29.5t-113.5 -10.5h-12q-51 1 -115.5 16t-142.5 42l-145 145zM50 617h94l235 -617l-1 -1q-53 -127 -171 -127q-21 0 -44 4l-111 -238q90 -32 180 -34h11q107 0 193 36q90 38 155 114 q66 76 106 184l44 118l62 167l18 50l127 344h87v309h-467v-309h62q-49 -150 -102 -322q-39 173 -79 322h68v309h-467v-309zM372 1020h208l303 293h-350z" />
<glyph unicode="&#xfe;" horiz-adv-x="1263" d="M50 -458v1838h446v-6l147 -147v-201q15 2 30 3t31 1h23q83 -5 156 -46.5t135 -115.5l110 -110q11 -11 21.5 -23t21.5 -25q66 -83 98.5 -185t33.5 -227v-7q0 -252 -142 -401q-133 -140 -292 -144h-14q-59 0 -112 14t-100 40v-405h-440l-147 147h-6zM110 -398h326v466 q108 -115 269 -115h13q136 4 252 126q126 133 126 362v7q-1 228 -119 376q-109 137 -252 146h-21q-159 0 -268 -116v466h-326v-1718zM413 463q0 117 49 177q44 53 121 53h3q78 0 128 -53q57 -59 57 -178v-4q0 -116 -55 -174q-48 -51 -126 -51h-3q-79 0 -124 53 q-50 59 -50 177zM620 296q31 8 52 29q39 40 39 133v4v10.5t-1 10.5q-34 -6 -54 -29q-36 -47 -36 -141v-17zM668 605l5 -5q-2 3 -5 5z" />
<glyph unicode="&#xff;" horiz-adv-x="1202" d="M-31 -397l159 342q37 -8 55 -10.5t24 -2.5q69 0 107 71l-155 407h-16l-147 147h-6v429h205q-4 3 -7.5 6t-6.5 7q-30 32 -45.5 69t-15.5 82q0 86 61 150q66 63 152 63q87 0 150 -63q7 -7 13 -14t11 -14l46 -47q15 40 48 75q66 63 152 63q87 0 150 -63q7 -7 12.5 -14 t10.5 -14l125 -124q62 -62 62 -148q0 -18 -3 -36l132 -131v-423h-105q-29 -77 -57 -153.5t-56 -153.5l-18 -49h1q-15 -42 -31 -83.5t-31 -83.5q-10 -27 -22.5 -59.5t-22.5 -59.5q-22 -59 -51 -108.5t-65 -91.5l1 -1q-36 -43 -81 -76t-96 -54q-46 -19 -101.5 -29.5 t-113.5 -10.5h-12q-51 1 -115.5 16t-142.5 42l-145 145zM50 617h94l235 -617l-1 -1q-53 -127 -171 -127q-21 0 -44 4l-111 -238q90 -32 180 -34h11q107 0 193 36q90 38 155 114q66 76 106 184l44 118l62 167l18 50l127 344h87v309h-467v-309h62q-49 -150 -102 -322 q-39 173 -79 322h68v309h-467v-309zM180 1150q0 -63 44 -108q46 -45 109 -45t108 45t45 108t-45 108t-108 45t-109 -45q-44 -45 -44 -108zM600 1150q0 -63 44 -108q46 -45 109 -45t108 45t45 108t-45 108t-108 45t-109 -45q-44 -45 -44 -108z" />
<glyph unicode="&#x152;" horiz-adv-x="2160" d="M-10 655q0 305 223 520q220 214 534 214q42 0 83 -3.5t78 -11.5h1145v-6l147 -147v-486h-153l3 -3v-301h3v-6l147 -147v-485h-1124q-42 -9 -88 -14.5t-91 -5.5q-314 0 -532 214l-114 113q-9 8 -18.5 17t-18.5 18q-224 212 -224 520zM50 655q0 -280 205 -477 q203 -198 492 -198q92 0 175 20h1071v371h-218v-85h-308v262h376v277h-376v196h308v-79h218v372h-1093q-73 15 -153 15q-289 0 -492 -197q-205 -198 -205 -477zM409 655q0 168 106 268q95 89 232 89t232 -89q105 -100 105 -268q0 -169 -105 -268q-95 -90 -232 -90 q-137 1 -232 90q-106 99 -106 268zM616 505q0 -35 5 -66.5t16 -59.5q52 -22 110 -22q113 0 191 73q86 83 86 225q0 74 -24 131q-24 9 -49.5 14t-53.5 5q-114 0 -193 -74h-1q-87 -84 -87 -226z" />
<glyph unicode="&#x153;" horiz-adv-x="1972" d="M-30 471q0 219 157 376q177 155 445 155q223 0 382 -107q29 22 58 38t61 30q103 42 236 42q143 0 241 -43q47 -20 85.5 -46.5t72.5 -58.5q26 -21 47 -50l119 -118q27 -26 47.5 -59.5t34.5 -70.5q32 -74 32 -179q0 -38 -6 -80q-3 -20 -10.5 -47.5t-20.5 -65.5h-115 l176 -202q-77 -66 -145.5 -108.5t-129.5 -61.5q-122 -38 -307 -38q-96 0 -186 31q-80 26 -149 80q-158 -104 -373 -104q-268 0 -444 158l-126 126q-7 5 -13.5 10.5t-12.5 11.5q-156 159 -156 381zM30 471q0 -197 138 -338q159 -142 404 -142q223 0 376 119q6 -6 13 -12 q67 -58 151 -86t168 -28q179 0 290 35t211 121l-150 173q-36 -30 -63 -47q-32 -18 -70 -33q-23 -10 -44 -14q-31 -7 -78 -7h-12q-111 6 -145 32q-33 16 -53 39t-28 48t-11 63h633q10 31 16 65q5 35 5 71q0 91 -29 159q-28 78 -85 125q-58 57 -141 93q-86 38 -217 38 q-122 0 -213 -37q-78 -33 -140 -88q-154 122 -384 122q-246 0 -404 -138q-138 -138 -138 -333zM352 471q0 90 55 154q56 65 165 65q108 0 164 -65q56 -64 56 -154q0 -92 -56 -160q-57 -68 -164 -68q-109 0 -165 68q-55 68 -55 160zM451 347q1 -2 5 -6zM559 303h13 q37 0 67.5 12.5t50.5 33.5q20 25 31 56t11 66v12h-10q-83 0 -122 -45q-41 -47 -41 -117v-18zM1132 578q1 23 7 37q7 22 22 45q17 30 48 51q44 30 113 31q69 0 116 -30q26 -16 40 -43q13 -21 18 -47q4 -14 6 -44h-370z" />
<glyph unicode="&#x178;" horiz-adv-x="1636" d="M20 947v427h407q-4 3 -7.5 6t-6.5 7q-30 32 -45.5 69t-15.5 82q0 86 61 150q66 63 152 63q87 0 150 -63q7 -7 13 -14t11 -14l46 -47q15 40 48 75q66 63 152 63q87 0 150 -63q7 -7 12.5 -14t10.5 -14l125 -124q62 -62 62 -148q0 -10 -1 -14h185v-6l147 -147v-421h-182 q-40 -59 -77.5 -115t-74.5 -110.5t-74 -110t-76 -113.5l136 -136v-422h-806l-147 147h-6v428h156v101q-51 75 -101 150.5t-98 146.5q-6 8 -12 16.5t-11 17.5h-130l-147 147h-6zM80 1007h156l349 -520v-179h-156v-308h692v308h-157v179l349 520h156v307h-608v-307h79 q-84 -160 -165 -299q-81 139 -166 299h80v307h-609v-307zM412 1538q0 -63 44 -108q46 -45 109 -45t108 45t45 108t-45 108t-108 45t-109 -45q-44 -45 -44 -108zM832 1538q0 -63 44 -108q46 -45 109 -45t108 45t45 108t-45 108t-108 45t-109 -45q-44 -45 -44 -108z" />
<glyph unicode="&#x2c6;" horiz-adv-x="1044" d="M83 935l319 443h219l10 -15l139 -138l314 -437h-364l-71 71q-14 -20 -26 -38.5t-22 -32.5h-362l-147 147h-9zM200 995h221l92 135l89 -135h221l-232 323h-159z" />
<glyph unicode="&#x2dc;" horiz-adv-x="955" d="M20 1064q0 78 23 139q26 72 85 112q25 18 56 30q39 13 85 13q98 0 212 -63q54 -30 82 -30q2 0 6 2q0 4 0.5 14t1.5 28q1 12 1.5 28.5t1.5 34.5h270v-7l147 -146q0 -6 1 -22.5t1.5 -35t1 -36.5t0.5 -27q0 -132 -70 -208h-1q-69 -76 -184 -76q-5 0 -8.5 -0.5t-11.5 1.5 q-46 2 -95 16t-99 40l-2 1q-52 25 -75 25h-2q-5 -6 -9 -82h-261l-147 147h-6q0 6 -1 21t-1.5 31.5t-1 30.5t-0.5 19zM80 1064q0 -18 1 -42h153q5 78 59 82h6q37 0 103 -32q90 -46 171 -50q9 -1 17 -1q90 0 143 58q55 60 55 169q0 38 -1 64h-155q-3 -69 -18 -86 q-19 -21 -51 -21q-44 0 -111 37q-101 56 -183 56q-35 0 -66 -10q-123 -39 -123 -224z" />
<glyph unicode="&#x2000;" horiz-adv-x="890" />
<glyph unicode="&#x2001;" horiz-adv-x="1780" />
<glyph unicode="&#x2002;" horiz-adv-x="890" />
<glyph unicode="&#x2003;" horiz-adv-x="1780" />
<glyph unicode="&#x2004;" horiz-adv-x="593" />
<glyph unicode="&#x2005;" horiz-adv-x="445" />
<glyph unicode="&#x2006;" horiz-adv-x="296" />
<glyph unicode="&#x2007;" horiz-adv-x="296" />
<glyph unicode="&#x2008;" horiz-adv-x="222" />
<glyph unicode="&#x2009;" horiz-adv-x="356" />
<glyph unicode="&#x200a;" horiz-adv-x="98" />
<glyph unicode="&#x2010;" horiz-adv-x="827" d="M20 552v388h700v-6l147 -147v-382h-694l-147 147h-6zM80 612h580v268h-580v-268z" />
<glyph unicode="&#x2011;" horiz-adv-x="827" d="M20 552v388h700v-6l147 -147v-382h-694l-147 147h-6zM80 612h580v268h-580v-268z" />
<glyph unicode="&#x2012;" horiz-adv-x="827" d="M20 552v388h700v-6l147 -147v-382h-694l-147 147h-6zM80 612h580v268h-580v-268z" />
<glyph unicode="&#x2013;" horiz-adv-x="1203" d="M-72 364v342h1168v-6l147 -147v-336h-1162l-147 147h-6zM-12 424h1048v222h-1048v-222z" />
<glyph unicode="&#x2014;" horiz-adv-x="2227" d="M-72 364v342h2192v-6l147 -147v-336h-2186l-147 147h-6zM-12 424h2072v222h-2072v-222z" />
<glyph unicode="&#x2018;" horiz-adv-x="470" d="M-10 866v211q0 157 56 234q57 81 260 120v-7l147 -147v-196l57 -57v-305h-367l-147 147h-6zM50 926h253v191h-121q3 72 29 94q12 15 35 22v125q-107 -21 -151 -82q-45 -62 -45 -199v-151z" />
<glyph unicode="&#x2019;" horiz-adv-x="470" d="M-10 1108v310h373v-6l147 -147v-207q0 -156 -56 -233q-56 -79 -254 -118l-147 147q-2 -1 -6 -1v204l-51 51h-6zM50 1168h121q-3 -72 -29 -94q-12 -16 -35 -22v-126q107 21 151 83q45 62 45 199v150h-253v-190z" />
<glyph unicode="&#x201a;" horiz-adv-x="470" d="M-10 -34v310h373v-6l147 -147v-207q0 -156 -56 -233q-58 -79 -254 -118l-147 147q-4 0 -6 -1v204l-51 51h-6zM50 26h121q-3 -72 -29 -94q-12 -16 -35 -22v-126q107 21 151 83q45 62 45 199v150h-253v-190z" />
<glyph unicode="&#x201c;" horiz-adv-x="824" d="M-10 866v211q0 157 56 234q57 81 260 120v-7l102 -103q31 37 94 64t158 46v-7l147 -147v-196l57 -57v-305h-721l-147 147h-6zM50 926h253v191h-121q3 72 29 94q12 15 35 22v125q-107 -21 -151 -82q-45 -62 -45 -199v-151zM404 926h253v191h-121q3 72 29 94q12 15 35 22 v125q-107 -21 -151 -82q-45 -62 -45 -199v-151z" />
<glyph unicode="&#x201d;" horiz-adv-x="824" d="M-10 1108v310h727v-6l147 -147v-207q0 -155 -55 -232q-56 -80 -255 -119l-108 108q-61 -72 -246 -108l-147 147q-2 -1 -6 -1v204l-51 51h-6zM50 1168h121q-3 -72 -29 -94q-12 -16 -35 -22v-126q107 21 151 83q45 62 45 199v150h-253v-190zM404 1168h121q-3 -72 -29 -94 q-12 -16 -35 -22v-126q107 21 151 83q45 62 45 199v150h-253v-190z" />
<glyph unicode="&#x201e;" horiz-adv-x="824" d="M-10 -34v310h727v-6l147 -147v-207q0 -155 -55 -232q-56 -80 -255 -119l-108 108q-63 -72 -246 -108l-147 147q-4 0 -6 -1v204l-51 51h-6zM50 26h121q-3 -72 -29 -94q-12 -16 -35 -22v-126q107 21 151 83q45 62 45 199v150h-253v-190zM404 26h121q-3 -72 -29 -94 q-12 -16 -35 -22v-126q107 21 151 83q45 62 45 199v150h-253v-190z" />
<glyph unicode="&#x2022;" horiz-adv-x="867" d="M40 660q0 148 106 254t254 106t254 -106q9 -9 16.5 -18t15.5 -19l116 -115q105 -105 105 -252t-105 -252t-252 -105t-252 105l-116 115q-18 15 -36 33q-106 106 -106 254zM100 660q0 -124 88 -212t212 -88t212 88t88 212t-88 212t-212 88t-212 -88t-88 -212z" />
<glyph unicode="&#x2026;" horiz-adv-x="1991" d="M40 -60v452h478v-6l147 -147v-446h-472l-147 147h-6zM100 0h358v332h-358v-332zM723 -60v452h478v-6l147 -147v-446h-472l-147 147h-6zM783 0h358v332h-358v-332zM1406 -60v452h478v-6l147 -147v-446h-472l-147 147h-6zM1466 0h358v332h-358v-332z" />
<glyph unicode="&#x202f;" horiz-adv-x="356" />
<glyph unicode="&#x2039;" horiz-adv-x="901" d="M9 753l331 523h457l-4 -6l148 -147l-318 -521q34 -58 74 -125.5t80.5 -136.5t79.5 -135.5t71 -120.5h-436l-147 147h-5zM80 753l293 -462h306l-272 462l282 463h-316z" />
<glyph unicode="&#x203a;" horiz-adv-x="866" d="M-28 1276h457l8 -14l140 -139l329 -520l-329 -519h-437l-147 147h-9l308 521q-23 37 -47.5 77t-50.5 84q-28 46 -58 95t-59.5 96.5t-56 91.5t-48.5 80zM80 1216l282 -463l-272 -462h306l293 462l-293 463h-316z" />
<glyph unicode="&#x205f;" horiz-adv-x="445" />
<glyph unicode="&#x20ac;" horiz-adv-x="1557" d="M0 386l55 195l-47 48h-7l79 282h110q74 196 247 326q196 146 439 146q300 0 548 -245l-2 -3l148 -147l-272 -422l-148 147l-2 -4q-5 8 -8.5 15.5t-7.5 15.5l-48 -172l35 -36q6 11 11.5 21.5t11.5 22.5l16 -21l135 -134l304 -380q-250 -274 -571 -274q-244 0 -437 144 q-22 17 -42.5 34.5t-39.5 36.5l-101 101q-84 68 -141 156h-111l-147 147h-7zM80 446h152q66 -207 241 -339q179 -133 403 -133q297 0 496 219l-218 272q-95 -189 -273 -189h-7q-175 4 -270 170h263l45 161h-360q-3 21 -3 41q0 21 3 41h315l45 162h-308q95 166 270 169h7 q178 0 273 -189l193 299q-197 193 -471 193q-224 0 -403 -134q-175 -131 -241 -338h-107l-45 -162h123q-2 -21 -2 -41t2 -41h-78zM1094 800l6 -6q-1 2 -1.5 2.5t-1.5 2.5z" />
<glyph unicode="&#x2122;" horiz-adv-x="1441" d="M-81 1073v302h835q2 -6 3 -8l132 -133q12 33 24.5 68.5t26.5 72.5h394v-6l147 -147v-238h-66v-99l66 -66v-237h-1281l-147 147h-6v222l-122 122h-6zM-21 1133h116v66h79v-287h-67v-123h309v123h-71v287h80v-66h61v-221h-67v-123h267v119h-41v206q40 -91 106 -325h192 q66 234 106 325v-206h-44v-119h269v123h-66v279h66v124h-292q-108 -297 -135 -414q-27 117 -135 414h-733v-182z" />
<glyph unicode="&#x25fc;" horiz-adv-x="985" d="M0 0v985h985v-985h-985z" />
</font>
</defs>
</svg>
